<?xml version="1.0" standalone="no"?>
<!DOCTYPE svg PUBLIC "-//W3C//DTD SVG 20010904//EN"
 "http://www.w3.org/TR/2001/REC-SVG-20010904/DTD/svg10.dtd">
<svg version="1.0" xmlns="http://www.w3.org/2000/svg"
 width="500.000000pt" height="500.000000pt" viewBox="0 0 500.000000 500.000000"
 preserveAspectRatio="xMidYMid meet">
<metadata>
Created by potrace 1.11, written by Peter Selinger 2001-2013
</metadata>
<g transform="translate(0.000000,500.000000) scale(0.100000,-0.100000)"
fill="#000000" stroke="none">
<path d="M2977 3764 c-1 -2 -16 -5 -32 -8 -129 -23 -279 -57 -284 -63 -3 -5
-31 -29 -61 -54 -30 -25 -91 -75 -135 -111 -44 -36 -240 -197 -435 -358 -195
-160 -366 -301 -379 -312 -18 -16 -457 -173 -508 -182 -7 -1 -60 -52 -117
-112 l-105 -111 -55 0 c-31 -1 -114 -2 -185 -2 l-129 -1 -35 -62 c-36 -66 -75
-138 -122 -226 -26 -49 -33 -54 -84 -68 -214 -60 -218 -64 -106 -77 28 -4 72
-11 98 -16 l48 -9 37 47 c20 26 71 93 112 149 73 100 76 102 110 98 44 -5 304
-57 309 -62 3 -2 4 -75 3 -162 l-1 -157 -86 -230 c-68 -182 -96 -276 -137
-450 -48 -212 -52 -223 -104 -308 -30 -48 -52 -87 -49 -87 19 0 261 53 267 59
4 3 1 38 -7 76 -8 39 -15 80 -15 91 0 12 51 127 114 255 l115 234 223 88 223
89 82 137 c45 75 92 146 105 157 13 12 81 62 151 112 93 66 135 91 150 87 12
-2 92 -16 177 -30 85 -14 169 -28 185 -31 17 -3 44 -7 60 -9 17 -2 55 -8 85
-14 l55 -9 280 128 c153 71 280 128 282 126 3 -3 -83 -375 -88 -381 -4 -4 -85
-12 -204 -19 -29 -2 -52 -9 -57 -17 -8 -14 -68 -294 -68 -317 0 -6 53 23 118
66 84 55 167 98 293 152 l177 75 138 213 c77 118 144 219 149 225 6 7 11 47
13 89 2 42 5 85 7 95 2 10 4 22 4 28 1 5 38 -28 84 -73 67 -67 122 -107 300
-218 l219 -136 71 35 c40 18 100 46 135 62 l62 28 -4 86 c-3 47 -8 151 -11
231 -12 273 -13 283 -44 380 -17 52 -31 100 -31 106 0 6 72 31 160 56 180 52
152 32 304 221 l88 108 -5 77 c-3 42 -6 79 -7 82 -1 3 -12 -26 -25 -64 -13
-38 -28 -72 -33 -75 -5 -3 -40 -34 -78 -67 -130 -116 -179 -155 -199 -159 -11
-2 -79 -12 -152 -21 l-131 -17 -35 29 c-20 16 -38 35 -41 42 -6 14 226 350
258 373 5 4 71 24 147 45 77 21 139 41 139 45 0 4 -12 6 -27 4 -16 -2 -86 -6
-157 -9 -114 -4 -132 -7 -165 -29 -39 -26 -259 -181 -276 -194 -49 -39 -133
-90 -145 -88 -15 2 -107 10 -260 21 -127 9 -76 -11 -470 189 -192 98 -242 120
-253 109z"/>
</g>
</svg>
