<svg id="Layer_1" data-name="Layer 1" xmlns="http://www.w3.org/2000/svg" viewBox="0 0 292.87 257.97"><defs><style>.cls-1{fill:#94C3DC;}</style></defs><polygon class="cls-1" points="22.44 28.81 53.78 6.37 54.76 10.71 61.32 0 49.07 2.76 52.86 5.08 21.52 27.52 22.44 28.81"/><path class="cls-1" d="M219,268.69,190.64,289l-14.17,10.14-3.54,2.53a36.64,36.64,0,0,0-3.48,2.79,29.26,29.26,0,0,0-5.48,7,27.67,27.67,0,0,0-3,8.43,26.57,26.57,0,0,0,0,8.94,27.11,27.11,0,0,0,8.47,15.45A24.87,24.87,0,0,0,173,347l3.67,2.34,7.34,4.7,14.67,9.39,117.41,75.11,128.68,82.32-3.67,2.51,12.38,2.12-7.11-10.35-.75,4.38L317,437.22l-117.4-75.1-14.68-9.39-7.33-4.7-3.67-2.34a23,23,0,0,1-3.36-2.58,25.54,25.54,0,0,1-8-14.54,24.94,24.94,0,0,1,0-8.4,26,26,0,0,1,2.79-7.93,27.2,27.2,0,0,1,5.18-6.65,33.2,33.2,0,0,1,3.31-2.66l3.54-2.53,14.17-10.14L219.89,270Z" transform="translate(-160.63 -267.53)"/></svg>