<?xml version="1.0" encoding="UTF-8"?>
<svg width="208px" height="128px" viewBox="0 0 208 128" version="1.1" xmlns="http://www.w3.org/2000/svg" xmlns:xlink="http://www.w3.org/1999/xlink">
    <!-- Generator: Sketch 47.1 (45422) - http://www.bohemiancoding.com/sketch -->
    <title>Group</title>
    <desc>Created with Sketch.</desc>
    <defs></defs>
    <g id="Page-1" stroke="none" stroke-width="1" fill="none" fill-rule="evenodd">
        <g id="Investors" transform="translate(-184.000000, -242.000000)">
            <g id="Group" transform="translate(159.000000, 242.000000)">
                <polygon id="Fill-1" fill="#5261A3" points="152.9215 14.7479 50.9235 73.2469 25.5005 87.8289 81.7625 120.3109 232.8685 32.9999 177.4475 0.5009"></polygon>
                <polygon id="Fill-2" fill="#576DA2" points="81.7617 120.3111 84.4927 121.8871 25.4997 87.8291 25.4997 94.9811 81.7047 127.4301"></polygon>
                <polygon id="Fill-6" fill="#799ADF" points="232.8686 32.9996 81.7616 120.3116 81.7046 127.3716 81.7606 127.4036 87.9016 123.8556 87.9526 123.8846 232.8906 40.1396 232.8906 33.0136"></polygon>
                <path d="M68.6616,96.5943 L71.6436,94.9323 L68.7646,93.0903 C68.1146,92.6693 67.5776,92.2633 67.0506,91.8633 L67.0186,91.8773 C67.2576,92.4513 67.5016,93.0413 67.7156,93.6543 L68.6616,96.5943 L68.6616,96.5943 Z M67.0846,90.4753 L77.0806,96.8923 L75.7126,97.6443 L72.5776,95.6253 L69.0706,97.5823 L70.1286,100.7683 L68.8016,101.5033 L65.5476,91.3353 L67.0846,90.4753 Z" id="Fill-8" fill="#FFFFFF"></path>
                <path d="M107.3916,79.0084 C108.3086,78.4944 108.5086,77.6764 108.3116,77.0604 C108.2656,76.9234 108.1996,76.7804 108.1136,76.6684 L107.2866,75.6374 C105.8586,76.4014 104.4236,77.5004 105.3466,78.6504 C105.7576,79.1694 106.3146,79.3164 106.8436,79.2184 C106.8866,79.2104 106.9286,79.2004 106.9706,79.1894 C107.1126,79.1464 107.2586,79.0844 107.3916,79.0084 L107.3916,79.0084 Z M109.8186,76.5484 C110.2256,77.0734 110.6666,77.5584 111.0746,77.9204 L109.9046,78.5674 L109.1976,77.8744 L109.1586,77.8994 C109.1326,78.5904 108.7036,79.4344 107.6916,79.9994 C107.4406,80.1414 107.1816,80.2494 106.9356,80.3124 C106.8446,80.3374 106.7546,80.3594 106.6646,80.3754 C105.6146,80.5704 104.6836,80.1594 104.1616,79.5054 C103.0036,78.0644 103.9086,76.4194 106.6566,74.8964 L106.5606,74.7774 C106.2486,74.3894 105.6426,73.8064 104.6796,73.9854 C104.6206,73.9954 104.5596,74.0104 104.4976,74.0274 C104.2956,74.0814 104.0776,74.1734 103.8496,74.3014 C103.1836,74.6744 102.6396,75.2314 102.3456,75.7754 L101.4876,75.2214 C101.8166,74.5764 102.5056,73.8914 103.3906,73.3914 C103.7596,73.1854 104.1096,73.0434 104.4386,72.9564 C104.5416,72.9284 104.6426,72.9044 104.7416,72.8864 C106.2176,72.6124 107.2996,73.3974 108.0456,74.3204 L109.8186,76.5484 Z" id="Fill-10" fill="#FFFFFF"></path>
                <path d="M96.5571,74.9361 L97.9251,76.6481 L99.7661,75.6101 L100.4201,76.4411 L98.5771,77.4711 L101.1371,80.6861 C101.6041,81.2691 102.0651,81.5651 102.5941,81.4671 C102.6271,81.4601 102.6611,81.4531 102.6951,81.4441 C102.8051,81.4151 102.9181,81.3681 103.0361,81.3031 C103.3641,81.1131 103.5861,80.9341 103.7231,80.8061 L104.4291,81.5931 C104.2461,81.8161 103.8971,82.0951 103.4041,82.3761 C103.1771,82.5041 102.9411,82.5991 102.7131,82.6591 C102.6391,82.6791 102.5651,82.6971 102.4921,82.7101 C102.1981,82.7651 101.9111,82.7631 101.6481,82.7031 C101.0271,82.5861 100.4761,82.1301 99.9031,81.4301 L97.3141,78.1771 L96.2171,78.7931 L95.5541,77.9641 L96.6621,77.3551 L95.5171,75.9281 L96.5571,74.9361 Z" id="Fill-12" fill="#FFFFFF"></path>
                <path d="M94.081,78.8805 C94.284,78.8425 94.476,78.8215 94.646,78.8115 L94.949,79.7765 C94.799,79.7805 94.605,79.7985 94.385,79.8395 C94.275,79.8595 94.158,79.8865 94.038,79.9195 C93.775,79.9855 93.496,80.0895 93.222,80.2425 C92.455,80.6775 92.321,81.2775 92.686,81.7165 C93.076,82.2105 93.68,82.2005 94.842,81.9845 C94.877,81.9785 94.912,81.9715 94.946,81.9655 C96.434,81.6885 97.436,81.8685 98.127,82.7385 C98.968,83.7845 98.588,85.0665 96.907,85.9955 C96.476,86.2385 96.021,86.4265 95.591,86.5405 C95.444,86.5825 95.299,86.6165 95.158,86.6435 C94.96,86.6795 94.769,86.7015 94.587,86.7105 L94.246,85.7005 C94.46,85.7005 94.719,85.6775 94.994,85.6265 C95.136,85.5995 95.282,85.5665 95.428,85.5245 C95.731,85.4425 96.028,85.3355 96.294,85.1835 C97.228,84.6655 97.359,84.0235 96.97,83.5285 C96.565,83.0255 95.989,82.9395 94.846,83.1515 L94.769,83.1655 C94.701,83.1805 94.634,83.1935 94.567,83.2055 C93.104,83.4785 92.096,83.2155 91.543,82.5295 C90.773,81.5735 91.076,80.2735 92.598,79.4235 C92.966,79.2175 93.342,79.0705 93.695,78.9705 C93.826,78.9335 93.956,78.9035 94.081,78.8805" id="Fill-14" fill="#FFFFFF"></path>
                <path d="M86.4238,83.9879 C85.1288,84.7089 85.3508,86.0409 85.8548,86.8479 L89.6298,84.7479 C89.1898,84.1789 88.3028,83.4929 87.2018,83.6979 C87.1408,83.7089 87.0788,83.7229 87.0158,83.7399 C86.8318,83.7919 86.6278,83.8729 86.4238,83.9879 M92.2688,86.9349 L93.0998,87.5879 C92.7838,88.0149 92.1608,88.6459 91.0398,89.2759 C90.6308,89.4979 90.2158,89.6689 89.8118,89.7779 C89.6748,89.8159 89.5378,89.8479 89.4028,89.8739 C87.7688,90.1769 86.2278,89.5689 85.1478,88.2249 C83.7098,86.4239 83.8488,84.3029 85.9118,83.1469 C86.2328,82.9669 86.5508,82.8399 86.8538,82.7579 C86.9588,82.7279 87.0638,82.7049 87.1668,82.6849 C88.9348,82.3559 90.3808,83.4309 91.0958,84.3209 C91.2638,84.5389 91.3698,84.7249 91.4488,84.8469 L86.4588,87.6299 C87.3188,88.6729 88.3858,88.9569 89.4018,88.7679 C89.4938,88.7509 89.5868,88.7289 89.6788,88.7049 C89.9728,88.6239 90.2718,88.4909 90.5458,88.3379 C91.4638,87.8229 91.9198,87.3779 92.2688,86.9349" id="Fill-16" fill="#FFFFFF"></path>
                <path d="M78.6293,84.9381 L79.9973,86.6501 L81.8403,85.6211 L82.5023,86.4421 L80.6583,87.4711 L83.2183,90.6861 C83.6863,91.2691 84.1463,91.5661 84.6683,91.4681 C84.7013,91.4621 84.7343,91.4551 84.7673,91.4461 C84.8773,91.4171 84.9913,91.3701 85.1083,91.3051 C85.4373,91.1151 85.6683,90.9351 85.7983,90.8161 L86.5013,91.5951 C86.3183,91.8181 85.9783,92.0961 85.4773,92.3781 C85.2503,92.5061 85.0133,92.6021 84.7853,92.6611 C84.7133,92.6811 84.6413,92.6991 84.5683,92.7111 C84.2783,92.7661 83.9903,92.7641 83.7203,92.7051 C83.1003,92.5881 82.5493,92.1321 81.9843,91.4311 L79.3953,88.1781 L78.2893,88.7951 L77.6373,87.9731 L78.7343,87.3571 L77.5873,85.9211 L78.6293,84.9381 Z" id="Fill-18" fill="#FFFFFF"></path>
                <path d="M73.7719,87.6441 L75.1399,89.3551 L76.9919,88.3251 L77.6529,89.1461 L75.8009,90.1761 L78.3629,93.4001 C78.8289,93.9761 79.2919,94.2791 79.8219,94.1801 C79.8549,94.1741 79.8879,94.1661 79.9209,94.1581 C80.0309,94.1281 80.1339,94.0761 80.2509,94.0101 C80.5879,93.8191 80.8129,93.6491 80.9399,93.5221 L81.6529,94.2991 C81.4719,94.5301 81.1239,94.8101 80.6219,95.0911 C80.4009,95.2101 80.1729,95.3041 79.9479,95.3721 C79.8769,95.3911 79.8079,95.4071 79.7389,95.4191 C79.4339,95.4761 79.1379,95.4711 78.8629,95.4101 C78.2429,95.2931 77.6909,94.8381 77.1269,94.1361 L74.5379,90.8831 L73.4319,91.5011 L72.7709,90.6801 L73.8769,90.0621 L72.7329,88.6351 L73.7719,87.6441 Z" id="Fill-20" fill="#FFFFFF"></path>
                <path d="M146.8154,49.2252 L147.6294,50.2412 C147.4814,50.2942 147.3354,50.3562 147.1634,50.4562 C146.2444,50.9622 146.0604,51.9062 146.5434,52.8032 C146.6254,52.9682 146.7414,53.1622 146.8834,53.3492 L149.4164,56.5272 L148.1364,57.2372 L144.8684,53.1322 C144.3124,52.4282 143.8144,51.8342 143.3244,51.3072 L144.4544,50.6762 L145.4404,51.8242 L145.4874,51.7982 C145.1814,50.8162 145.5544,49.8712 146.4184,49.3932 C146.5654,49.3052 146.6824,49.2672 146.8154,49.2252" id="Fill-22" fill="#FFFFFF"></path>
                <path d="M139.6635,56.0221 C141.2095,55.1601 141.6535,54.0131 140.7295,52.8631 C140.1415,52.1201 139.3215,51.8751 138.4185,52.0431 C138.3215,52.0601 138.2235,52.0841 138.1245,52.1111 C137.7865,52.2001 137.4475,52.3481 137.1025,52.5421 C136.5475,52.8591 136.1515,53.1291 135.9725,53.3001 L138.5435,56.5221 C138.8705,56.4271 139.2395,56.2551 139.6635,56.0221 M141.9685,52.1001 C142.5655,52.8561 142.7795,53.5971 142.6215,54.3051 C142.4295,55.2851 141.5705,56.2091 140.3235,56.9041 C139.9455,57.1121 139.5895,57.2971 139.2395,57.4061 L141.8915,60.7241 L140.6145,61.4421 L134.0705,53.2341 C134.6245,52.8131 135.3755,52.2871 136.4005,51.7021 C136.9815,51.3791 137.5415,51.1461 138.0645,51.0061 C138.2135,50.9651 138.3605,50.9311 138.5045,50.9051 C138.9365,50.8251 139.3445,50.8071 139.7235,50.8521 C140.5725,50.9431 141.3835,51.3591 141.9685,52.1001" id="Fill-24" fill="#FFFFFF"></path>
                <path d="M129.0322,59.2984 C130.0452,59.1114 131.3582,59.3434 132.5362,60.8064 L135.3702,64.3574 L134.0782,65.0864 L131.3292,61.6494 C130.7242,60.8784 129.9172,60.3674 128.9932,60.5394 C128.9382,60.5494 128.8822,60.5624 128.8252,60.5774 C128.6492,60.6274 128.4712,60.7034 128.2822,60.8074 C127.4362,61.2824 127.1782,62.1534 127.4342,62.8874 C127.4972,63.0474 127.6072,63.2504 127.7582,63.4374 L130.6182,67.0174 L129.3242,67.7384 L125.8522,63.3874 C125.3582,62.7764 124.9492,62.2774 124.5042,61.8104 L125.6572,61.1664 L126.5072,62.1154 L126.5392,62.1014 C126.4462,61.3374 126.8272,60.3224 127.9952,59.6674 C128.2082,59.5504 128.4592,59.4444 128.7452,59.3644 C128.8372,59.3394 128.9332,59.3174 129.0322,59.2984" id="Fill-26" fill="#FFFFFF"></path>
                <path d="M112.1992,65.3473 C112.5762,65.2773 112.9532,65.4153 113.1862,65.7073 C113.4942,66.0713 113.4092,66.5503 112.8872,66.8273 L112.6542,66.9313 C112.6252,66.9393 112.5972,66.9463 112.5692,66.9513 C112.1922,67.0213 111.8142,66.8823 111.5842,66.5983 C111.2822,66.2253 111.3832,65.7343 111.8542,65.4753 C111.9402,65.4243 112.0212,65.3923 112.1142,65.3673 C112.1422,65.3593 112.1712,65.3523 112.1992,65.3473" id="Fill-28" fill="#FFFFFF"></path>
                <path d="M123.6743,69.9039 C124.9073,69.2199 125.0583,67.7329 123.9823,66.3879 C123.3213,65.5499 122.0983,64.7629 120.8323,64.9989 C120.7633,65.0109 120.6943,65.0269 120.6253,65.0469 C120.4313,65.0989 120.2363,65.1779 120.0393,65.2839 C118.5083,66.1349 118.7823,67.6889 119.6933,68.8249 C120.5343,69.8709 121.7923,70.3919 122.9043,70.1849 C122.9753,70.1729 123.0453,70.1569 123.1143,70.1369 C123.3073,70.0849 123.4943,70.0069 123.6743,69.9039 M125.2803,65.6149 C127.0373,67.8199 125.9793,69.7939 124.2713,70.7549 C123.9323,70.9379 123.5823,71.0809 123.2203,71.1819 C123.0913,71.2169 122.9603,71.2479 122.8283,71.2719 C121.2403,71.5679 119.5663,71.0209 118.4183,69.5859 C116.8293,67.5969 117.4513,65.5499 119.4143,64.4649 C119.7663,64.2609 120.1423,64.1149 120.5113,64.0109 C120.6383,63.9769 120.7653,63.9479 120.8923,63.9239 C122.5153,63.6229 124.1663,64.2209 125.2803,65.6149" id="Fill-30" fill="#FFFFFF"></path>
                <polygon id="Fill-32" fill="#FFFFFF" points="114.3769 67.4693 119.1239 73.4283 117.8379 74.1483 113.0829 68.1913"></polygon>
                <path d="M108.4199,68.3189 L109.7879,70.0309 L111.6309,69.0019 L112.2919,69.8229 L110.4399,70.8539 L113.0089,74.0669 C113.4759,74.6509 113.9369,74.9469 114.4589,74.8489 C114.4909,74.8429 114.5239,74.8359 114.5579,74.8269 C114.6659,74.7899 114.7789,74.7429 114.8969,74.6769 C115.2359,74.4949 115.4579,74.3159 115.5859,74.1889 L116.2919,74.9759 C116.1089,75.1989 115.7689,75.4769 115.2649,75.7509 C115.0289,75.8809 114.8039,75.9819 114.5759,76.0419 C114.5019,76.0619 114.4289,76.0799 114.3559,76.0929 C114.0639,76.1469 113.7809,76.1449 113.5109,76.0859 C112.8899,75.9689 112.3289,75.5069 111.7729,74.8029 L109.1769,71.5599 L108.0799,72.1759 L107.4249,71.3449 L108.5139,70.7309 L107.3779,69.3019 L108.4199,68.3189 Z" id="Fill-34" fill="#FFFFFF"></path>
                <path d="M155.1992,52.3189 C156.4312,51.6349 156.5832,50.1469 155.5062,48.8019 C154.8382,47.9659 153.6142,47.1789 152.3482,47.4149 C152.2792,47.4269 152.2102,47.4429 152.1412,47.4629 C151.9392,47.5169 151.7432,47.5959 151.5542,47.6999 C150.0322,48.5489 150.3072,50.1039 151.2152,51.2309 C152.0552,52.2799 153.3042,52.8019 154.4112,52.5959 C154.4872,52.5829 154.5622,52.5649 154.6362,52.5439 C154.8302,52.4909 155.0192,52.4219 155.1992,52.3189 M156.8042,48.0289 C158.5532,50.2359 157.5042,52.2089 155.7872,53.1719 C155.4482,53.3539 155.1002,53.5049 154.7372,53.5979 C154.6082,53.6329 154.4792,53.6639 154.3492,53.6879 C152.7662,53.9819 151.0802,53.4299 149.9342,52.0019 C148.3512,50.0039 148.9752,47.9649 150.9372,46.8709 C151.2902,46.6759 151.6642,46.5209 152.0342,46.4179 C152.1592,46.3829 152.2862,46.3549 152.4122,46.3319 C154.0362,46.0289 155.6902,46.6349 156.8042,48.0289" id="Fill-37" fill="#FFFFFF"></path>
                <path d="M161.8247,40.984 L163.7887,48.507 L162.5567,49.192 L155.1107,44.739 L156.4827,43.968 L160.5507,46.544 C161.2147,46.952 161.8017,47.34 162.3417,47.755 L162.3867,47.721 C162.1557,47.146 161.9677,46.529 161.7657,45.862 L160.4677,41.743 L161.8247,40.984 Z" id="Fill-39" fill="#FFFFFF"></path>
                <path d="M162.1704,37.4723 C162.5404,37.4043 162.9164,37.5413 163.1394,37.8383 C163.4564,38.2003 163.3604,38.6733 162.8524,38.9643 L162.6164,39.0603 C162.5884,39.0683 162.5604,39.0753 162.5324,39.0793 C162.1604,39.1493 161.7684,39.0133 161.5464,38.7273 C161.2334,38.3473 161.3424,37.8553 161.8144,37.5953 C161.8934,37.5553 161.9724,37.5143 162.0674,37.4963 C162.1014,37.4873 162.1354,37.4793 162.1704,37.4723" id="Fill-41" fill="#FFFFFF"></path>
                <polygon id="Fill-43" fill="#FFFFFF" points="164.3286 39.5914 169.0856 45.5574 167.7976 46.2694 163.0426 40.3114"></polygon>
                <path d="M173.5283,42.0016 C174.3923,41.5236 174.8063,40.5976 174.3833,39.6536 C174.3193,39.4856 174.2123,39.3256 174.0743,39.1536 L173.2443,38.1146 C173.1353,37.9806 172.9803,37.8126 172.8303,37.6936 C172.2783,37.2606 171.5003,37.0576 170.7303,37.2006 C170.6613,37.2136 170.5933,37.2286 170.5253,37.2466 C170.3323,37.3006 170.1453,37.3776 169.9563,37.4806 C168.6323,38.2256 168.6173,39.6526 169.6683,40.9686 C170.4483,41.9396 171.5633,42.5226 172.7043,42.3106 C172.7743,42.2966 172.8423,42.2806 172.9123,42.2626 C173.1143,42.2076 173.3243,42.1166 173.5283,42.0016 L173.5283,42.0016 Z M176.1323,39.3976 C176.5593,39.9286 177.0493,40.5226 177.4163,40.9016 L176.2623,41.5456 L175.3713,40.5436 C175.4763,41.4506 175.0243,42.4366 173.8533,43.0836 C173.5883,43.2356 173.3023,43.3496 173.0163,43.4276 C172.9133,43.4556 172.8103,43.4796 172.7053,43.4986 C171.2143,43.7756 169.5453,43.1766 168.4063,41.7436 C166.8043,39.7746 167.3013,37.7346 169.0353,36.7686 C169.3253,36.6036 169.6193,36.4876 169.9053,36.4086 C170.0063,36.3816 170.1063,36.3586 170.2043,36.3406 C170.8623,36.2186 171.4633,36.2976 171.9083,36.4826 L169.0953,32.9116 L170.3823,32.1916 L176.1323,39.3976 Z" id="Fill-45" fill="#FFFFFF"></path>
                <path d="M190.4057,25.1295 C190.6127,25.0915 190.8047,25.0715 190.9757,25.0675 L191.2867,26.0305 C191.1277,26.0315 190.9307,26.0475 190.7087,26.0885 C190.6017,26.1085 190.4897,26.1345 190.3737,26.1665 C190.1137,26.2405 189.8337,26.3445 189.5597,26.4985 C188.7967,26.9145 188.6677,27.5305 189.0157,27.9735 C189.4047,28.4665 190.0127,28.4405 191.1757,28.2235 C192.7167,27.9375 193.7567,28.0965 194.4717,28.9835 C195.3027,30.0315 194.9317,31.3115 193.2367,32.2525 C192.8117,32.4855 192.3567,32.6735 191.9267,32.7875 C191.7797,32.8295 191.6327,32.8635 191.4897,32.8905 C191.2897,32.9275 191.0967,32.9495 190.9147,32.9585 L190.5837,31.9565 C190.7977,31.9555 191.0547,31.9295 191.3287,31.8785 C191.4707,31.8515 191.6177,31.8175 191.7657,31.7785 C192.0607,31.6985 192.3637,31.5825 192.6317,31.4385 C193.5727,30.9105 193.6947,30.2705 193.2987,29.7855 C192.9077,29.2825 192.3397,29.1915 191.2497,29.3935 C191.2027,29.4015 191.1557,29.4105 191.1067,29.4205 C191.0517,29.4325 190.9957,29.4425 190.9417,29.4535 C189.4477,29.7315 188.4277,29.4695 187.8817,28.7845 C187.1177,27.8185 187.4107,26.5205 188.9397,25.6605 C189.3017,25.4645 189.6777,25.3165 190.0307,25.2175 C190.1597,25.1815 190.2847,25.1515 190.4057,25.1295" id="Fill-47" fill="#FFFFFF"></path>
                <path d="M185.5166,27.6275 L186.3306,28.6435 C186.1826,28.6965 186.0456,28.7565 185.8656,28.8585 C184.9646,29.3695 184.7796,30.3055 185.2466,31.2145 C185.3286,31.3795 185.4456,31.5715 185.5936,31.7505 L188.1176,34.9295 L186.8466,35.6385 L183.5726,31.5425 C183.0166,30.8395 182.5266,30.2435 182.0346,29.7075 L183.1586,29.0875 L184.1416,30.2265 L184.2056,30.1965 C183.8826,29.2195 184.2646,28.2725 185.1196,27.7955 C185.2756,27.7065 185.3836,27.6695 185.5166,27.6275" id="Fill-49" fill="#FFFFFF"></path>
                <path d="M177.9658,32.9107 C176.6628,33.6337 176.8938,34.9647 177.3878,35.7737 L181.1608,33.6647 C180.7318,33.1017 179.8448,32.4157 178.7438,32.6207 C178.6828,32.6327 178.6208,32.6457 178.5588,32.6637 C178.3648,32.7167 178.1698,32.7957 177.9658,32.9107 M183.8108,35.8587 L184.6448,36.5187 C184.3258,36.9387 183.7028,37.5697 182.5818,38.1987 C182.1668,38.4307 181.7578,38.5927 181.3478,38.7117 C181.2168,38.7467 181.0878,38.7767 180.9578,38.8007 C179.3218,39.1047 177.7668,38.4997 176.6898,37.1477 C175.2518,35.3467 175.3848,33.2357 177.4538,32.0697 C177.7758,31.8897 178.0928,31.7627 178.3968,31.6807 C178.5018,31.6517 178.6058,31.6277 178.7088,31.6087 C180.4758,31.2797 181.9138,32.3557 182.6188,33.2387 C182.8068,33.4617 182.9118,33.6477 182.9908,33.7707 L178.0008,36.5527 C178.8608,37.5957 179.9288,37.8807 180.9368,37.6927 C181.0288,37.6757 181.1208,37.6537 181.2128,37.6297 C181.5158,37.5477 181.8078,37.4247 182.0908,37.2677 C183.0058,36.7467 183.4538,36.3037 183.8108,35.8587" id="Fill-52" fill="#FFFFFF"></path>
            </g>
        </g>
    </g>
</svg>