<svg xmlns="http://www.w3.org/2000/svg" width="1407" height="819" viewBox="0 0 1407 819">
    <g fill="none" fill-rule="evenodd">
        <path fill="#D7E4EC" d="M1 14l.993 78.319L434 129z"/>
        <path fill="#D8E5ED" d="M2.998 190.661L2 299.066 599 311 436.273 129z"/>
        <path fill="#D2E0EB" d="M915.584 662L1434 408.486l-4.065-88.916L434 129z"/>
        <path fill="#DDE8EE" d="M434 129.381L970.189 44 1432 279.874 1429.92 320z"/>
        <path fill="#CDDEE8" d="M1433.106 280L1435 87.707 971 44z"/>
        <path fill="#D2E0EB" d="M971 43.5L1435 87l-1.894-75.549L1342.597 0z"/>
        <path fill="#D1DFEA" d="M294 69.462L433.965 129 970 43.662 610.658 0z"/>
        <path fill="#E5ECF2" d="M596 310.871L1.993 299 1 391z"/>
        <path fill="#E5ECF4" d="M1.9 391.377L1 773l596-462z"/>
        <path fill="#EEF3F7" d="M369 732.138L370.086 825l232.301-.992L916 661.685 599.41 310z"/>
        <path fill="#D8E5ED" d="M899 825h393.13L1434 795.93l-2.977-3.93z"/>
        <path fill="#DDE7F0" d="M.59 825H295l-172.661-50.517L0 773z"/>
    </g>
</svg>
