<?xml version="1.0" encoding="UTF-8"?>
<svg width="1600px" height="791px" viewBox="0 0 1600 791" version="1.1" xmlns="http://www.w3.org/2000/svg" xmlns:xlink="http://www.w3.org/1999/xlink" preserveAspectRatio="none">
    <!-- Generator: Sketch 41.2 (35397) - http://www.bohemiancoding.com/sketch -->
    <title>Group 10</title>
    <desc>Created with Sketch.</desc>
    <defs></defs>
    <g id="Page-1" stroke="none" stroke-width="1" fill="none" fill-rule="evenodd">
        <g id="Pre-ICO-Copy-19">
            <g id="Group-10" transform="translate(-21.000000, -13.000000)">
                <polygon id="Path-8" fill="#DBE7FE" points="8 459 137 249 0 156"></polygon>
                <polygon id="Path-13" fill="#313A62" points="53 777.571429 81.9655172 804 83 769"></polygon>
                <polygon id="Path-14" fill="#DBE7FE" points="1269 462 1278 489 1297 452"></polygon>
                <polygon id="Path-15" fill="#5161A4" points="1143 759 1151 678 1200 722"></polygon>
                <polygon id="Path-16" fill="#5161A4" points="1593 441 1413 342.5 1633 262"></polygon>
                <polygon id="Path-16-Copy" fill="#4B5897" points="1593 441 1529 406 1633 262"></polygon>
                <polygon id="Path-17" fill="#4B5897" points="1439 617 1456 648 1476 612"></polygon>
                <polygon id="Path-19" fill="#5161A4" points="727 0 713 40 765 6"></polygon>
                <polygon id="Path-20" fill="#DBE7FE" points="1203 102 1255 44 1286 119"></polygon>
                <polygon id="Path-21" fill="#DBE7FE" points="239 168 230 206 312 189"></polygon>
                <polygon id="Path-22" fill="#DBE7FE" points="180 590 203 630 224 602"></polygon>
                <polygon id="Path-24" fill="#DBE7FE" points="517 251 507 272 494 243"></polygon>
                <polygon id="Path-26" fill="#5161A4" points="284 381 421 435 399 504"></polygon>
                <polygon id="Path-27" fill="#313A62" points="362.673913 437 386 468.689189 349 507"></polygon>
                <polygon id="Path-28" fill="#DBE7FE" points="513 562 556 562 539 597"></polygon>
                <polygon id="Path-29" fill="#313A62" points="1042 202 1063 207 1055 217"></polygon>
            </g>
        </g>
    </g>
</svg>