<?xml version="1.0" encoding="UTF-8"?>
<svg width="1600px" height="667px" viewBox="0 0 1600 667" version="1.1" xmlns="http://www.w3.org/2000/svg" xmlns:xlink="http://www.w3.org/1999/xlink" preserveAspectRatio="none">
    <!-- Generator: Sketch 41.2 (35397) - http://www.bohemiancoding.com/sketch -->
    <title>Group 8</title>
    <desc>Created with Sketch.</desc>
    <defs></defs>
    <g id="Page-1" stroke="none" stroke-width="1" fill="none" fill-rule="evenodd">
        <g id="Pre-ICO-Copy-25">
            <g id="Group-8" transform="translate(-21.000000, -13.000000)">
                <polygon id="Path-8" fill="#DBE7FE" points="8 459 137 249 0 156"></polygon>
                <polygon id="Path-16" fill="#5161A4" points="1593 441 1413 342.5 1633 262"></polygon>
                <polygon id="Path-16-Copy" fill="#4B5897" points="1593 441 1529 406 1633 262"></polygon>
                <polygon id="Path-19" fill="#5161A4" points="727 0 713 40 765 6"></polygon>
                <polygon id="Path-20" fill="#DBE7FE" points="1203 102 1255 44 1286 119"></polygon>
                <polygon id="Path-21" fill="#DBE7FE" points="239 168 230 206 312 189"></polygon>
                <polygon id="Path-22" fill="#DBE7FE" points="180 640 203 680 224 652"></polygon>
                <polygon id="Path-23" fill="#5161A4" points="66 336 82 377 100 358"></polygon>
                <polygon id="Path-29" fill="#313A62" points="1042 202 1063 207 1055 217"></polygon>
                <polygon id="Path-26" fill="#5161A4" points="204 371 341 425 319 494"></polygon>
                <polygon id="Path-27" fill="#313A62" points="282.673913 427 306 458.689189 269 497"></polygon>
            </g>
        </g>
    </g>
</svg>