<?xml version="1.0" encoding="utf-8"?>
<!-- Generator: Adobe Illustrator 19.1.0, SVG Export Plug-In . SVG Version: 6.00 Build 0)  -->
<svg version="1.1" id="Layer_1" xmlns="http://www.w3.org/2000/svg" xmlns:xlink="http://www.w3.org/1999/xlink" x="0px" y="0px"
	 viewBox="-55 318.2 500.6 156.8" style="enable-background:new -55 318.2 500.6 156.8;" xml:space="preserve">
<g>
	<path d="M-36.9,364.7h34c6.4,0,11.4,1.6,14.9,4.4c3.9,3.2,6.1,8,6.1,13.7c0,6.6-2.7,10.8-8.2,13.3v0.3c7.2,2.4,11.3,8.8,11.3,16.6
		c0,7.4-2.8,13.2-7.5,16.7c-3.9,2.8-9.1,4.2-15.9,4.2h-34.6V364.7z M-6.3,391.8c3.7,0,6.3-2,6.3-6.1c0-3.9-2.8-5.9-6.4-5.9h-11.7
		v11.9H-6.3z M-4.6,418.6c4.1,0,7.2-2.5,7.2-7.1c0-4.8-3.3-7.1-7.3-7.1h-13.4v14.2H-4.6z"/>
	<path d="M24.5,364.7h17.8V434H24.5V364.7z"/>
	<path d="M45.9,409.3c0-15.6,10.1-26.2,25.7-26.2s25.5,10.6,25.5,26.2c0,15.7-9.9,26.2-25.5,26.2C56,435.5,45.9,425,45.9,409.3z
		 M79.5,409.3c0-8.6-2.8-14.1-8.1-14.1s-7.9,5.4-7.9,14.1c0,8.7,2.6,14.1,7.9,14.1C76.7,423.5,79.5,418.1,79.5,409.3z"/>
	<path d="M99.3,409.3c0-15.6,10.1-26.2,25.7-26.2s25.5,10.6,25.5,26.2c0,15.7-9.9,26.2-25.5,26.2C109.4,435.5,99.3,425,99.3,409.3z
		 M132.9,409.3c0-8.6-2.8-14.1-8.1-14.1s-7.9,5.4-7.9,14.1c0,8.7,2.6,14.1,7.9,14.1C130.1,423.5,132.9,418.1,132.9,409.3z"/>
	<path d="M154.1,384.5h16.5v7.4h0.3c3.3-5.8,7.8-8.9,14.9-8.9c6.2,0,10.9,3.1,13.3,8.5h0.3c4-6.5,9.3-8.5,15.3-8.5
		c11.5,0,16.4,8.5,16.4,19.8V434h-17.4V406c0-5.1-1.6-8.4-6-8.4c-4.3,0-6.5,4-6.5,9.4V434H184V406c0-5.1-1.6-8.4-6-8.4
		c-4.3,0-6.5,4-6.5,9.4V434h-17.4C154.1,434,154.1,384.5,154.1,384.5z"/>
	<path d="M253.1,427.5h-0.2v6.4h-16.5v-69.3h17.4v25h0.3c3.3-4.3,7.7-6.6,14.1-6.6c12.4,0,19.6,11.2,19.6,26.1
		c0,16.8-7.8,26.5-20.7,26.5C261.6,435.6,256.1,433,253.1,427.5z M270,409c0-8-2.9-13.1-8.2-13.1c-5.3,0-8.7,5.1-8.7,13.1
		c0,7.9,3.4,13.1,8.7,13.1S270,417,270,409z"/>
	<path d="M289.7,409.1c0-15.4,10.2-26.2,25-26.2c7.4,0,13,2.3,17.4,6.4c5.7,5.5,8.3,14.2,8.1,24.3H307c0.7,6.2,3.7,9.3,8.9,9.3
		c3,0,5.7-1.4,6.8-4.7h16.7c-2.9,11.3-11.7,17-24.1,17C300,435.3,289.7,425,289.7,409.1z M307,404h15.8c-0.3-6-3.6-9.1-7.7-9.1
		C310.3,394.9,307.7,398.3,307,404z"/>
	<path d="M359.9,393h0.3c3.6-6.9,8.3-9.5,14.2-9.5c1.4,0,2.3,0.2,2.8,0.5v15.2h-0.4c-10.2-1.8-16.2,3-16.2,14.2V434h-17.4v-49.4
		h16.5V393z"/>
	<path d="M379.2,434h16.7c0.6,2.1,2.8,4.2,7,4.2c5.6,0,7.5-3.5,7.5-8.6V426H410c-2.8,3.2-6.4,5.6-11.9,5.6
		c-10.7,0-19.9-7.9-19.9-23.3c0-14.2,7.6-25.2,19.1-25.2c6.6,0,10.7,2.7,13.3,6.9h0.3v-5.4h16.5v42.8c0,7.9-2.8,14.1-6.9,17.7
		c-4.3,3.9-10.5,5.4-17.5,5.4C390,450.5,380.8,445.1,379.2,434z M411.1,407.4c0-6.2-2.9-11.1-8-11.1c-4.9,0-8,4.4-8,11.1
		c0,6.6,3.1,11.4,8,11.4C408.2,418.8,411.1,413.9,411.1,407.4z"/>
</g>
</svg>
