<?xml version="1.0" encoding="utf-8"?>
<!-- Generator: Adobe Illustrator 21.1.0, SVG Export Plug-In . SVG Version: 6.00 Build 0)  -->
<svg version="1.1" id="Layer_1" xmlns="http://www.w3.org/2000/svg" xmlns:xlink="http://www.w3.org/1999/xlink" x="0px" y="0px"
	 viewBox="0 0 1003.1 619.9" style="enable-background:new 0 0 1003.1 619.9;" xml:space="preserve">
<style type="text/css">
	.st0{fill:#313A62;}
	.st1{fill:#3F4B80;}
	.st2{fill:#4B5897;}
	.st3{fill:#5161A4;}
	.st4{fill:#1F243E;}
	.st5{fill:#495692;}
	.st6{fill:#5D6CAC;}
	.st7{fill:#4F60A3;}
</style>
<polygon class="st0" points="1003.1,63 1001.2,28.9 990.9,57.2 935,106.1 871.3,116.4 852,97.7 908,19.9 965.8,3.2 903.5,4.5 
	812.8,70.1 728.6,63.7 813.4,122.2 855.2,151.8 727.9,61.7 609,3.2 609,3.2 538.9,16.7 319.6,199.3 214.1,233.4 170.4,277.8 
	92.6,279.1 54,350.5 0,366.5 51.4,373.6 98.4,309.3 172.3,324.1 171,392.9 133.8,491.9 113.2,583.2 90.7,619.9 147.9,607.7 
	141.5,569.7 189.7,469.4 283.6,431.5 320.2,371.7 381.3,326.7 502.9,344.7 625.7,290.7 605.1,376.2 550.4,380.7 535,450.8 
	581.3,419.9 658.5,385.8 719.6,291.3 722.8,246.3 755.6,279.7 850.1,338.9 903.5,313.8 900.3,188.4 884.8,140.2 954.9,122.2 "/>
<polygon class="st0" points="92.6,279.1 170.4,277.8 171,325.4 "/>
<polygon class="st1" points="99,311.2 92.6,279.1 171,325.4 "/>
<polygon class="st2" points="99,311.2 54,350.5 92.6,279.1 "/>
<polygon class="st0" points="54,350.5 50.8,374.9 0,366.5 "/>
<polygon class="st3" points="54,350.5 99,311.2 50.8,374.9 "/>
<polygon class="st0" points="113.2,583.2 141.5,569.7 90.7,619.9 "/>
<polygon class="st0" points="535,450.8 605.1,376.2 581.3,419.9 "/>
<polygon class="st1" points="190.3,468.8 141.5,569.7 133.8,491.9 "/>
<polygon class="st4" points="133.8,491.9 141.5,569.7 113.2,583.2 "/>
<polygon class="st1" points="141.5,569.7 148.5,608.3 90.7,619.9 "/>
<polygon class="st2" points="237.9,380 283.6,431.5 133.8,491.9 "/>
<polygon class="st1" points="170.4,277.8 237.9,380 171,392.9 "/>
<polygon class="st0" points="171,392.9 237.9,380 133.8,491.9 "/>
<polygon class="st0" points="283.6,431.5 237.9,380 320.2,371.7 "/>
<polygon class="st3" points="213.5,232.1 237.9,380 170.4,277.8 "/>
<polygon class="st2" points="213.5,232.1 317.7,197.4 237.9,380 "/>
<polygon class="st1" points="237.9,380 317.7,197.4 320.2,371.7 "/>
<polygon class="st0" points="317.7,197.4 381.3,326.7 320.2,371.7 "/>
<polygon class="st2" points="538.9,14.1 523.4,167.8 317.7,197.4 "/>
<polygon class="st2" points="317.7,197.4 502.9,306.1 381.3,326.7 "/>
<polygon class="st1" points="381.3,326.7 502.9,306.1 504.8,347.2 "/>
<polygon class="st1" points="317.7,197.4 523.4,167.8 502.9,306.1 "/>
<polygon class="st1" points="535,450.8 549.2,379.4 605.1,376.2 "/>
<polygon class="st2" points="581.3,419.9 605.1,376.2 658.5,385.8 "/>
<polygon class="st1" points="605.1,376.2 623.7,292.6 658.5,385.8 "/>
<polygon class="st2" points="623.7,292.6 720.2,291.9 658.5,385.8 "/>
<polygon class="st0" points="504.8,347.2 502.9,306.1 623.7,292.6 "/>
<polygon class="st1" points="502.9,306.1 722.8,246.3 623.7,292.6 "/>
<polygon class="st3" points="623.7,292.6 722.8,246.3 720.2,291.9 "/>
<polygon class="st0" points="900.3,188.4 886.1,141.5 855.2,151.8 "/>
<polygon class="st2" points="722.8,246.3 502.9,306.1 523.4,167.8 "/>
<polygon class="st3" points="722.8,246.3 523.4,167.8 538.9,14.1 "/>
<polygon class="st2" points="722.8,246.3 538.9,14.1 607.7,0.6 "/>
<polygon class="st1" points="742.1,161.4 722.8,246.3 607.7,0 "/>
<polygon class="st0" points="607.7,0 727.9,61.7 742.1,161.4 "/>
<polygon class="st0" points="742.1,161.4 755.6,279.7 722.8,246.3 "/>
<polygon class="st1" points="755.6,279.7 742.1,161.4 855.2,151.8 "/>
<polygon class="st2" points="855.2,151.8 742.1,161.4 727.9,61.7 "/>
<polygon class="st1" points="727.9,61.7 852.7,98.4 813.4,122.2 "/>
<polygon class="st0" points="727.9,61.7 811.5,68.8 852.7,98.4 "/>
<polygon class="st0" points="906.7,313.2 850.1,338.9 900.3,188.4 "/>
<polygon class="st0" points="852.7,98.4 870.7,115.1 813.4,122.2 "/>
<polygon class="st5" points="850.1,338.9 855.2,151.8 755.6,279.7 "/>
<polygon class="st1" points="850.1,338.9 855.2,151.8 900.3,188.4 "/>
<polygon class="st1" points="852.7,98.4 811.5,68.8 908,19.9 "/>
<polygon class="st5" points="811.5,68.8 903.5,4.5 908,19.9 "/>
<polygon class="st6" points="903.5,4.5 978.7,0.6 908,19.9 "/>
<polygon class="st7" points="855.2,151.8 813.4,122.2 954.9,122.2 "/>
<polygon class="st5" points="813.4,122.2 935,106.1 954.9,122.2 "/>
<polygon class="st1" points="935,106.1 990.9,57.2 954.9,122.2 "/>
<polygon class="st7" points="954.9,122.2 990.9,57.2 1003.1,63 "/>
<polygon class="st0" points="990.9,59.2 1001.2,30.9 1003.1,65 "/>
</svg>
