<?xml version="1.0" encoding="UTF-8"?>
<svg width="253px" height="154px" viewBox="0 0 253 154" version="1.1" xmlns="http://www.w3.org/2000/svg" xmlns:xlink="http://www.w3.org/1999/xlink">
    <!-- Generator: Sketch 47.1 (45422) - http://www.bohemiancoding.com/sketch -->
    <title>Group 13</title>
    <desc>Created with Sketch.</desc>
    <defs>
        <polygon id="path-1" points="0 0.0537 0 80.0237 126.1267 80.0237 126.1267 0.0537"></polygon>
    </defs>
    <g id="Page-1" stroke="none" stroke-width="1" fill="none" fill-rule="evenodd">
        <g id="Investors" transform="translate(-648.000000, -259.000000)">
            <g id="Group-13" transform="translate(648.000000, 259.000000)">
                <g id="Group-6" transform="translate(0.000000, 73.146000)">
                    <g id="Group-3">
                        <mask id="mask-2" fill="white">
                            <use xlink:href="#path-1"></use>
                        </mask>
                        <g id="Clip-2"></g>
                        <polygon id="Fill-1" fill="#576DA2" mask="url(#mask-2)" points="-0.0003 0.0537 -0.0003 7.2057 126.1267 80.0237 126.1267 72.8717"></polygon>
                    </g>
                    <polygon id="Fill-4" fill="#799ADF" points="126.1267 80.0234 252.2487 7.2064 252.2487 0.0534 126.1267 72.8724"></polygon>
                </g>
                <polygon id="Fill-7" fill="#3F4A80" points="127.422 0 127.422 0.12 25.423 58.619 0 73.2 126.127 146.018 252.248 73.2 227.107 58.457 127.424 0"></polygon>
                <path d="M98.6013,85.4106 C99.7943,84.6816 99.8803,83.1896 98.7503,81.8806 C98.0663,81.0786 96.8353,80.3406 95.6023,80.5686 C95.5373,80.5816 95.4713,80.5966 95.4063,80.6136 C95.1883,80.6806 94.9783,80.7706 94.7593,80.8966 C93.2683,81.7926 93.6123,83.3336 94.5673,84.4346 C95.4293,85.4416 96.6653,85.9266 97.7593,85.7226 C97.8323,85.7096 97.9053,85.6926 97.9763,85.6736 C98.1963,85.6146 98.3973,85.5256 98.6013,85.4106 M100.0103,81.0626 C101.8623,83.2176 100.8923,85.2166 99.2163,86.2316 C98.8523,86.4546 98.4553,86.6226 98.0443,86.7416 C97.9203,86.7756 97.7943,86.8046 97.6683,86.8276 C96.1373,87.1126 94.4923,86.6026 93.3233,85.2416 C91.6463,83.2956 92.1833,81.2386 94.1013,80.0846 C94.4893,79.8486 94.8943,79.6796 95.3053,79.5596 C95.4283,79.5256 95.5513,79.4986 95.6753,79.4746 C97.2523,79.1816 98.8653,79.7396 100.0103,81.0626" id="Fill-8" fill="#FFFFFF"></path>
                <path d="M87.9616,80.773 C88.0396,80.758 88.1096,80.748 88.1716,80.74 L88.6026,81.776 C88.5536,81.783 88.5026,81.791 88.4506,81.8 C88.3096,81.827 88.1576,81.863 88.0036,81.904 C87.4896,82.043 86.9296,82.276 86.3676,82.603 C84.1016,83.968 83.6446,86.088 85.4806,88.219 C86.7256,89.665 88.3766,90.299 90.0916,89.981 C90.2286,89.956 90.3646,89.924 90.5016,89.886 C90.9986,89.752 91.4896,89.531 91.9866,89.233 C92.7416,88.784 93.4096,88.187 93.7326,87.681 L94.6946,88.351 C94.4076,88.817 93.6536,89.567 92.4886,90.264 C91.8846,90.633 91.2536,90.906 90.6126,91.076 C90.4256,91.128 90.2376,91.171 90.0496,91.207 C87.9666,91.593 85.8226,90.943 84.1876,89.043 C82.0046,86.513 82.5776,83.565 85.5726,81.755 C86.3806,81.27 87.0766,81.003 87.5796,80.859 C87.7236,80.822 87.8516,80.794 87.9616,80.773" id="Fill-10" fill="#FFFFFF"></path>
                <polygon id="Fill-12" fill="#FFFFFF" points="118.1267 61.6958 125.4717 70.2178 124.2077 70.9858 116.8777 62.4508"></polygon>
                <path d="M118.6696,73.2593 C119.9986,72.4633 119.9886,71.0823 118.8346,69.7523 C118.0446,68.8323 116.8846,68.2863 115.7746,68.4923 C115.7056,68.5053 115.6366,68.5213 115.5676,68.5403 C115.3516,68.6063 115.1236,68.6993 114.9136,68.8243 C114.0526,69.3453 113.6946,70.3473 114.1436,71.2853 C114.2136,71.4443 114.2976,71.6173 114.4206,71.7663 L115.2836,72.7653 C115.4176,72.9203 115.5696,73.0463 115.7116,73.1653 C116.3096,73.5823 117.0686,73.7303 117.7806,73.5983 C117.8576,73.5833 117.9326,73.5673 118.0066,73.5463 C118.2406,73.4773 118.4596,73.3843 118.6696,73.2593 M120.0516,68.9433 C121.8486,71.0303 121.2166,72.9753 119.5976,73.9633 C119.2946,74.1483 118.9706,74.2853 118.6416,74.3723 C118.5396,74.4003 118.4386,74.4233 118.3356,74.4433 C117.7666,74.5483 117.1866,74.5163 116.6756,74.3343 L119.3606,77.5093 L118.1206,78.2633 L112.7006,71.9653 C112.0606,71.2183 111.5106,70.6333 111.0126,70.1083 L112.1356,69.4183 L113.0606,70.3793 C112.9926,69.3453 113.4406,68.4383 114.5726,67.7553 C114.8686,67.5793 115.1766,67.4463 115.5056,67.3593 C115.6086,67.3293 115.7136,67.3053 115.8196,67.2853 C117.2676,67.0173 118.8836,67.5843 120.0516,68.9433" id="Fill-14" fill="#FFFFFF"></path>
                <polygon id="Fill-16" fill="#FFFFFF" points="121.5114 59.6587 128.8574 68.1807 127.5904 68.9407 120.2544 60.4157"></polygon>
                <path d="M145.7253,49.3833 C145.7943,49.3703 145.8603,49.3613 145.9173,49.3533 L146.3433,50.3383 C146.2463,50.3473 146.1453,50.3593 146.0383,50.3793 C145.9523,50.3953 145.8613,50.4163 145.7663,50.4453 C145.4283,50.5343 145.0553,50.6903 144.6353,50.9393 C143.0453,51.9043 143.0403,53.3993 144.0813,54.6123 C144.9423,55.6063 146.1133,55.9813 147.2233,55.7753 C147.3133,55.7583 147.4013,55.7373 147.4903,55.7133 C147.7923,55.6313 148.0823,55.5003 148.3553,55.3383 C149.0773,54.9043 149.4193,54.4713 149.6593,54.1253 L150.5553,54.7833 C150.3503,55.1213 149.7813,55.7513 148.8603,56.3173 C148.4253,56.5783 147.9783,56.7643 147.5333,56.8903 C147.4003,56.9273 147.2673,56.9573 147.1333,56.9823 C145.5493,57.2773 143.9763,56.7293 142.8573,55.4243 C141.3143,53.6343 141.6583,51.4673 143.9133,50.0953 C144.4253,49.7843 144.9673,49.5813 145.4043,49.4573 C145.5173,49.4263 145.6253,49.4023 145.7253,49.3833" id="Fill-18" fill="#FFFFFF"></path>
                <path d="M137.3239,54.311 C138.3109,54.127 139.5919,54.354 140.7789,55.734 L143.7549,59.207 L142.4969,59.963 L139.6169,56.611 C138.9899,55.878 138.1809,55.393 137.2959,55.558 C137.2409,55.568 137.1849,55.582 137.1299,55.596 C136.9359,55.65 136.7339,55.739 136.5299,55.854 C135.7009,56.36 135.4829,57.242 135.7799,57.958 C135.8359,58.128 135.9519,58.322 136.1119,58.506 L139.1199,61.999 L137.8619,62.756 L134.2139,58.516 C133.6949,57.917 133.2549,57.433 132.7939,56.977 L133.9129,56.306 L134.8179,57.228 L134.8479,57.206 C134.7099,56.441 135.0539,55.424 136.1939,54.732 C136.4189,54.595 136.7089,54.464 137.0379,54.377 C137.1299,54.352 137.2249,54.33 137.3239,54.311" id="Fill-20" fill="#FFFFFF"></path>
                <path d="M132.3122,65.1187 C133.2122,64.5737 133.3742,63.7457 133.1512,63.1347 C133.0952,62.9987 133.0312,62.8647 132.9282,62.7557 L132.0602,61.7407 C130.6712,62.5487 129.2852,63.6897 130.2572,64.8227 C130.6692,65.3007 131.2002,65.4437 131.6972,65.3517 C131.7462,65.3427 131.7942,65.3317 131.8422,65.3177 C132.0012,65.2707 132.1652,65.2067 132.3122,65.1187 L132.3122,65.1187 Z M134.6372,62.5837 C135.0662,63.0877 135.5222,63.5607 135.9532,63.9097 L134.8042,64.6037 L134.0682,63.9337 L134.0362,63.9487 C134.0382,64.6427 133.6392,65.4987 132.6542,66.0937 C132.3742,66.2647 132.0912,66.3877 131.8212,66.4547 C131.7352,66.4777 131.6502,66.4987 131.5662,66.5147 C130.5542,66.7017 129.6342,66.3197 129.0962,65.6987 C127.8852,64.2937 128.7202,62.6277 131.4032,61.0297 L131.2982,60.9117 C130.9722,60.5347 130.3572,59.9897 129.4322,60.1617 C129.3772,60.1727 129.3212,60.1847 129.2642,60.1997 C129.0452,60.2587 128.8112,60.3617 128.5632,60.5117 C127.9192,60.9047 127.3982,61.4737 127.1342,62.0297 L126.2492,61.5077 C126.5562,60.8487 127.2042,60.1447 128.0832,59.6217 C128.4782,59.3847 128.8592,59.2197 129.2202,59.1187 C129.3162,59.0917 129.4122,59.0697 129.5052,59.0527 C130.9152,58.7907 132.0012,59.5277 132.7642,60.4167 L134.6372,62.5837 Z" id="Fill-22" fill="#FFFFFF"></path>
                <path d="M107.6052,72.1724 C108.5672,71.9934 109.8362,72.2414 111.0772,73.6934 L114.0302,77.1174 L112.8022,77.8524 L109.9692,74.5684 C109.2162,73.6904 108.3962,73.2664 107.5862,73.4164 C107.5362,73.4254 107.4862,73.4374 107.4352,73.4504 C107.2672,73.4994 107.0892,73.5754 106.9182,73.6764 C106.2122,74.1074 106.0322,74.8964 106.2632,75.5394 C106.3312,75.7164 106.4522,75.9264 106.6162,76.1274 L109.7122,79.7144 L108.4792,80.4584 L105.4732,76.9744 C104.8542,76.2474 104.0622,75.8584 103.2812,76.0024 C103.2342,76.0114 103.1882,76.0224 103.1412,76.0344 C102.9822,76.0814 102.8122,76.1554 102.6592,76.2534 C101.8662,76.7274 101.7612,77.5964 102.0032,78.2454 C102.0752,78.4394 102.1942,78.6404 102.3512,78.8174 L105.3642,82.3254 L104.1382,83.0684 L100.4892,78.8274 C99.9712,78.2294 99.5392,77.7424 99.0792,77.2874 L100.1812,76.6274 L101.0442,77.5234 L101.0832,77.4984 C101.0022,76.7154 101.1972,75.8124 102.3362,75.1194 C102.5712,74.9824 102.8072,74.8864 103.0492,74.8164 C103.1272,74.7944 103.2062,74.7764 103.2852,74.7614 C103.9812,74.6324 104.7042,74.7654 105.3032,75.1094 C105.2632,74.6364 105.3302,74.2204 105.4592,73.8694 C105.6432,73.3554 105.9792,72.9324 106.6392,72.5344 C106.8402,72.4114 107.0842,72.3064 107.3612,72.2294 C107.4402,72.2074 107.5212,72.1884 107.6052,72.1724" id="Fill-24" fill="#FFFFFF"></path>
                <path d="M150.3073,47.3784 C149.0353,48.1474 149.3173,49.4684 149.8613,50.2594 L153.5343,48.0494 C153.0803,47.4974 152.1883,46.8584 151.1263,47.0564 C151.0693,47.0664 151.0113,47.0794 150.9533,47.0954 C150.7443,47.1594 150.5263,47.2524 150.3073,47.3784 M156.2603,50.1604 L157.1303,50.7884 C156.8333,51.2214 156.2323,51.8644 155.1333,52.5414 C154.6903,52.8044 154.2453,52.9984 153.7893,53.1174 C153.6583,53.1534 153.5273,53.1844 153.3953,53.2084 C151.8263,53.5004 150.3093,52.9364 149.2033,51.6514 C147.7003,49.9054 147.7383,47.7784 149.7563,46.5624 C150.1143,46.3504 150.4613,46.1994 150.7993,46.1104 C150.9013,46.0834 151.0013,46.0604 151.1013,46.0414 C152.8053,45.7254 154.2473,46.7294 154.9693,47.5764 C155.1653,47.7974 155.2803,47.9824 155.3573,48.0964 L150.4973,51.0254 C151.3763,52.0134 152.4153,52.2754 153.3883,52.0954 C153.4753,52.0794 153.5603,52.0604 153.6453,52.0364 C153.9813,51.9404 154.3053,51.8034 154.6073,51.6174 C155.5073,51.0724 155.9333,50.6154 156.2603,50.1604" id="Fill-26" fill="#FFFFFF"></path>
                <path d="M149.3757,69.8179 C148.1037,70.5879 148.3947,71.9059 148.9237,72.7099 L152.6107,70.4869 C152.1517,69.9399 151.2707,69.2949 150.2087,69.4919 C150.1467,69.5039 150.0847,69.5169 150.0217,69.5349 C149.8117,69.5909 149.6017,69.6819 149.3757,69.8179 M155.3377,72.5979 L156.1987,73.2279 C155.8937,73.6629 155.3127,74.3109 154.2087,74.9709 C153.7587,75.2439 153.3137,75.4379 152.8597,75.5659 C152.7347,75.5989 152.6097,75.6279 152.4847,75.6509 C150.9067,75.9449 149.3827,75.3809 148.2747,74.0999 C146.7687,72.3459 146.8067,70.2179 148.8247,69.0029 C149.1837,68.7899 149.5307,68.6389 149.8687,68.5499 C149.9697,68.5229 150.0697,68.4999 150.1697,68.4809 C151.8737,68.1649 153.3167,69.1699 154.0487,70.0229 C154.2337,70.2369 154.3567,70.4209 154.4257,70.5369 L149.5577,73.4669 C150.4377,74.4459 151.4687,74.7129 152.4407,74.5319 C152.5347,74.5139 152.6287,74.4929 152.7207,74.4659 C153.0497,74.3799 153.3717,74.2339 153.6757,74.0569 C154.5757,73.5119 154.9997,73.0469 155.3377,72.5979" id="Fill-28" fill="#FFFFFF"></path>
                <path d="M141.6208,71.0103 L143.0578,72.6753 L144.8588,71.5933 L145.5588,72.3903 L143.7508,73.4823 L146.4528,76.6193 C146.9328,77.1803 147.4008,77.4593 147.9228,77.3623 C147.9508,77.3573 147.9798,77.3503 148.0098,77.3423 C148.1258,77.3043 148.2478,77.2553 148.3728,77.1813 C148.7068,76.9813 148.9088,76.7973 149.0348,76.6623 L149.7788,77.4253 C149.5988,77.6563 149.2698,77.9413 148.7838,78.2453 C148.5328,78.3873 148.2838,78.5023 148.0388,78.5653 C147.9628,78.5863 147.8888,78.6043 147.8138,78.6173 C147.5508,78.6663 147.2948,78.6663 147.0468,78.6123 C146.4158,78.5233 145.8418,78.0803 145.2528,77.3913 L142.5248,74.2253 L141.4448,74.8713 L140.7608,74.0633 L141.8318,73.4173 L140.6338,72.0273 L141.6208,71.0103 Z" id="Fill-30" fill="#FFFFFF"></path>
                <path d="M141.0544,81.7339 C141.9634,81.1879 142.1164,80.3609 141.8934,79.7499 C141.8374,79.6149 141.7654,79.4819 141.6774,79.3609 L140.8034,78.3559 C139.4134,79.1639 138.0274,80.3049 138.9974,81.4299 C139.4114,81.9159 139.9424,82.0599 140.4394,81.9669 C140.4884,81.9589 140.5364,81.9469 140.5844,81.9329 C140.7434,81.8859 140.9074,81.8219 141.0544,81.7339 L141.0544,81.7339 Z M143.3704,79.2009 C143.8084,79.7029 144.2644,80.1759 144.6844,80.5189 L143.5474,81.2189 L142.8084,80.5419 L142.7694,80.5659 C142.7804,81.2589 142.3814,82.1139 141.4054,82.7079 C141.1254,82.8799 140.8424,83.0009 140.5634,83.0699 C140.4774,83.0939 140.3924,83.1139 140.3084,83.1299 C139.2974,83.3169 138.3774,82.9349 137.8474,82.3129 C136.6274,80.9089 137.4534,79.2449 140.1454,77.6459 L140.0494,77.5259 C139.7144,77.1509 139.1004,76.6049 138.1744,76.7779 C138.1194,76.7879 138.0644,76.7999 138.0064,76.8159 C137.7874,76.8739 137.5534,76.9769 137.3054,77.1269 C136.6594,77.5119 136.1384,78.0819 135.8854,78.6429 L134.9994,78.1219 C135.2984,77.4649 135.9544,76.7589 136.8224,76.2289 C137.2184,75.9919 137.5894,75.8289 137.9534,75.7359 C138.0544,75.7079 138.1544,75.6839 138.2524,75.6659 C139.6544,75.4049 140.7454,76.1469 141.5064,77.0319 L143.3704,79.2009 Z" id="Fill-32" fill="#FFFFFF"></path>
                <path d="M130.78,87.8413 C132.118,87.0433 132.097,85.6563 130.954,84.3323 C130.168,83.4173 129.014,82.8713 127.912,83.0763 C127.837,83.0903 127.763,83.1083 127.689,83.1283 C127.47,83.1863 127.242,83.2793 127.035,83.4123 C126.172,83.9253 125.822,84.9263 126.254,85.8673 C126.324,86.0263 126.42,86.2053 126.54,86.3463 L127.403,87.3453 C127.536,87.5003 127.689,87.6263 127.83,87.7453 C128.435,88.1543 129.199,88.3083 129.914,88.1753 C129.988,88.1613 130.061,88.1453 130.134,88.1243 C130.36,88.0573 130.579,87.9643 130.78,87.8413 M132.17,83.5233 C133.968,85.6103 133.346,87.5623 131.707,88.5443 C131.405,88.7303 131.081,88.8663 130.752,88.9543 C130.652,88.9823 130.551,89.0053 130.45,89.0243 C129.887,89.1283 129.311,89.0953 128.786,88.9153 L131.489,92.0873 L130.24,92.8433 L124.829,86.5443 C124.179,85.7983 123.63,85.2133 123.132,84.6883 L124.262,83.9963 L125.171,84.9613 C125.105,83.9353 125.567,83.0163 126.701,82.3333 C126.988,82.1593 127.303,82.0243 127.624,81.9393 C127.728,81.9093 127.833,81.8863 127.939,81.8663 C129.386,81.5973 131.003,82.1643 132.17,83.5233" id="Fill-34" fill="#FFFFFF"></path>
                <path d="M119.7243,86.7524 C120.6863,86.5734 121.9553,86.8214 123.2043,88.2714 L126.1493,91.6974 L124.9123,92.4344 L122.0793,89.1494 C121.3273,88.2724 120.5143,87.8464 119.7053,87.9964 C119.6553,88.0054 119.6043,88.0174 119.5543,88.0304 C119.3773,88.0814 119.2073,88.1554 119.0373,88.2564 C118.3233,88.6894 118.1513,89.4764 118.3823,90.1204 C118.4493,90.2964 118.5643,90.5164 118.7343,90.7074 L121.8243,94.2964 L120.5983,95.0384 L117.5923,91.5544 C116.9733,90.8274 116.1813,90.4384 115.4073,90.5814 C115.3613,90.5904 115.3153,90.6014 115.2693,90.6124 C115.1013,90.6614 114.9403,90.7334 114.7773,90.8334 C113.9933,91.3054 113.8713,92.1774 114.1313,92.8244 C114.1853,93.0214 114.3123,93.2204 114.4703,93.3974 L117.4913,96.9034 L116.2573,97.6484 L112.6113,93.4164 C112.0903,92.8094 111.6583,92.3224 111.1973,91.8674 L112.3003,91.2074 L113.1573,92.1124 L113.2023,92.0784 C113.1133,91.2974 113.3163,90.3924 114.4643,89.6984 C114.6893,89.5624 114.9343,89.4654 115.1773,89.3944 C115.2553,89.3724 115.3333,89.3554 115.4123,89.3404 C116.1073,89.2114 116.8243,89.3454 117.4303,89.6884 C117.3903,89.2144 117.4403,88.8024 117.5703,88.4514 C117.7713,87.9334 118.0893,87.5144 118.7493,87.1164 C118.9533,87.0014 119.2023,86.8864 119.4803,86.8094 C119.5593,86.7874 119.6403,86.7684 119.7243,86.7524" id="Fill-36" fill="#FFFFFF"></path>
                <path d="M107.2683,95.1821 C106.0033,95.9501 106.2873,97.2701 106.8223,98.0631 L110.4923,95.8441 C110.0433,95.3031 109.1623,94.6591 108.1083,94.8541 C108.0463,94.8661 107.9853,94.8791 107.9223,94.8971 C107.7053,94.9631 107.4933,95.0451 107.2683,95.1821 M113.2303,97.9621 L114.0973,98.5821 C113.7933,99.0251 113.1953,99.6761 112.0913,100.3361 C111.6503,100.6081 111.1953,100.7951 110.7423,100.9221 C110.6113,100.9581 110.4803,100.9891 110.3493,101.0131 C108.7873,101.3041 107.2713,100.7401 106.1733,99.4541 C104.6583,97.7021 104.7073,95.5801 106.7253,94.3651 C107.0733,94.1451 107.4223,94.0021 107.7583,93.9071 C107.8593,93.8781 107.9593,93.8561 108.0593,93.8371 C109.7633,93.5201 111.2063,94.5251 111.9383,95.3781 C112.1263,95.6011 112.2383,95.7781 112.3173,95.9001 L107.4573,98.8291 C108.3303,99.8101 109.3683,100.0751 110.3343,99.8951 C110.4283,99.8771 110.5213,99.8561 110.6133,99.8301 C110.9423,99.7441 111.2633,99.5981 111.5683,99.4211 C112.4763,98.8741 112.9033,98.4171 113.2303,97.9621" id="Fill-38" fill="#FFFFFF"></path>
                <polygon id="Fill-40" fill="#FFFFFF" points="102.112 93.8823 102.88 94.7613 99.931 96.5453 106.127 103.7543 104.869 104.5123 98.674 97.3033 95.73 99.0693 94.969 98.1803"></polygon>
                <polygon id="Fill-42" fill="#FFFFFF" points="130.2546 76.2739 137.5906 84.7979 136.3356 85.5639 128.9876 77.0329"></polygon>
            </g>
        </g>
    </g>
</svg>