<svg xmlns="http://www.w3.org/2000/svg" width="253" height="154" viewBox="0 0 253 154">
    <g fill="none" fill-rule="evenodd">
        <path fill="#576DA2" d="M.216 73.325v7.152l126.126 72.817v-7.15z"/>
        <path fill="#799ADF" d="M126.342 153.294l126.123-72.816v-7.153l-126.123 72.82z"/>
        <path fill="#5261A3" d="M227.323 58.581L127.637.124v.12L25.64 58.744.216 73.324l126.126 72.82 126.123-72.82z"/>
        <path fill="#FFF" d="M98.079 61.804c.964-.18 2.243.072 3.483 1.518l2.943 3.419-1.226.743-2.826-3.295c-.751-.87-1.572-1.294-2.374-1.146a2.232 2.232 0 0 0-.676.262 1.527 1.527 0 0 0-.665 1.857c.069.185.192.403.354.596l3.098 3.587-1.235.744-2.997-3.485c-.63-.734-1.418-1.116-2.2-.971-.046.009-.093.02-.14.032a2.066 2.066 0 0 0-.485.21c-.784.473-.904 1.353-.644 2 .065.202.18.396.34.58l3.02 3.499-1.226.744-3.648-4.241a26.876 26.876 0 0 0-1.418-1.531l1.102-.668.873.902c-.053-.814.142-1.717 1.293-2.403.233-.138.467-.241.71-.312a2.996 2.996 0 0 1 2.253.294 2.917 2.917 0 0 1 .148-1.24c.193-.515.529-.938 1.182-1.326a2.85 2.85 0 0 1 .96-.37M89.075 75.033c1.195-.72 1.282-2.213.161-3.523-.694-.8-1.925-1.539-3.165-1.309a2.35 2.35 0 0 0-.198.045 2.858 2.858 0 0 0-.637.282c-1.483.894-1.14 2.435-.19 3.546.868.997 2.097 1.482 3.182 1.28.073-.013.144-.03.216-.05.22-.057.43-.148.631-.27m1.422-4.334c1.843 2.155.882 4.153-.802 5.171-.364.222-.762.39-1.166.5a4.543 4.543 0 0 1-.38.087c-1.535.285-3.17-.22-4.342-1.588-1.685-1.943-1.137-3.994.77-5.155a4.943 4.943 0 0 1 1.592-.606c1.573-.292 3.186.272 4.328 1.591M78.422 70.41c.087-.018.165-.027.229-.03l.427 1.026c-.05.007-.1.016-.151.025a7.042 7.042 0 0 0-.456.105 6.72 6.72 0 0 0-1.625.705c-2.258 1.364-2.715 3.483-.89 5.608 1.252 1.447 2.896 2.082 4.603 1.765.142-.026.285-.059.428-.099a5.854 5.854 0 0 0 1.488-.646c.752-.457 1.41-1.052 1.734-1.558l.97.67c-.293.475-1.04 1.214-2.22 1.923a7.263 7.263 0 0 1-2.428.932c-2.081.386-4.222-.257-5.857-2.156-2.184-2.539-1.611-5.486 1.369-7.285.814-.495 1.51-.76 2.015-.898.134-.039.257-.068.364-.088M136.37 38.997l.42.995a3.147 3.147 0 0 0-.58.1c-.326.093-.7.25-1.12.5-1.591.956-1.596 2.45-.553 3.673.847.988 2.017 1.363 3.12 1.158.097-.018.192-.04.286-.067.303-.08.595-.204.867-.366a4.027 4.027 0 0 0 1.302-1.22l.899.664c-.214.341-.775.968-1.706 1.528a5.027 5.027 0 0 1-1.73.666c-1.583.294-3.153-.247-4.271-1.55-1.535-1.793-1.202-3.966 1.067-5.323a5.868 5.868 0 0 1 1.497-.648 6 6 0 0 1 .503-.11M127.756 43.96c.99-.184 2.274.037 3.469 1.427l2.982 3.463-1.258.757-2.885-3.343c-.628-.732-1.43-1.219-2.313-1.054a2.328 2.328 0 0 0-.766.295c-.83.507-1.047 1.39-.752 2.098.058.177.174.371.332.547l3.008 3.493-1.256.765-3.648-4.24a23.434 23.434 0 0 0-1.42-1.539l1.118-.67.904.912.03-.022c-.136-.756.2-1.772 1.348-2.466.225-.136.515-.267.84-.362.087-.024.176-.043.267-.06M122.765 54.762c.902-.536 1.055-1.363.832-1.975a1.155 1.155 0 0 0-.214-.38l-.868-1.015c-1.397.809-2.784 1.95-1.803 3.082.41.485.944.62 1.454.524a1.753 1.753 0 0 0 .599-.236zm2.327-2.526c.43.504.876.978 1.316 1.326l-1.15.685-.738-.67-.038.025c.008.685-.388 1.549-1.374 2.143a3.234 3.234 0 0 1-1.094.422c-1.006.187-1.932-.194-2.463-.816-1.21-1.405-.376-3.071 2.307-4.67l-.107-.125c-.324-.37-.939-.914-1.857-.744a2.993 2.993 0 0 0-.166.038 3.32 3.32 0 0 0-.71.312c-.646.387-1.165.964-1.429 1.519l-.888-.53c.31-.65.958-1.354 1.836-1.878a4.683 4.683 0 0 1 1.13-.501c.097-.027.192-.05.286-.067 1.41-.261 2.493.469 3.263 1.355l1.876 2.176zM108.611 51.324l7.348 8.531-1.267.76-7.339-8.534zM114.32 52.006l5.007 5.815-1.257.758-5.007-5.816zM112.088 49.944c.368-.068.735.064.972.347.321.344.262.819-.243 1.119a.846.846 0 0 1-.267.118 1.038 1.038 0 0 1-1.052-.302c-.31-.373-.238-.867.22-1.14a1.33 1.33 0 0 1 .284-.121c.028-.009.057-.015.086-.02M109.14 62.9c1.335-.806 1.326-2.186.17-3.517-.788-.92-1.938-1.46-3.045-1.254a2.713 2.713 0 0 0-.873.335c-.853.519-1.212 1.513-.772 2.453.068.15.157.339.279.489l.862.989c.133.156.288.29.436.4a2.76 2.76 0 0 0 2.295.38 2.36 2.36 0 0 0 .648-.275m1.396-4.328c1.799 2.095 1.168 4.04-.471 5.023a3.561 3.561 0 0 1-.964.41 3.176 3.176 0 0 1-1.94-.043l2.685 3.176-1.243.746-5.414-6.281a48.002 48.002 0 0 0-1.7-1.864l1.133-.683.917.962c-.067-1.034.388-1.942 1.519-2.634a3.694 3.694 0 0 1 1.245-.468c1.448-.27 3.067.304 4.233 1.656M140.762 37.03c-1.272.77-.98 2.088-.455 2.883l3.681-2.212c-.45-.55-1.34-1.193-2.394-.997a2.336 2.336 0 0 0-.832.326m5.951 2.773l.872.637c-.297.433-.898 1.076-1.999 1.744a5.23 5.23 0 0 1-1.736.676c-1.569.292-3.086-.272-4.192-1.557-1.514-1.752-1.476-3.879.544-5.087a4.05 4.05 0 0 1 1.355-.524c1.704-.316 3.144.681 3.867 1.535.194.213.302.408.388.521l-4.868 2.93c.873.981 1.902 1.248 2.875 1.067a3.932 3.932 0 0 0 1.243-.476c.891-.543 1.324-1.01 1.651-1.466M134.567 69.538c.9-.545 1.061-1.373.838-1.984a1.44 1.44 0 0 0-.222-.379l-.868-1.015c-1.389.808-2.776 1.95-1.803 3.082.412.48.934.623 1.43.53a2.066 2.066 0 0 0 .625-.234zm2.325-2.535c.43.513.886.985 1.316 1.326l-1.149.694-.737-.67-.03.023c0 .687-.398 1.542-1.375 2.136a2.933 2.933 0 0 1-.842.362 3.122 3.122 0 0 1-.255.06c-1.01.187-1.93-.195-2.46-.817-1.218-1.395-.385-3.07 2.297-4.667l-.105-.118c-.324-.369-.94-.922-1.86-.75-.054.01-.109.021-.165.036a2.95 2.95 0 0 0-.708.32c-.645.387-1.167.955-1.43 1.511l-.886-.52c.307-.66.955-1.364 1.834-1.888a4.762 4.762 0 0 1 1.137-.503c.096-.026.192-.049.285-.065 1.41-.263 2.496.475 3.26 1.363l1.873 2.167zM123.764 64.07l7.34 8.533-1.259.758-7.336-8.525zM124.293 75.646c1.334-.806 1.328-2.178.173-3.51-.79-.918-1.942-1.467-3.05-1.261-.07.014-.14.03-.207.048a2.98 2.98 0 0 0-.665.286c-.852.52-1.21 1.522-.778 2.463.08.158.165.338.288.488l.861.989c.135.164.286.282.427.402a2.789 2.789 0 0 0 2.296.38c.225-.068.453-.162.654-.285m1.401-4.312c1.788 2.088 1.163 4.025-.474 5.015a3.53 3.53 0 0 1-.963.41c-.106.03-.212.055-.317.074a3.127 3.127 0 0 1-1.63-.106l2.695 3.173-1.244.746-5.428-6.295c-.637-.74-1.188-1.324-1.688-1.858l1.13-.691.91.964c-.06-1.036.395-1.945 1.53-2.628.287-.174.602-.31.922-.394a3.42 3.42 0 0 1 .316-.073c1.447-.27 3.064.298 4.242 1.663M100.78 82.987c-1.273.769-.979 2.096-.446 2.88l3.681-2.212c-.46-.55-1.346-1.19-2.415-.99-.057.01-.115.022-.174.038a3.229 3.229 0 0 0-.646.284m5.962 2.78l.87.627c-.306.435-.898 1.078-1.998 1.753a5.265 5.265 0 0 1-1.737.667c-1.57.293-3.094-.27-4.192-1.555-1.504-1.746-1.466-3.874.553-5.09a4.293 4.293 0 0 1 1.043-.453c.101-.026.201-.05.3-.067 1.697-.316 3.14.689 3.87 1.534.187.222.31.405.378.521l-4.859 2.928c.874.983 1.908 1.255 2.881 1.075.093-.017.185-.038.276-.063.327-.096.651-.234.953-.419.908-.546 1.335-1.002 1.662-1.459M113.228 74.559c.963-.18 2.24.067 3.489 1.517l2.945 3.426-1.226.744-2.835-3.293c-.757-.883-1.573-1.301-2.388-1.15a2.279 2.279 0 0 0-.138.03c-.177.05-.346.125-.524.236-.716.425-.882 1.203-.656 1.856.067.176.181.396.352.587l3.1 3.596-1.237.736-3.006-3.484c-.614-.723-1.4-1.113-2.174-.968a1.652 1.652 0 0 0-.155.035 1.687 1.687 0 0 0-.485.21c-.785.473-.906 1.346-.646 1.992.062.195.181.396.34.58l3.022 3.508-1.228.735-3.657-4.24c-.516-.59-.951-1.085-1.412-1.54l1.104-.66.865.904.038-.024c-.082-.792.115-1.687 1.261-2.39a3.019 3.019 0 0 1 .947-.357 2.99 2.99 0 0 1 2.011.349c-.03-.467.017-.887.147-1.238.193-.516.531-.931 1.188-1.337.196-.113.436-.226.713-.304.079-.021.161-.04.245-.056M95.623 81.679l.76.889-2.95 1.776 6.207 7.215-1.25.756-6.204-7.207-2.941 1.774-.763-.897zM142.899 57.63c-1.284.762-.992 2.08-.463 2.884l3.687-2.223c-.456-.539-1.338-1.183-2.392-.988a2.38 2.38 0 0 0-.832.326m5.95 2.773l.862.63c-.294.442-.887 1.083-1.99 1.743a5.297 5.297 0 0 1-1.348.594c-.125.034-.25.063-.374.086-1.573.292-3.104-.269-4.212-1.55-1.51-1.763-1.468-3.882.55-5.098a4.053 4.053 0 0 1 1.345-.522c1.703-.316 3.139.69 3.879 1.542.184.206.3.4.377.514l-4.866 2.938c.879.972 1.909 1.238 2.88 1.057.095-.018.189-.039.28-.064a3.93 3.93 0 0 0 .957-.41c.899-.545 1.334-1.004 1.66-1.46M135.133 58.815l1.437 1.665 1.801-1.082.702.806-1.81 1.083 2.702 3.137c.48.56.948.84 1.462.745.03-.006.057-.012.086-.02.124-.04.247-.09.371-.163.334-.2.538-.384.666-.51l.741.754c-.18.23-.507.524-.998.813a2.566 2.566 0 0 1-.743.327c-.076.02-.152.04-.227.053a2.013 2.013 0 0 1-.762 0c-.633-.095-1.205-.53-1.794-1.218l-2.73-3.175-1.07.645-.694-.806 1.071-.646-1.198-1.391.987-1.017zM122.168 98.814c1.326-.805 1.311-2.175.171-3.517-.797-.918-1.956-1.457-3.057-1.252a2.576 2.576 0 0 0-.862.332c-.87.523-1.221 1.515-.79 2.457.071.158.168.346.297.485l.855 1c.131.147.285.28.433.39a2.751 2.751 0 0 0 2.296.38c.228-.058.447-.15.657-.275m1.379-4.325c1.81 2.1 1.176 4.039-.452 5.028a3.97 3.97 0 0 1-1.269.482 3.17 3.17 0 0 1-1.643-.112l2.685 3.175-1.249.756-5.411-6.3a44.571 44.571 0 0 0-1.7-1.864l1.134-.683.917.963c-.059-1.036.387-1.943 1.521-2.626a3.607 3.607 0 0 1 1.219-.471c1.454-.27 3.086.294 4.248 1.652M110.818 94.417l.748.874-3.96 2.384 2.208 2.56 3.75-2.26.736.868-3.749 2.26 2.514 2.914 4.178-2.51.756.871-5.427 3.267-6.965-8.096zM151.541 81.173c1.204-.722 1.291-2.214.161-3.523-.683-.799-1.91-1.543-3.144-1.314-.07.013-.14.029-.21.049-.22.058-.438.15-.646.283-1.492.896-1.14 2.435-.193 3.538.871 1.005 2.107 1.489 3.194 1.287a2.67 2.67 0 0 0 .215-.049c.22-.058.43-.149.623-.271m1.422-4.333c1.849 2.145.882 4.154-.796 5.161-.373.224-.77.392-1.174.501a4.546 4.546 0 0 1-.396.093c-1.529.284-3.159-.229-4.324-1.584-1.676-1.946-1.139-4.003.77-5.156a5.113 5.113 0 0 1 1.222-.528c.122-.033.245-.061.367-.084 1.572-.292 3.183.266 4.331 1.597M139.662 77.974l1.43 1.674 1.808-1.091.693.807-1.802 1.08 2.702 3.138c.474.549.94.834 1.44.742a1.42 1.42 0 0 0 .469-.187c.334-.2.548-.376.674-.511l.735.765c-.171.229-.507.523-.99.81a3.23 3.23 0 0 1-.75.329 2.119 2.119 0 0 1-.992.047c-.625-.1-1.197-.534-1.794-1.22l-2.728-3.167-1.08.646-.684-.807 1.073-.638-1.21-1.397 1.006-1.02zM137.496 81.81l4.998 5.818-1.258.757-5.007-5.816zM134.16 83.974c.145-.027.282-.044.407-.05l.354.957a3.317 3.317 0 0 0-.505.056c-.094.017-.193.04-.294.066a3.712 3.712 0 0 0-.915.394c-.745.447-.84 1.057-.477 1.488.36.42.862.447 1.75.282.13-.024.267-.052.414-.084.114-.025.225-.048.334-.068 1.355-.252 2.308-.074 2.996.72.878 1.02.546 2.31-1.09 3.309-.474.278-.968.49-1.44.62a4.829 4.829 0 0 1-.847.149l-.372-.995a4.827 4.827 0 0 0 1.023-.164c.344-.1.687-.231.99-.416.917-.548 1.019-1.194.606-1.675-.383-.441-.888-.541-1.796-.373a9.4 9.4 0 0 0-.41.088c-.123.028-.243.053-.36.076-1.38.256-2.343.019-2.897-.63-.808-.931-.565-2.247.918-3.141a5.201 5.201 0 0 1 1.224-.52c.132-.035.263-.066.388-.09M130.021 94.135c1.204-.722 1.291-2.214.161-3.523-.685-.807-1.909-1.543-3.142-1.314a2.537 2.537 0 0 0-.852.322c-1.498.905-1.146 2.445-.197 3.556.869.997 2.105 1.48 3.192 1.279a2.558 2.558 0 0 0 .838-.32m1.42-4.341c1.851 2.153.884 4.16-.794 5.169a4.627 4.627 0 0 1-1.554.589c-1.536.285-3.171-.22-4.34-1.58-1.676-1.945-1.139-4.002.779-5.157a4.717 4.717 0 0 1 1.578-.61c1.572-.292 3.187.272 4.331 1.589M155.417 70.864l.854 1a2.233 2.233 0 0 0-.454.222c-.885.534-1.032 1.48-.523 2.372.107.16.213.346.373.532l2.662 3.093-1.24.754-3.448-4.003a36.706 36.706 0 0 0-1.61-1.77l1.099-.676 1.025 1.123.054-.036c-.359-.972-.022-1.919.824-2.427.139-.086.253-.133.384-.184M162.718 66.614l1.674 5.286c.818 2.543 1.084 3.936.763 5.068-.224.832-.679 1.38-.957 1.621l-1.08-.702c.232-.274.508-.686.66-1.186.146-.422.222-1.098.044-1.81-.039-.139-.07-.255-.123-.313-.044-.06-.143-.128-.323-.223l-7.17-3.817 1.374-.822 4.47 2.516c.485.288 1.054.646 1.474.92l.032-.016c-.18-.42-.417-.952-.606-1.474l-1.567-4.24 1.335-.808z"/>
    </g>
</svg>
