<svg xmlns="http://www.w3.org/2000/svg" width="253" height="154" viewBox="0 0 253 154">
    <g fill="none" fill-rule="evenodd">
        <path fill="#576DA2" d="M.72 73.736v7.151l126.126 72.819v-7.152z"/>
        <path fill="#799ADF" d="M126.846 153.705l126.123-72.817v-7.153l-126.123 72.82z"/>
        <path fill="#3F4A80" d="M227.827 58.992L128.14.535v.12l-101.998 58.5L.72 73.734l126.126 72.82 126.123-72.82z"/>
        <path fill="#FFF" d="M88.684 81.308c.079-.014.148-.025.21-.033l.43 1.036-.151.024a6.43 6.43 0 0 0-2.083.803c-2.266 1.366-2.723 3.485-.887 5.616 1.245 1.446 2.896 2.08 4.61 1.762a4.77 4.77 0 0 0 .412-.095 5.881 5.881 0 0 0 1.485-.653c.752-.458 1.422-1.046 1.745-1.552l.972.669c-.297.467-1.05 1.217-2.216 1.914a7.36 7.36 0 0 1-2.44.943c-2.082.386-4.226-.264-5.862-2.163-2.182-2.531-1.61-5.48 1.386-7.29a8.47 8.47 0 0 1 2.007-.895c.144-.037.27-.065.382-.086M133.035 65.653c.9-.544 1.06-1.373.838-1.984a1.178 1.178 0 0 0-.222-.378l-.868-1.015c-1.39.807-2.776 1.949-1.803 3.081.412.478.942.621 1.439.53a2.073 2.073 0 0 0 .616-.233zm2.325-2.535c.428.505.884.977 1.316 1.327l-1.15.694-.727-.672-.041.017c.002.694-.396 1.55-1.382 2.145a2.987 2.987 0 0 1-.833.36 3.6 3.6 0 0 1-.255.06c-1.011.188-1.931-.195-2.47-.815-1.211-1.405-.375-3.071 2.307-4.67l-.104-.117c-.326-.377-.941-.922-1.867-.75-.055.01-.11.022-.167.038-.22.059-.453.162-.702.312-.643.393-1.165.962-1.428 1.518l-.886-.523c.307-.659.955-1.363 1.834-1.886a4.722 4.722 0 0 1 1.137-.502c.097-.028.192-.05.286-.067 1.409-.262 2.495.475 3.258 1.364l1.874 2.167zM122.231 60.185l7.348 8.53-1.267.76-7.336-8.524zM118.849 62.23l7.345 8.523-1.266.76-7.33-8.527zM119.392 73.795c1.326-.805 1.32-2.177.165-3.508-.79-.919-1.95-1.466-3.06-1.26a2.576 2.576 0 0 0-.207.048 3.14 3.14 0 0 0-.655.284c-.86.521-1.219 1.524-.77 2.461.071.16.155.332.277.481l.864 1c.133.154.285.28.427.4a2.764 2.764 0 0 0 2.295.38c.235-.069.454-.162.664-.286m1.381-4.317c1.797 2.087 1.165 4.032-.454 5.02a3.59 3.59 0 0 1-.955.41 3.322 3.322 0 0 1-.307.07 3.228 3.228 0 0 1-1.659-.109l2.685 3.175-1.24.754-5.42-6.298a47.11 47.11 0 0 0-1.689-1.857l1.123-.69.926.961c-.068-1.034.38-1.94 1.512-2.624.296-.176.603-.309.932-.396.104-.03.21-.053.315-.074 1.447-.268 3.064.3 4.231 1.658M108.327 72.707c.962-.179 2.231.07 3.472 1.521l2.951 3.416-1.228.735-2.833-3.284c-.752-.877-1.563-1.296-2.37-1.147-.05.01-.102.022-.154.036-.176.05-.345.124-.525.227-.705.432-.888 1.212-.654 1.864.066.176.187.386.351.587l3.098 3.587-1.234.744-2.998-3.485c-.626-.726-1.419-1.115-2.2-.97a1.756 1.756 0 0 0-.14.031 2.373 2.373 0 0 0-.485.21c-.79.483-.895 1.352-.653 2.002.072.193.2.392.348.571l3.012 3.508-1.225.743-3.649-4.24a26.584 26.584 0 0 0-1.41-1.54l1.103-.66.862.895.047-.026c-.089-.782.106-1.685 1.246-2.378a3.062 3.062 0 0 1 .948-.358 2.988 2.988 0 0 1 2.018.348 3.01 3.01 0 0 1 .156-1.24c.184-.514.521-.937 1.18-1.335a2.86 2.86 0 0 1 .966-.362M99.323 85.945c1.193-.728 1.28-2.22.15-3.528-.685-.802-1.908-1.543-3.148-1.314a2.385 2.385 0 0 0-.844.328c-1.49.896-1.148 2.438-.193 3.538.863 1.008 2.1 1.493 3.193 1.288a2.661 2.661 0 0 0 .842-.312m1.41-4.347c1.85 2.154.881 4.154-.786 5.168-.373.224-.77.391-1.18.51a4.425 4.425 0 0 1-.376.088c-1.53.283-3.177-.227-4.347-1.588-1.677-1.945-1.139-4.002.78-5.156a4.999 4.999 0 0 1 1.203-.526c.123-.032.246-.06.37-.084 1.578-.294 3.19.264 4.335 1.587M151.03 47.913c-1.273.77-.982 2.088-.447 2.882l3.672-2.21c-.45-.55-1.332-1.195-2.393-.998a2.183 2.183 0 0 0-.187.043 3.147 3.147 0 0 0-.646.283m5.951 2.773l.872.637c-.297.433-.898 1.077-1.999 1.745a4.936 4.936 0 0 1-1.342.584 4.664 4.664 0 0 1-.394.091c-1.569.292-3.086-.272-4.192-1.556-1.503-1.747-1.457-3.876.553-5.09a4.123 4.123 0 0 1 1.345-.52c1.704-.317 3.147.687 3.868 1.534.196.221.311.406.385.512l-4.857 2.937c.873.981 1.903 1.248 2.87 1.068a3.863 3.863 0 0 0 1.241-.476c.907-.546 1.325-1.002 1.65-1.466M146.449 49.918a3.1 3.1 0 0 1 .2-.03l.417.985a2.609 2.609 0 0 0-.577.107 4.517 4.517 0 0 0-1.131.494c-1.592.957-1.595 2.46-.554 3.673.86.994 2.03 1.37 3.142 1.163a3.472 3.472 0 0 0 1.131-.437c.722-.434 1.064-.867 1.302-1.22l.899.665c-.206.338-.775.968-1.696 1.534a5.476 5.476 0 0 1-1.326.573 4.897 4.897 0 0 1-.4.092c-1.584.295-3.157-.253-4.277-1.558-1.543-1.79-1.2-3.957 1.057-5.329a5.856 5.856 0 0 1 1.49-.638c.114-.03.222-.055.323-.074M138.048 54.846c.992-.185 2.266.043 3.453 1.423l2.975 3.473-1.257.756-2.88-3.352c-.627-.733-1.436-1.218-2.321-1.053-.055.01-.111.024-.167.038a2.722 2.722 0 0 0-.598.258c-.83.506-1.048 1.388-.751 2.105.056.169.18.36.33.539l3.01 3.5-1.258.758-3.648-4.24a26.834 26.834 0 0 0-1.42-1.54l1.118-.67.904.913.03-.022c-.136-.756.209-1.773 1.348-2.465a3.566 3.566 0 0 1 1.132-.421M107.137 96.236c-1.273.77-.984 2.08-.455 2.882l3.681-2.212c-.45-.549-1.332-1.194-2.393-.997a2.472 2.472 0 0 0-.833.326m5.96 2.772l.861.63c-.303.444-.896 1.085-1.999 1.745a5.333 5.333 0 0 1-1.348.594 4.748 4.748 0 0 1-.377.087c-1.57.291-3.09-.266-4.2-1.553-1.515-1.754-1.468-3.882.55-5.099a4.252 4.252 0 0 1 1.034-.448c.102-.03.203-.051.302-.07 1.705-.317 3.156.686 3.887 1.538.186.216.294.41.377.514l-4.865 2.94c.873.98 1.91 1.245 2.877 1.066.093-.018.186-.04.277-.066a3.54 3.54 0 0 0 .962-.419c.902-.535 1.326-1.001 1.661-1.459M99.38 97.42l1.438 1.673 1.8-1.09.701.805-1.808 1.091 2.702 3.138c.475.55.933.835 1.44.741a1.511 1.511 0 0 0 .479-.188c.325-.197.536-.383.655-.508l.753.762c-.182.222-.51.514-.998.811-.248.15-.499.256-.75.33a2.536 2.536 0 0 1-.189.041 2.218 2.218 0 0 1-.812.006c-.625-.098-1.189-.534-1.777-1.222l-2.739-3.174-1.07.645-.694-.806 1.08-.648-1.207-1.389.996-1.018zM140.922 82.78c.9-.546 1.055-1.364.83-1.983a1.469 1.469 0 0 0-.214-.38l-.866-1.007c-1.4.802-2.784 1.952-1.813 3.076.417.483.956.624 1.468.53.042-.008.085-.017.127-.03.159-.046.32-.118.468-.207zm2.31-2.523c.446.5.893.974 1.324 1.323l-1.15.686-.731-.678-.045.034c.008.684-.381 1.537-1.365 2.14-.28.165-.564.287-.841.364-.081.021-.16.04-.24.054-1.018.19-1.943-.187-2.478-.82-1.21-1.397-.382-3.061 2.298-4.668l-.096-.118c-.322-.367-.935-.916-1.86-.745a2.692 2.692 0 0 0-.877.343c-.642.395-1.172.965-1.425 1.528l-.888-.53c.31-.651.955-1.364 1.825-1.886a4.847 4.847 0 0 1 1.129-.502c.097-.025.193-.047.287-.064 1.416-.264 2.504.472 3.274 1.36l1.859 2.178zM130.112 77.322l7.34 8.532-1.25.755-7.356-8.528zM130.65 88.896c1.325-.805 1.318-2.177.171-3.518-.798-.917-1.956-1.456-3.057-1.252a2.559 2.559 0 0 0-.863.333c-.87.522-1.218 1.523-.78 2.455.061.16.165.337.287.487l.855 1c.134.155.295.279.434.39a2.768 2.768 0 0 0 2.295.38c.228-.058.447-.15.657-.275m1.38-4.325c1.807 2.093 1.176 4.039-.453 5.028a4.277 4.277 0 0 1-.955.409 3.282 3.282 0 0 1-.305.07 3.198 3.198 0 0 1-1.663-.116l2.696 3.18-1.25.749-5.418-6.29a39.117 39.117 0 0 0-1.69-1.865l1.132-.683.917.963c-.068-1.035.388-1.944 1.51-2.633.296-.175.605-.301.932-.396a3.47 3.47 0 0 1 .298-.07c1.453-.268 3.078.297 4.248 1.654M119.607 87.803c.952-.178 2.216.08 3.456 1.516l2.953 3.424-1.236.737-2.834-3.284c-.752-.877-1.57-1.295-2.37-1.146-.052.01-.102.022-.153.035a1.862 1.862 0 0 0-.52.217 1.528 1.528 0 0 0-.654 1.864c.058.178.182.396.352.587l3.081 3.59-1.226.743-2.995-3.477c-.615-.724-1.41-1.118-2.18-.975a1.98 1.98 0 0 0-.645.247c-.785.472-.898 1.343-.647 1.99.056.205.193.404.35.579l3.013 3.509-1.237.737-3.638-4.234a25.015 25.015 0 0 0-1.419-1.54l1.101-.667.865.904.046-.026c-.09-.79.113-1.694 1.255-2.38a2.687 2.687 0 0 1 .952-.358c.693-.13 1.407 0 2.014.348-.04-.473.018-.887.146-1.246.186-.507.52-.937 1.182-1.327.201-.123.45-.238.73-.307.083-.024.17-.044.258-.06M141.488 72.057l1.438 1.672 1.8-1.09.693.807-1.8 1.09 2.7 3.129c.478.564.941.842 1.448.748a1.41 1.41 0 0 0 .464-.184c.325-.198.548-.377.673-.512l.733.756c-.17.237-.498.522-.987.819a3.158 3.158 0 0 1-.743.327 2.098 2.098 0 0 1-1 .048c-.625-.098-1.199-.541-1.794-1.22l-2.728-3.166-1.07.645-.694-.806 1.071-.646-1.198-1.392.994-1.025zM149.236 70.873c-1.264.768-.973 2.087-.446 2.882l3.67-2.219c-.448-.54-1.329-1.186-2.39-.989a2.425 2.425 0 0 0-.833.326m5.961 2.781l.868.62c-.306.434-.885 1.091-1.989 1.751-.452.265-.905.46-1.35.586a4.664 4.664 0 0 1-.394.091c-1.57.291-3.086-.272-4.192-1.557-1.506-1.753-1.465-3.873.553-5.089a4.275 4.275 0 0 1 1.041-.46c.101-.028.201-.05.3-.069 1.697-.315 3.141.69 3.88 1.541.177.216.3.4.38.522l-4.87 2.923c.873.981 1.907 1.254 2.88 1.073.093-.018.185-.038.276-.064.336-.096.66-.234.962-.419.9-.544 1.326-1 1.655-1.449"/>
    </g>
</svg>
