<?xml version="1.0" encoding="UTF-8"?>
<svg width="208px" height="127px" viewBox="0 0 208 127" version="1.1" xmlns="http://www.w3.org/2000/svg" xmlns:xlink="http://www.w3.org/1999/xlink">
    <!-- Generator: Sketch 47.1 (45422) - http://www.bohemiancoding.com/sketch -->
    <title>Group 2</title>
    <desc>Created with Sketch.</desc>
    <defs>
        <polygon id="path-1" points="0 0.8931 0 40.4941 58.9927 40.4941 58.9927 0.8931 1.35525272e-20 0.8931"></polygon>
    </defs>
    <g id="Page-1" stroke="none" stroke-width="1" fill="none" fill-rule="evenodd">
        <g id="Investors" transform="translate(-184.000000, -182.000000)">
            <g id="Group-2" transform="translate(184.000000, 182.000000)">
                <polygon id="Fill-55" fill="#5261A3" points="151.947 0.0005 127.421 14.2475 25.423 72.7465 0 87.3285 56.262 119.8115 207.369 32.4995"></polygon>
                <g id="Group-58" transform="translate(0.000000, 86.436000)">
                    <mask id="mask-2" fill="white">
                        <use xlink:href="#path-1"></use>
                    </mask>
                    <g id="Clip-57"></g>
                    <polygon id="Fill-56" fill="#576DA2" mask="url(#mask-2)" points="56.2617 33.3751 58.9927 34.9511 -0.0003 0.8931 -0.0003 8.0451 56.2047 40.4941"></polygon>
                </g>
                <polygon id="Fill-61" fill="#799ADF" points="207.3686 32.4996 56.2616 119.8116 56.2046 126.8716 56.2606 126.9036 62.4016 123.3556 62.4516 123.3846 207.3906 39.6396 207.3906 32.5136"></polygon>
                <path d="M67.392,77.6256 C67.586,77.5896 67.768,77.5686 67.93,77.5636 L68.235,78.5366 C68.06,78.5386 67.839,78.5536 67.589,78.6006 C67.489,78.6186 67.385,78.6426 67.276,78.6726 C67.033,78.7426 66.763,78.8446 66.495,78.9886 C65.731,79.4056 65.592,80.0156 65.951,80.4636 C66.34,80.9576 66.935,80.9496 68.098,80.7336 C69.648,80.4456 70.692,80.6206 71.39,81.5126 C72.213,82.5616 71.822,83.8356 70.133,84.7686 C69.708,85.0016 69.26,85.1796 68.838,85.2916 C68.687,85.3346 68.538,85.3686 68.392,85.3966 C68.187,85.4346 67.991,85.4566 67.809,85.4656 L67.484,84.4526 C67.71,84.4526 67.991,84.4266 68.288,84.3706 C68.418,84.3466 68.552,84.3166 68.686,84.2816 C68.981,84.2006 69.267,84.0876 69.526,83.9446 C70.478,83.4246 70.602,82.7926 70.213,82.2986 C69.814,81.7836 69.239,81.6976 68.095,81.9096 C68.07,81.9146 68.044,81.9196 68.018,81.9246 C67.976,81.9336 67.934,81.9406 67.892,81.9486 C66.384,82.2296 65.359,81.9676 64.806,81.2696 C64.042,80.3036 64.352,79.0006 65.894,78.1566 C66.248,77.9616 66.615,77.8156 66.961,77.7266 C67.109,77.6846 67.253,77.6506 67.392,77.6256" id="Fill-63" fill="#FFFFFF"></path>
                <path d="M61.6792,80.6656 L65.0962,85.0176 C65.5842,85.6396 66.0222,86.1756 66.4342,86.6226 L65.2962,87.2546 L64.4492,86.3136 L64.4192,86.3366 C64.4562,86.9986 64.2012,88.0416 62.9362,88.7406 C62.7092,88.8686 62.4492,88.9776 62.1802,89.0536 C62.0952,89.0756 62.0072,89.0966 61.9172,89.1126 C60.8842,89.3056 59.6202,89.0076 58.4132,87.4696 L55.6572,83.9736 L56.9542,83.2606 L59.5592,86.5696 C60.2822,87.4886 61.0812,88.0116 61.9752,87.8456 C62.0282,87.8356 62.0822,87.8226 62.1362,87.8086 C62.3052,87.7686 62.4752,87.6926 62.6492,87.6016 C63.5222,87.1206 63.7252,86.2846 63.5942,85.6746 C63.5372,85.4706 63.4202,85.2426 63.2692,85.0566 L60.3822,81.3786 L61.6792,80.6656 Z" id="Fill-65" fill="#FFFFFF"></path>
                <path d="M52.3354,82.6275 C52.4684,82.6025 52.5824,82.5875 52.6754,82.5795 L53.0534,83.6245 C52.9434,83.6375 52.8274,83.6545 52.7064,83.6775 C52.5584,83.7045 52.4044,83.7395 52.2464,83.7835 C51.7844,83.9115 51.2864,84.1075 50.7844,84.3905 C48.4564,85.6635 47.8844,87.7615 49.6014,89.9485 C50.8154,91.4975 52.5024,92.1845 54.3034,91.8495 C54.4454,91.8225 54.5884,91.7895 54.7314,91.7505 C55.1684,91.6265 55.6084,91.4505 56.0564,91.2035 C56.8434,90.7745 57.5294,90.2095 57.8814,89.7145 L58.8194,90.4245 C58.4924,90.8805 57.7114,91.5915 56.5004,92.2545 C55.9664,92.5515 55.4124,92.7735 54.8484,92.9305 C54.6564,92.9835 54.4634,93.0285 54.2704,93.0655 C52.0884,93.4705 49.8774,92.7655 48.2784,90.7355 C46.2194,88.1225 46.9514,85.1965 50.0234,83.5015 C50.7564,83.1065 51.3884,82.8695 51.8774,82.7355 C52.0484,82.6875 52.2024,82.6515 52.3354,82.6275" id="Fill-67" fill="#FFFFFF"></path>
                <path d="M69.8798,73.6988 L71.2238,75.4238 L73.0808,74.4088 L73.7328,75.2308 L71.8758,76.2468 L74.4148,79.4818 C74.8818,80.0658 75.3428,80.3618 75.8718,80.2628 C75.9048,80.2578 75.9388,80.2498 75.9728,80.2398 C76.0828,80.2118 76.1878,80.1658 76.3058,80.1008 C76.6358,79.9198 76.8578,79.7408 76.9968,79.6208 L77.6918,80.4008 C77.5108,80.6328 77.1598,80.9038 76.6678,81.1838 C76.4378,81.3038 76.2188,81.3958 75.9998,81.4538 C75.9278,81.4728 75.8568,81.4898 75.7868,81.5028 C75.4768,81.5598 75.1808,81.5548 74.9058,81.4938 C74.2768,81.3798 73.7238,80.9158 73.1768,80.2108 L70.6108,76.9448 L69.5028,77.5538 L68.8488,76.7228 L69.9588,76.1218 L68.8358,74.6738 L69.8798,73.6988 Z" id="Fill-70" fill="#FFFFFF"></path>
                <path d="M110.6069,53.8922 C110.7979,53.8572 110.9779,53.8362 111.1399,53.8312 L111.4439,54.8052 C111.2759,54.8052 111.0569,54.8202 110.8109,54.8662 C110.7119,54.8842 110.6089,54.9082 110.5029,54.9372 C110.2519,55.0092 109.9809,55.1122 109.7129,55.2552 C108.9499,55.6722 108.8009,56.2842 109.1599,56.7322 C109.5359,57.2072 110.1099,57.2162 111.1819,57.0172 C111.2219,57.0102 111.2629,57.0022 111.3049,56.9942 C112.8569,56.7142 113.8989,56.8812 114.6079,57.7792 C115.4309,58.8282 115.0399,60.1022 113.3419,61.0362 C112.9179,61.2692 112.4779,61.4462 112.0469,61.5602 C111.8969,61.6022 111.7489,61.6372 111.6039,61.6632 C111.4009,61.7022 111.2059,61.7242 111.0179,61.7342 L110.6939,60.7212 C110.9199,60.7212 111.1999,60.6942 111.4969,60.6392 C111.6279,60.6152 111.7619,60.5842 111.8959,60.5492 C112.1899,60.4692 112.4759,60.3562 112.7349,60.2132 C113.6899,59.7012 113.8119,59.0602 113.4219,58.5662 C113.0319,58.0502 112.4489,57.9662 111.3129,58.1772 C111.2879,58.1822 111.2619,58.1862 111.2369,58.1912 C111.1939,58.2002 111.1519,58.2082 111.1099,58.2162 C109.5939,58.4972 108.5689,58.2362 108.0149,57.5372 C107.2599,56.5702 107.5709,55.2672 109.1039,54.4242 C109.4579,54.2302 109.8249,54.0842 110.1799,53.9932 C110.3269,53.9522 110.4699,53.9172 110.6069,53.8922" id="Fill-72" fill="#FFFFFF"></path>
                <path d="M105.6718,56.359 L106.4728,57.394 C106.3118,57.433 106.1768,57.502 105.9948,57.595 C105.0838,58.099 104.8978,59.035 105.3588,59.954 C105.4468,60.109 105.5548,60.303 105.6948,60.483 L108.2058,63.682 L106.9238,64.383 L103.6798,60.265 C103.1328,59.56 102.6398,58.957 102.1598,58.428 L103.2918,57.805 L104.2598,58.956 L104.3248,58.926 C104.0178,57.945 104.4018,57.006 105.2658,56.529 C105.4158,56.449 105.5298,56.402 105.6718,56.359" id="Fill-74" fill="#FFFFFF"></path>
                <path d="M98.0708,61.5914 C96.7588,62.3164 96.9818,63.6484 97.4688,64.4674 L101.2578,62.3814 C100.8238,61.8024 99.9428,61.1074 98.8338,61.3134 C98.7728,61.3234 98.7108,61.3384 98.6488,61.3554 C98.4548,61.4084 98.2688,61.4864 98.0708,61.5914 M103.8838,64.5884 L104.7068,65.2414 C104.3878,65.6614 103.7658,66.2924 102.6278,66.9254 C102.2328,67.1354 101.8358,67.3034 101.4398,67.4114 C101.3088,67.4464 101.1778,67.4774 101.0478,67.5014 C99.3888,67.8104 97.8228,67.1964 96.7498,65.8284 C95.3378,64.0224 95.4768,61.9024 97.5608,60.7594 C97.8768,60.5894 98.1938,60.4614 98.4888,60.3804 C98.5938,60.3524 98.6978,60.3274 98.7998,60.3094 C100.5758,59.9794 102.0158,61.0644 102.7178,61.9634 C102.9038,62.1784 103.0028,62.3744 103.0798,62.4884 L98.0648,65.2494 C98.9188,66.3014 99.9938,66.5844 101.0098,66.3964 C101.1028,66.3784 101.1958,66.3584 101.2878,66.3324 C101.5818,66.2524 101.8738,66.1294 102.1488,65.9754 C103.0788,65.4764 103.5268,65.0314 103.8838,64.5884" id="Fill-76" fill="#FFFFFF"></path>
                <path d="M91.1694,64.4498 C92.1494,64.2678 93.4594,64.5328 94.6704,66.0688 L97.4354,69.5978 L96.1704,70.2968 L93.4974,66.9048 C92.7814,65.9778 91.9614,65.5268 91.1224,65.6828 C91.0724,65.6928 91.0214,65.7048 90.9714,65.7188 C90.8204,65.7628 90.6664,65.8268 90.5074,65.9068 C89.7784,66.3178 89.5564,67.0888 89.7534,67.7388 C89.8144,67.9248 89.9284,68.1438 90.0734,68.3408 L92.9844,72.0398 L91.7114,72.7398 L88.8934,69.1518 C88.2954,68.3778 87.4964,67.9638 86.6904,68.1138 C86.6444,68.1218 86.5984,68.1328 86.5524,68.1448 C86.4014,68.1898 86.2554,68.2518 86.1144,68.3288 C85.3044,68.7708 85.1434,69.6348 85.3624,70.2978 C85.4164,70.4928 85.5264,70.6958 85.6774,70.8828 L88.5184,74.4918 L87.2534,75.1898 L83.8154,70.8248 C83.3364,70.2018 82.9184,69.7048 82.4894,69.2348 L83.6134,68.6138 L84.4394,69.5418 L84.4804,69.5258 C84.4344,68.7358 84.6744,67.8328 85.8554,67.1928 C86.0674,67.0758 86.2724,66.9948 86.4894,66.9288 C86.5644,66.9088 86.6404,66.8908 86.7174,66.8768 C87.4484,66.7408 88.2064,66.8928 88.8204,67.2768 C88.8084,66.8058 88.8864,66.3968 89.0334,66.0448 C89.2474,65.5408 89.6054,65.1308 90.2804,64.7568 C90.4624,64.6628 90.6734,64.5718 90.9094,64.5108 C90.9934,64.4868 91.0804,64.4668 91.1694,64.4498" id="Fill-78" fill="#FFFFFF"></path>
                <path d="M81.5874,77.3248 C82.8224,76.6488 82.9824,75.1608 81.9224,73.8118 C81.2604,72.9668 80.0384,72.1618 78.7574,72.3998 C78.6894,72.4128 78.6194,72.4288 78.5504,72.4478 C78.3654,72.4998 78.1704,72.5788 77.9814,72.6818 C76.4484,73.5248 76.7234,75.0788 77.6074,76.2198 C78.4414,77.2778 79.6944,77.8078 80.8094,77.5998 C80.8844,77.5868 80.9594,77.5688 81.0334,77.5488 C81.2274,77.4948 81.4074,77.4278 81.5874,77.3248 M83.2234,73.0468 C84.9654,75.2638 83.8964,77.2308 82.1724,78.1698 C81.8344,78.3518 81.4834,78.4948 81.1314,78.5948 C81.0034,78.6308 80.8734,78.6598 80.7434,78.6838 C79.1464,78.9808 77.4654,78.4198 76.3304,76.9718 C74.7564,74.9718 75.3914,72.9398 77.3634,71.8528 C77.7174,71.6578 78.0764,71.5138 78.4374,71.4128 C78.5644,71.3788 78.6914,71.3488 78.8174,71.3258 C80.4634,71.0188 82.1194,71.6338 83.2234,73.0468" id="Fill-80" fill="#FFFFFF"></path>
                <path d="M146.5385,34.1568 C146.7315,34.1218 146.9115,34.1008 147.0685,34.0968 L147.3725,35.0708 C147.2055,35.0708 146.9815,35.0868 146.7325,35.1328 C146.6325,35.1508 146.5295,35.1748 146.4235,35.2038 C146.1715,35.2768 145.9015,35.3788 145.6415,35.5208 C144.8785,35.9378 144.7385,36.5478 145.0885,36.9978 C145.4785,37.4918 146.0825,37.4818 147.2455,37.2658 C148.7865,36.9798 149.8305,37.1548 150.5375,38.0448 C151.3605,39.0938 150.9695,40.3678 149.2705,41.3018 C148.8555,41.5338 148.4065,41.7118 147.9765,41.8258 C147.8255,41.8678 147.6775,41.9018 147.5325,41.9288 C147.3305,41.9678 147.1345,41.9898 146.9475,41.9998 L146.6225,40.9868 C146.8495,40.9868 147.1335,40.9588 147.4325,40.9028 C147.5645,40.8788 147.6995,40.8488 147.8335,40.8128 C148.1195,40.7348 148.4135,40.6198 148.6725,40.4768 C149.6185,39.9668 149.7485,39.3238 149.3515,38.8318 C148.9605,38.3158 148.3775,38.2308 147.2415,38.4418 C147.2165,38.4468 147.1915,38.4518 147.1655,38.4568 C147.1225,38.4658 147.0805,38.4728 147.0385,38.4808 C145.5225,38.7628 144.4975,38.5018 143.9525,37.8008 C143.1885,36.8358 143.4995,35.5328 145.0325,34.6898 C145.3945,34.4938 145.7625,34.3478 146.1085,34.2588 C146.2555,34.2168 146.4005,34.1828 146.5385,34.1568" id="Fill-82" fill="#FFFFFF"></path>
                <path d="M138.3066,45.9234 C139.1086,45.4834 139.5006,44.6714 139.2316,43.8284 C139.1586,43.5934 139.0236,43.3694 138.8836,43.1894 L138.0236,42.1054 C137.8926,41.9234 137.7506,41.7694 137.5746,41.6554 C137.0346,41.2854 136.3266,41.0984 135.6116,41.2314 C135.5426,41.2434 135.4746,41.2594 135.4066,41.2774 C135.2216,41.3294 135.0326,41.3994 134.8526,41.5014 C133.6176,42.1774 133.4236,43.5434 134.5116,44.9294 C135.2456,45.8704 136.3386,46.4374 137.4626,46.2284 C137.5376,46.2144 137.6136,46.1964 137.6886,46.1754 C137.8906,46.1204 138.1026,46.0384 138.3066,45.9234 L138.3066,45.9234 Z M141.4796,44.1664 C142.5626,45.5354 142.8976,46.5554 142.6126,47.4574 C142.3486,48.3734 141.4836,49.1104 140.5856,49.5944 C140.1056,49.8554 139.5616,50.0844 139.0306,50.2264 C138.8736,50.2724 138.7186,50.3084 138.5666,50.3364 C138.3036,50.3854 138.0526,50.4084 137.8226,50.4084 L137.5006,49.4034 C137.7316,49.4004 137.9966,49.3754 138.2806,49.3224 C138.4276,49.2954 138.5796,49.2604 138.7346,49.2174 C139.1306,49.1094 139.5466,48.9454 139.9536,48.7154 C141.2856,47.9964 141.8016,46.8784 140.6066,45.3664 L140.0876,44.6994 C140.0986,45.4954 139.6836,46.3544 138.5756,46.9634 C138.3066,47.1084 138.0306,47.2194 137.7446,47.2984 C137.6366,47.3274 137.5286,47.3534 137.4186,47.3734 C135.9086,47.6534 134.2806,47.0274 133.2436,45.7144 C131.6516,43.6844 132.3276,41.6694 133.9616,40.7654 C134.2446,40.6104 134.5306,40.4964 134.7986,40.4204 C134.8946,40.3954 134.9896,40.3734 135.0816,40.3564 C135.8556,40.2124 136.5256,40.3614 137.0076,40.5854 L137.0376,40.5634 L136.3846,39.6374 L137.5146,39.0064 C137.8296,39.4624 138.1826,39.9544 138.7476,40.6914 L141.4796,44.1664 Z" id="Fill-84" fill="#FFFFFF"></path>
                <path d="M127.2168,45.5894 C125.9028,46.3064 126.1338,47.6374 126.6198,48.4474 L130.4098,46.3694 C129.9778,45.7934 129.1018,45.1014 127.9948,45.3074 C127.9288,45.3194 127.8618,45.3344 127.7948,45.3544 C127.6098,45.4044 127.4138,45.4854 127.2168,45.5894 M133.0278,48.5784 L133.8598,49.2314 C133.5428,49.6584 132.9198,50.2894 131.7788,50.9134 C131.3868,51.1324 130.9788,51.2944 130.5838,51.4014 C130.4478,51.4404 130.3118,51.4714 130.1768,51.4954 C128.5398,51.8004 126.9818,51.1874 125.9018,49.8174 C124.4808,48.0124 124.6378,45.8894 126.7158,44.7564 C127.0288,44.5774 127.3378,44.4514 127.6408,44.3694 C127.7458,44.3404 127.8498,44.3174 127.9528,44.2974 C129.7288,43.9674 131.1688,45.0524 131.8788,45.9504 C132.0498,46.1764 132.1638,46.3604 132.2258,46.4864 L127.2168,49.2374 C128.0708,50.2904 129.1458,50.5734 130.1618,50.3854 C130.2558,50.3674 130.3478,50.3464 130.4398,50.3214 C130.7348,50.2404 131.0178,50.1194 131.2948,49.9744 C132.2288,49.4564 132.6768,49.0134 133.0278,48.5784" id="Fill-86" fill="#FFFFFF"></path>
                <path d="M119.8652,50.9391 C121.2332,50.1871 121.6072,49.0801 120.8652,48.1261 C120.2882,47.3981 119.5072,47.1821 118.6432,47.3421 C118.5492,47.3601 118.4542,47.3811 118.3582,47.4091 C118.0292,47.4951 117.6962,47.6341 117.3582,47.8171 C116.7292,48.1661 116.3292,48.4551 116.1652,48.6141 L118.5512,51.6561 L119.8652,50.9391 M124.6552,51.3711 C125.8932,52.3511 126.7682,53.0301 127.2152,53.2381 L125.8862,53.9661 C125.5462,53.8151 124.7582,53.2231 123.6632,52.3361 C122.7822,51.6101 122.0802,51.3421 121.2942,51.4881 C121.2232,51.5011 121.1522,51.5181 121.0802,51.5381 C120.8612,51.5951 120.6422,51.6881 120.4042,51.8091 L119.1842,52.4741 L122.0272,56.0911 L120.7452,56.7931 L114.2852,48.5601 C114.8452,48.0951 115.7212,47.5291 116.6112,47.0461 C117.2802,46.6811 117.8702,46.4261 118.4072,46.2741 C118.5432,46.2381 118.6752,46.2071 118.8052,46.1831 C119.2322,46.1031 119.6332,46.0931 120.0292,46.1451 C120.8152,46.2391 121.5362,46.6551 122.0482,47.2971 C122.9122,48.3981 122.6602,49.5861 121.8402,50.4521 L121.8772,50.4881 C121.9002,50.4831 121.9222,50.4791 121.9452,50.4751 C122.8612,50.3041 123.7582,50.6491 124.6552,51.3711" id="Fill-88" fill="#FFFFFF"></path>
                <polygon id="Fill-90" fill="#FFFFFF" points="140.8266 37.1978 145.5256 43.1818 144.2286 43.8948 139.5296 37.9108"></polygon>
                <path d="M138.6743,35.068 C139.0433,35 139.4133,35.139 139.6433,35.434 C139.9523,35.797 139.8643,36.269 139.3453,36.554 L139.1093,36.65 C139.0803,36.658 139.0503,36.665 139.0213,36.67 C138.6443,36.74 138.2633,36.609 138.0403,36.316 C137.7443,35.933 137.8443,35.443 138.3183,35.191 C138.4063,35.149 138.4863,35.109 138.5713,35.092 C138.6063,35.083 138.6403,35.075 138.6743,35.068" id="Fill-92" fill="#FFFFFF"></path>
                <path d="M164.6406,24.1187 L166.0476,29.4537 C166.7346,32.0127 166.9206,33.4117 166.5446,34.5457 C166.2716,35.3597 165.7866,35.8967 165.5036,36.1217 L164.4596,35.3887 C164.7226,35.1247 165.0086,34.7197 165.1736,34.2337 C165.3466,33.8067 165.4586,33.1337 165.3176,32.4217 C165.2876,32.2817 165.2566,32.1677 165.2126,32.1067 C165.1656,32.0377 165.0666,31.9707 164.9006,31.8637 L157.9346,27.8027 L159.3496,27.0247 L163.6896,29.7027 C164.1616,30.0017 164.7096,30.3807 165.1076,30.6757 L165.1396,30.6607 C164.9836,30.2257 164.7726,29.6897 164.6066,29.1547 L163.2646,24.8717 L164.6406,24.1187 Z" id="Fill-94" fill="#FFFFFF"></path>
                <path d="M157.1289,28.0982 L157.9449,29.1222 C157.7879,29.1772 157.6399,29.2312 157.4689,29.3312 C156.5489,29.8362 156.3529,30.7662 156.8309,31.6812 C156.9129,31.8472 157.0209,32.0412 157.1629,32.2292 L159.6689,35.4112 L158.3869,36.1142 L155.1539,32.0012 C154.6069,31.2962 154.1079,30.7022 153.6259,30.1652 L154.7659,29.5412 L155.7259,30.6942 L155.7879,30.6572 C155.4729,29.6762 155.8569,28.7382 156.7399,28.2652 C156.8819,28.1872 156.9959,28.1402 157.1289,28.0982" id="Fill-96" fill="#FFFFFF"></path>
                <path d="M149.018,30.232 L150.371,31.956 L152.225,30.932 L152.88,31.764 L151.023,32.778 L153.562,36.014 C154.021,36.599 154.481,36.895 155.01,36.797 C155.043,36.791 155.077,36.784 155.111,36.774 C155.221,36.745 155.334,36.698 155.444,36.634 C155.783,36.452 155.997,36.275 156.135,36.155 L156.839,36.933 C156.658,37.165 156.299,37.437 155.806,37.717 C155.585,37.836 155.357,37.93 155.138,37.988 C155.063,38.008 154.988,38.026 154.914,38.04 C154.612,38.095 154.317,38.094 154.044,38.028 C153.424,37.912 152.871,37.448 152.315,36.745 L149.758,33.477 L148.65,34.086 L147.996,33.255 L149.104,32.646 L147.974,31.208 L149.018,30.232 Z" id="Fill-98" fill="#FFFFFF"></path>
            </g>
        </g>
    </g>
</svg>