<svg xmlns="http://www.w3.org/2000/svg" width="192" height="118" viewBox="0 0 192 118">
    <g fill="none" fill-rule="evenodd">
        <path fill="#3F4A80" d="M140.654.066l-22.619 13.14-94.068 53.95L.52 80.606l51.887 29.957 139.36-80.523z"/>
        <path fill="#576DA2" d="M52.408 110.562l2.519 1.454L.52 80.605V87.2l51.835 29.926z"/>
        <path fill="#799ADF" d="M191.767 30.038l-139.36 80.523-.051 6.512.052.03 5.663-3.273.047.027 133.67-77.234v-6.572z"/>
        <path fill="#FFF" d="M113.026 43.284c-1.27.777-.979 2.097-.453 2.892l3.68-2.22c-.45-.55-1.33-1.188-2.39-.99a2.697 2.697 0 0 0-.837.318m5.964 2.79l.86.62c-.298.434-.897 1.085-1.998 1.753a5.61 5.61 0 0 1-1.342.584c-.13.036-.26.066-.39.091-1.572.292-3.09-.278-4.195-1.556-1.515-1.753-1.457-3.875.553-5.09a3.998 3.998 0 0 1 1.041-.46c.101-.027.201-.05.301-.069 1.704-.316 3.147.69 3.88 1.542.184.214.3.4.378.522l-4.87 2.922c.874.982 1.914 1.253 2.883 1.073.092-.017.183-.038.273-.063.336-.097.66-.234.962-.419.9-.545 1.326-1.002 1.664-1.45M109.298 52.356c1.334-.806 1.32-2.177.173-3.51-.79-.92-1.95-1.465-3.059-1.26-.07.014-.138.03-.207.048-.226.069-.445.16-.664.287-.852.519-1.21 1.52-.77 2.46.071.16.166.339.288.488l.853.992c.142.154.294.28.427.4a2.8 2.8 0 0 0 2.304.379c.226-.067.445-.16.655-.284m1.39-4.318c1.8 2.094 1.174 4.03-.463 5.02a3.678 3.678 0 0 1-.973.413c-.103.03-.207.054-.312.073a3.113 3.113 0 0 1-1.636-.114l2.704 3.18-1.25.748-5.429-6.296a58.122 58.122 0 0 0-1.682-1.867l1.133-.684.911.973.03-.023c-.1-1.02.355-1.928 1.49-2.612a3.658 3.658 0 0 1 1.237-.467c1.447-.27 3.064.298 4.24 1.656M101.16 57.31c1.203-.721 1.29-2.213.16-3.522-.694-.801-1.925-1.54-3.157-1.311a2.612 2.612 0 0 0-.843.328c-1.492.896-1.14 2.436-.19 3.547.86.998 2.103 1.48 3.191 1.278a2.288 2.288 0 0 0 .838-.319m1.414-4.332c1.86 2.152.881 4.154-.786 5.168a4.611 4.611 0 0 1-1.55.588c-1.538.286-3.177-.226-4.354-1.585-1.668-1.947-1.137-3.995.787-5.16a4.572 4.572 0 0 1 1.206-.515c.128-.036.256-.065.384-.09 1.566-.29 3.18.274 4.313 1.594M86.493 59.273c-1.281.77-.99 2.09-.463 2.885l3.687-2.222c-.448-.536-1.343-1.183-2.406-.985-.057.01-.114.023-.172.039a3.171 3.171 0 0 0-.646.283m5.954 2.782l.86.629c-.296.434-.886 1.084-1.99 1.744a5.312 5.312 0 0 1-1.342.584 4.664 4.664 0 0 1-.394.09c-1.57.293-3.093-.268-4.19-1.547-1.516-1.761-1.476-3.88.543-5.096a4.117 4.117 0 0 1 1.358-.525c1.697-.315 3.134.686 3.863 1.537.186.214.3.399.388.52l-4.868 2.93c.865.983 1.894 1.249 2.866 1.069a3.617 3.617 0 0 0 1.242-.484c.899-.545 1.336-.996 1.664-1.451M82.255 60.876l2.287 7.446-1.193.73-7.637-4.23 1.343-.808 4.167 2.444c.689.397 1.286.757 1.849 1.16l.037-.034c-.257-.569-.47-1.174-.7-1.844l-1.465-4.07 1.312-.794zM66.707 77.903c2.657-1.593 3.03-3.722 1.143-5.903-1.148-1.358-2.659-1.972-4.373-1.654-.15.028-.3.063-.453.105a7.192 7.192 0 0 0-1.769.775c-.645.386-1.085.725-1.365.992l5.498 6.385c.359-.142.83-.402 1.319-.7m2.419-6.725c1.135 1.328 1.584 2.695 1.323 3.978-.257 1.301-1.401 2.603-3.271 3.732-.883.542-1.657.953-2.337 1.276l-6.858-7.97a22.912 22.912 0 0 1 2.502-1.76c.902-.537 1.747-.918 2.547-1.135.196-.053.389-.098.58-.134a5.642 5.642 0 0 1 1.644-.074c1.434.147 2.732.78 3.87 2.088M72.581 67.653c-1.272.768-.98 2.088-.455 2.882l3.681-2.212c-.45-.548-1.34-1.191-2.394-.996a2.472 2.472 0 0 0-.832.326m5.951 2.773l.872.636c-.305.436-.889 1.076-1.99 1.743a5.312 5.312 0 0 1-1.342.585 4.755 4.755 0 0 1-.394.091c-1.57.293-3.095-.27-4.2-1.554-1.507-1.755-1.466-3.875.552-5.09a4.093 4.093 0 0 1 1.345-.522c1.704-.316 3.14.69 3.876 1.534.186.215.303.407.38.522l-4.868 2.93c.873.981 1.91 1.246 2.883 1.066a3.607 3.607 0 0 0 1.233-.483c.902-.537 1.335-1.002 1.653-1.457M125.316 35.11c.133-.024.26-.042.38-.051l.344.957a4.038 4.038 0 0 0-.806.133 3.44 3.44 0 0 0-.899.382c-.743.455-.857 1.06-.475 1.495.353.41.84.445 1.69.287.146-.026.303-.059.472-.096a7.49 7.49 0 0 1 .298-.06c1.37-.255 2.337-.088 3.025.722.88 1.02.555 2.308-1.082 3.299a5.828 5.828 0 0 1-1.89.723c-.14.024-.275.044-.403.055l-.383-.992c.168-.008.364-.03.573-.07a5.94 5.94 0 0 0 .466-.106c.346-.091.69-.223.991-.408.915-.556 1.012-1.194.598-1.674-.389-.448-.897-.546-1.843-.37a6.787 6.787 0 0 0-.373.078 9.505 9.505 0 0 1-.383.082c-1.35.252-2.306.008-2.853-.622-.81-.94-.567-2.256.916-3.15a4.727 4.727 0 0 1 1.223-.517c.143-.04.282-.074.414-.098M120.355 37.785l.855 1a2.653 2.653 0 0 0-.463.224c-.885.533-1.026 1.468-.523 2.372.097.161.215.354.37.522l2.665 3.102-1.24.754-3.449-4.003a38.231 38.231 0 0 0-1.611-1.778l1.1-.668 1.025 1.123.051-.044c-.356-.963-.013-1.92.826-2.419.139-.094.252-.142.394-.185M89.392 52.45l7.34 8.533-1.258.758-7.339-8.533z"/>
    </g>
</svg>
