<svg xmlns="http://www.w3.org/2000/svg" width="194" height="127" viewBox="0 0 194 127">
    <g fill="none" fill-rule="evenodd">
        <path fill="#576DA2" d="M164.992 17.704c-37.618-23.57-98.61-23.57-136.228 0C9.935 29.504.534 44.97.552 60.431V66.402c-.018 15.46 9.383 30.922 28.212 42.718 37.618 23.57 98.606 23.57 136.228 0 18.83-11.799 28.228-27.267 28.206-42.732V60.431c.022-15.462-9.377-30.929-28.206-42.727"/>
        <path fill="#38619D" d="M164.992 103.066c-37.622 23.569-98.61 23.569-136.228 0-37.618-23.572-37.618-61.79 0-85.361 37.618-23.572 98.61-23.572 136.228 0 37.62 23.572 37.616 61.786 0 85.36"/>
        <path fill="#FFF" d="M85.5 71.79c.816-.486 1.154-1.33.813-2.236a2.409 2.409 0 0 0-.336-.565l-.944-1.095a2.538 2.538 0 0 0-.438-.408 2.647 2.647 0 0 0-2.207-.387 2.84 2.84 0 0 0-.632.271c-1.302.792-1.297 2.19-.167 3.5.784.901 1.892 1.478 2.998 1.272a2.724 2.724 0 0 0 .913-.352m.139-5.407l5.682 6.592-1.256.765-2.833-3.284c.098.814-.271 1.741-1.39 2.412a3.754 3.754 0 0 1-1.224.457c-1.429.266-3.077-.28-4.249-1.628-1.878-2.183-1.018-4.154.435-5.025a3.64 3.64 0 0 1 1.203-.468 3.076 3.076 0 0 1 1.799.193l.032-.014-.714-.915 1.189-.71c.395.51.808 1.025 1.326 1.625M74.59 67.149l.756.873-3.965 2.394 2.196 2.552 3.752-2.251.743.858-3.738 2.265 2.51 2.908 4.18-2.511.756.872-5.425 3.274-6.973-8.093zM92.132 60.05l3.642 4.217c.52.607.99 1.13 1.424 1.555l-1.116.68-.885-.91-.032.016c.075.664-.133 1.715-1.36 2.459a3.207 3.207 0 0 1-1.121.434c-.995.185-2.228-.104-3.464-1.54l-2.918-3.396 1.255-.766 2.772 3.227c.74.865 1.542 1.36 2.405 1.2.053-.01.106-.023.16-.037.194-.053.379-.14.573-.253.84-.5 1.006-1.346.837-1.958a1.804 1.804 0 0 0-.36-.612l-3.07-3.557 1.258-.758zM93.252 55.968c.367-.068.727.065.972.347.321.343.254.819-.25 1.128a1.192 1.192 0 0 1-.354.129 1.029 1.029 0 0 1-.958-.324c-.327-.368-.238-.865.22-1.14.095-.051.191-.094.284-.12.028-.008.057-.014.086-.02M95.485 58.029l5.006 5.815-1.26.75-5.004-5.807zM103.566 53.162l5.006 5.815-1.266.76-4.998-5.818zM97.657 54.183l1.43 1.675 1.81-1.084.693.806-1.81 1.084 2.699 3.129c.485.555.944.843 1.45.748a.879.879 0 0 0 .099-.022 1.49 1.49 0 0 0 .37-.164c.327-.198.538-.383.675-.512l.733.757c-.17.237-.505.53-.996.82a3.075 3.075 0 0 1-.957.377c-.267.05-.533.047-.777-.003-.633-.096-1.206-.531-1.794-1.22l-2.736-3.165-1.074.637-.691-.8 1.08-.646-1.206-1.39 1.002-1.027zM101.326 51.103a1.04 1.04 0 0 1 .979.337c.325.359.255.828-.25 1.128a1.15 1.15 0 0 1-.353.138 1.022 1.022 0 0 1-.96-.332c-.318-.371-.242-.848.214-1.13a1.324 1.324 0 0 1 .37-.141M116.38 45.58c.158-.03.308-.049.442-.059l.354.956a4.085 4.085 0 0 0-.796.131 3.698 3.698 0 0 0-.917.385c-.737.446-.85 1.06-.475 1.496.352.41.846.445 1.698.286.147-.027.303-.059.472-.097.114-.026.225-.048.333-.069 1.356-.252 2.308-.073 2.99.73.877 1.013.555 2.31-1.093 3.294a5.819 5.819 0 0 1-1.446.63 4.578 4.578 0 0 1-.838.146l-.382-.993c.18-.007.394-.029.623-.072.132-.025.269-.056.408-.094a3.8 3.8 0 0 0 .999-.417c.919-.54 1.013-1.185.597-1.674-.383-.44-.888-.542-1.802-.372a8.26 8.26 0 0 0-.412.09c-.131.03-.26.057-.384.081-1.356.252-2.306.006-2.862-.629-.803-.94-.565-2.247.926-3.143a4.784 4.784 0 0 1 1.565-.606M108.844 50.928c-1.281.77-.99 2.089-.461 2.893l3.687-2.223c-.46-.547-1.341-1.192-2.402-.995a2.372 2.372 0 0 0-.824.325m5.953 2.78l.86.63c-.295.434-.886 1.084-1.99 1.744a5.318 5.318 0 0 1-1.34.593c-.124.034-.25.063-.374.086-1.58.293-3.11-.27-4.21-1.552-1.515-1.752-1.477-3.88.54-5.095a4.093 4.093 0 0 1 1.346-.522c1.704-.316 3.148.689 3.879 1.542.186.214.309.398.385.512l-4.867 2.93c.873.98 1.902 1.248 2.875 1.067a3.966 3.966 0 0 0 1.235-.474c.899-.546 1.332-1.012 1.66-1.46"/>
    </g>
</svg>
