<?xml version="1.0" encoding="UTF-8"?>
<svg width="341px" height="277px" viewBox="0 0 341 277" version="1.1" xmlns="http://www.w3.org/2000/svg" xmlns:xlink="http://www.w3.org/1999/xlink">
    <!-- Generator: Sketch 47.1 (45422) - http://www.bohemiancoding.com/sketch -->
    <title>Group 8</title>
    <desc>Created with Sketch.</desc>
    <defs></defs>
    <g id="Page-1" stroke="none" stroke-width="1" fill="none" fill-rule="evenodd">
        <g id="Investors" transform="translate(-401.000000, -270.000000)" fill="#94C3DC">
            <g id="Group-8" transform="translate(401.000000, 270.000000)">
                <path d="M307.011798,276.110156 L327.9783,264.1707 L332.6133,261.2527 L333.7743,260.5177 L334.9643,259.7037 C335.3703,259.4457 335.6993,259.0767 336.0693,258.7657 C336.187967,258.656367 336.523967,258.3087 337.0773,257.7227 C339.6823,254.8187 340.7863,250.7467 340.2993,246.9217 C339.8483,243.0627 337.5823,239.4917 334.3663,237.3347 C331.2673,235.3337 328.1763,233.4407 325.0803,231.4887 L11.0023,55.4007 L8.6813,53.9477 C7.9313,53.4567 7.0763,52.9927 6.4363,52.4737 C5.0613,51.4747 3.9103,50.1607 3.1283,48.6477 C1.5693,45.6107 1.5293,41.8457 3.0053,38.7757 C3.7333,37.2387 4.8263,35.8837 6.1653,34.8287 L7.2143,34.1057 C7.5813,33.8697 7.9993,33.6517 8.3903,33.4237 L64.2413,1.7307 L63.4543,0.3537 C27.3768267,20.7936747 8.77674138,31.3428414 7.65404393,32.0012001 C6.69112668,32.5658623 6.54617652,32.6522081 6.4003,32.7457 L5.1933,33.5747 C3.6623,34.7797 2.4063,36.3347 1.5733,38.0957 C-0.1147,41.6117 -0.0687,45.8897 1.7173,49.3717 C2.6133,51.1067 3.9293,52.6127 5.5023,53.7547 C6.2923,54.3767 7.0563,54.7777 7.8323,55.2867 L10.1533,56.7407 L324.2313,232.8287 C327.3123,234.7707 330.4503,236.6957 333.4853,238.6527 C336.3263,240.5657 338.3273,243.7047 338.7273,247.1267 C339.1553,250.5187 338.1813,254.1267 335.8793,256.6837 C335.3123,257.3237 335.1463,257.4607 334.9883,257.6057 C334.6583,257.8777 334.3783,258.2077 334.0093,258.4377 L332.9383,259.1697 L331.7863,259.8997 L327.1513,262.8187 L305.708324,275.057749 L307.011798,276.110156 Z" id="Fill-321"></path>
                <polygon id="Path" transform="translate(40.317602, 15.143933) rotate(4.000000) translate(-40.317602, -15.143933) " points="38.9076018 16.1594326 39.8776018 20.4984326 46.4446018 9.7894326 34.1906018 12.5534326 37.9846018 14.8704326"></polygon>
            </g>
        </g>
    </g>
</svg>