<svg xmlns="http://www.w3.org/2000/svg" width="324" height="308" viewBox="0 0 324 308">
    <path fill="#94C3DC" fill-rule="evenodd" d="M236.821 307.853l74.157-46.682 4.635-2.918 1.161-.735 1.19-.814c.406-.258.735-.627 1.105-.938.178-.164.364-.32.535-.491l.473-.552c2.605-2.904 3.71-6.976 3.222-10.801-.45-3.86-2.717-7.43-5.933-9.587-3.099-2.001-6.19-3.894-9.286-5.846l-37.134-23.261-148.54-93.044-74.269-46.521L11.002 42.4l-2.32-1.453c-.75-.491-1.606-.955-2.246-1.474a11.013 11.013 0 0 1-3.308-3.826c-1.559-3.037-1.599-6.802-.123-9.872a11.096 11.096 0 0 1 3.16-3.947l1.05-.723c.366-.236.784-.454 1.175-.682l2.38-1.353 9.522-5.412 13.95-7.928.521 4.41L42.4.18l-12.488 1.48 3.543 2.693L19.5 12.286 9.974 17.7l-2.382 1.353c-.397.233-.79.436-1.192.693l-1.207.829a12.697 12.697 0 0 0-3.62 4.52c-1.688 3.517-1.642 7.795.144 11.277a12.59 12.59 0 0 0 3.785 4.383c.79.622 1.554 1.023 2.33 1.532l2.321 1.454L47.288 67l74.27 46.523 148.538 93.043 37.135 23.262c3.081 1.942 6.22 3.867 9.254 5.824 2.841 1.913 4.842 5.052 5.242 8.474.428 3.392-.546 7-2.848 9.557l-.415.489c-.152.15-.318.288-.476.433-.33.272-.61.602-.979.832l-1.07.732-1.153.73-4.635 2.919-74.175 46.692.845 1.342z"/>
</svg>
