<svg xmlns="http://www.w3.org/2000/svg" width="341" height="277" viewBox="0 0 341 277">
    <path fill="#94C3DC" fill-rule="evenodd" d="M307.012 276.11l20.966-11.94 4.635-2.917 1.161-.735 1.19-.814c.406-.258.735-.627 1.105-.938.119-.11.455-.457 1.008-1.043 2.605-2.904 3.71-6.976 3.222-10.801-.45-3.86-2.717-7.43-5.933-9.587-3.099-2.001-6.19-3.894-9.286-5.846L11.002 55.4l-2.32-1.453c-.75-.491-1.606-.955-2.246-1.474a11.013 11.013 0 0 1-3.308-3.826c-1.559-3.037-1.599-6.802-.123-9.872a11.096 11.096 0 0 1 3.16-3.947l1.05-.723c.366-.236.784-.454 1.175-.682L64.241 1.73 63.454.354C27.377 20.794 8.777 31.343 7.654 32c-.963.565-1.108.651-1.254.745l-1.207.829a12.697 12.697 0 0 0-3.62 4.52c-1.688 3.517-1.642 7.795.144 11.277a12.59 12.59 0 0 0 3.785 4.383c.79.622 1.554 1.023 2.33 1.532l2.321 1.454 314.078 176.088c3.081 1.942 6.22 3.867 9.254 5.824 2.841 1.913 4.842 5.052 5.242 8.474.428 3.392-.546 7-2.848 9.557-.567.64-.733.777-.89.922-.33.272-.61.602-.98.832l-1.07.732-1.153.73-4.635 2.919-21.443 12.239 1.304 1.052z"/>
</svg>
