<svg xmlns="http://www.w3.org/2000/svg" width="294" height="258" viewBox="0 0 294 258">
    <path fill="#94C3DC" fill-rule="evenodd" d="M58.868.368L30.535 20.65 16.37 30.79l-3.542 2.535a35.862 35.862 0 0 0-3.475 2.786 29.223 29.223 0 0 0-5.48 7.044 27.576 27.576 0 0 0-2.964 8.426C.376 54.53.43 57.571.905 60.518c1.007 5.898 4.026 11.436 8.47 15.45 1.091.99 2.312 1.96 3.542 2.72l3.67 2.347 7.338 4.694L38.6 95.12l117.41 75.11 128.676 82.32-3.672 2.51 12.385 2.122-7.114-10.349-.744 4.381-128.666-82.312L39.478 93.798 24.804 84.41l-7.338-4.694-3.668-2.347c-1.24-.769-2.296-1.62-3.357-2.575-4.183-3.779-7.023-8.988-7.973-14.545-.446-2.778-.498-5.624.002-8.398a25.996 25.996 0 0 1 2.791-7.932 27.614 27.614 0 0 1 5.173-6.65 34.47 34.47 0 0 1 3.317-2.656l3.542-2.535 14.166-10.14 28.332-20.28-.923-1.29z"/>
</svg>
