<svg xmlns="http://www.w3.org/2000/svg" width="227" height="67" viewBox="0 0 227 67">
    <path fill="#94C3DC" fill-rule="evenodd" d="M225.911.557l-63.66 49.742c-2.655 1.886-5.545 3.719-8.388 5.449-2.867 1.73-5.782 3.38-8.77 4.859-2.99 1.456-6.057 2.819-9.229 3.544a55.99 55.99 0 0 1-9.86 1.243c-3.315.142-6.639-.1-9.924-.58a62.604 62.604 0 0 1-9.717-2.22 83.786 83.786 0 0 1-9.369-3.5c-1.542-.64-3.036-1.396-4.552-2.1-1.485-.77-2.995-1.488-4.457-2.308L9.39 11.248l3.502-2.741L.4 7.182l7.762 9.875.461-4.422 78.612 43.447c1.475.828 3.007 1.557 4.51 2.336 1.537.713 3.048 1.48 4.616 2.13a85.21 85.21 0 0 0 9.54 3.564 64.204 64.204 0 0 0 9.95 2.27c3.372.494 6.793.742 10.208.597a57.68 57.68 0 0 0 10.15-1.28c3.402-.781 6.533-2.187 9.585-3.67 3.046-1.507 5.995-3.176 8.891-4.925 2.905-1.771 5.711-3.541 8.543-5.555l63.66-49.742-.976-1.25z"/>
</svg>
