<svg xmlns="http://www.w3.org/2000/svg" width="18" height="15" viewBox="0 0 18 15">
    <g fill="none" fill-rule="evenodd">
        <path fill="#52639F" d="M14.572 8.907L12.152.338 5.502 5.5z"/>
        <path fill="#4B5C86" d="M17.195 5.942L12.151.338l2.421 8.57z"/>
        <path fill="#3A4977" d="M12.15.338l-8.388.725L5.502 5.5z"/>
        <path fill="#354170" d="M3.762 1.063L.747 9.153 5.503 5.5z"/>
        <path fill="#303A6B" d="M.747 9.152L6.924 14.3l-1.42-8.8z"/>
        <path fill="#4C5D8D" d="M5.503 5.5l1.42 8.8 7.649-5.393z"/>
        <path fill="#1C253A" d="M14.572 8.907l-.343 5.295 2.966-8.26z"/>
        <path fill="#1A2238" d="M6.924 14.3l7.305-.098.343-5.295zM5.92 14.128l1.004.172L.747 9.152z"/>
        <g>
            <path fill="#52639F" d="M14.572 8.907L12.152.338 5.502 5.5z"/>
            <path fill="#4B5C86" d="M17.195 5.942L12.151.338l2.421 8.57z"/>
            <path fill="#3A4977" d="M12.15.338l-8.388.725L5.502 5.5z"/>
            <path fill="#354170" d="M3.762 1.063L.747 9.153 5.503 5.5z"/>
            <path fill="#303A6B" d="M.747 9.152L6.924 14.3l-1.42-8.8z"/>
            <path fill="#4C5D8D" d="M5.503 5.5l1.42 8.8 7.649-5.393z"/>
            <path fill="#1C253A" d="M14.572 8.907l-.343 5.295 2.966-8.26z"/>
            <path fill="#1A2238" d="M6.924 14.3l7.305-.098.343-5.295zM5.92 14.128l1.004.172L.747 9.152z"/>
        </g>
    </g>
</svg>
