<svg xmlns="http://www.w3.org/2000/svg" width="322" height="287" viewBox="0 0 322 287">
    <g fill="#94C3DC" fill-rule="evenodd">
        <path d="M259.63 251.932l-3.585 2.63 12.444 1.714-7.451-10.112-.598 4.405zM129.63 68.932l-3.585 2.63 12.444 1.714-7.451-10.112-.598 4.405z"/>
        <path d="M34.028 57.1L71.79 35.657c-1.083-.593-1.741-.824-1.975-.691L34.548 54.99l-11.357 2.562 3.298 2.015-13.662 7.757a35.862 35.862 0 0 0-3.475 2.786 29.223 29.223 0 0 0-5.48 7.044 27.576 27.576 0 0 0-2.964 8.426C.376 88.53.43 91.571.905 94.518c1.007 5.898 4.026 11.436 8.47 15.45 1.091.99 2.312 1.96 3.542 2.72l3.67 2.347 304.1 171.514.854-1.336L17.466 113.716l-3.668-2.347c-1.24-.769-2.296-1.62-3.357-2.575-4.183-3.779-7.023-8.988-7.973-14.545-.446-2.778-.498-5.624.002-8.398a25.996 25.996 0 0 1 2.791-7.932 27.614 27.614 0 0 1 5.173-6.65 34.47 34.47 0 0 1 3.317-2.656l13.86-7.869.297.415.97 4.34 5.15-8.399z"/>
        <path d="M151.414 79.916L8.766 0 8 1.388l142.51 79.838z"/>
    </g>
</svg>
