<svg xmlns="http://www.w3.org/2000/svg" width="230" height="73" viewBox="0 0 230 73">
    <g fill="#94C3DC" fill-rule="evenodd">
        <path d="M111.203 66.344l3.585-2.63L102.344 62l7.451 10.112.598-4.405z"/>
        <path d="M228.911.557l-63.66 48.742c-2.655 1.886-11.067 8.915-17.159 13.308-3.253 2.346-6.196 3.837-9.296 4.717-2.706.767-5.532 1.07-8.792 1.07-3.315.142-6.639-.1-9.924-.58-3.285-.48-6.08-.814-9.717-2.22-2.121-.653-38.446-20.769-108.973-60.346L.622 6.635C71.307 46.285 107.733 66.444 109.9 67.112c3.101 1.282 6.577 1.779 9.951 2.27 3.372.494 6.793.742 10.208.597 3.412-.13 5.814-.55 9.15-1.28 2.528-.59 5.723-2.147 9.585-4.67 5.793-3.785 14.602-11.466 17.434-13.48l63.66-48.742-.976-1.25z"/>
    </g>
</svg>
