<svg xmlns="http://www.w3.org/2000/svg" width="18" height="15" viewBox="0 0 18 15">
    <g fill="none" fill-rule="evenodd">
        <path fill="#799ADF" d="M14.572 9.29L12.152.72 5.502 5.882z"/>
        <path fill="#A1B9E5" d="M17.195 6.323L12.151.72l2.421 8.57z"/>
        <path fill="#668BCC" d="M12.15.72l-8.388.726 1.74 4.436z"/>
        <path fill="#5A81BA" d="M3.762 1.446L.747 9.534l4.756-3.652z"/>
        <path fill="#668BCC" d="M.747 9.534l6.177 5.147-1.42-8.799z"/>
        <path fill="#799ADF" d="M5.503 5.882l1.42 8.8 7.649-5.393z"/>
        <path fill="#5979B2" d="M14.572 9.29l-.343 5.294 2.966-8.26zM6.924 14.682l7.305-.098.343-5.295zM5.92 14.51l1.004.172L.747 9.534z"/>
        <path fill="#799ADF" d="M14.572 9.29L12.152.72 5.502 5.882z"/>
        <path fill="#A1B9E5" d="M17.195 6.323L12.151.72l2.421 8.57z"/>
        <path fill="#668BCC" d="M12.15.72l-8.388.726 1.74 4.436z"/>
        <path fill="#5A81BA" d="M3.762 1.446L.747 9.534l4.756-3.652z"/>
        <path fill="#668BCC" d="M.747 9.534l6.177 5.147-1.42-8.799z"/>
        <path fill="#799ADF" d="M5.503 5.882l1.42 8.8 7.649-5.393z"/>
        <path fill="#5979B2" d="M14.572 9.29l-.343 5.294 2.966-8.26zM6.924 14.682l7.305-.098.343-5.295zM5.92 14.51l1.004.172L.747 9.534z"/>
    </g>
</svg>
