<svg xmlns="http://www.w3.org/2000/svg" width="194" height="127" viewBox="0 0 194 127">
    <g fill="none" fill-rule="evenodd">
        <path fill="#576DA2" d="M164.992 17.704c-37.618-23.57-98.61-23.57-136.228 0C9.935 29.504.534 44.97.552 60.431V66.402c-.018 15.46 9.383 30.922 28.212 42.718 37.618 23.57 98.606 23.57 136.228 0 18.83-11.799 28.228-27.267 28.206-42.732V60.431c.022-15.462-9.377-30.929-28.206-42.727"/>
        <path fill="#38619D" d="M164.992 103.066c-37.622 23.569-98.61 23.569-136.228 0-37.618-23.572-37.618-61.79 0-85.361 37.618-23.572 98.61-23.572 136.228 0 37.62 23.572 37.616 61.786 0 85.36"/>
        <path fill="#FFF" d="M128.298 45.332c.846-.509 1.213-1.444.758-2.373a2.09 2.09 0 0 0-.333-.487l-.877-1.013a2.062 2.062 0 0 0-.44-.416 2.635 2.635 0 0 0-2.23-.4 2.84 2.84 0 0 0-.64.272c-1.301.792-1.244 2.215-.138 3.502.79.92 1.909 1.466 3.006 1.262.069-.013.138-.029.207-.047.234-.07.462-.163.687-.3zm2.48-2.692a28.77 28.77 0 0 0 1.357 1.472l-1.125.682-.94-.976c.158.898-.264 1.895-1.397 2.577a3.71 3.71 0 0 1-1.256.48c-1.45.27-3.086-.286-4.252-1.645-1.68-1.919-1.277-3.977.415-4.996.326-.197.65-.335.962-.419a4.27 4.27 0 0 1 .279-.063c.617-.114 1.179-.05 1.618.114l-2.963-3.492 1.266-.759 6.036 7.025zM117.614 44.086c.987-.184 2.268.043 3.455 1.423l2.984 3.471-1.257.757-2.89-3.35c-.626-.734-1.427-1.22-2.32-1.054-.055.01-.11.023-.166.038a2.374 2.374 0 0 0-.597.266c-.823.496-1.05 1.38-.753 2.096.056.17.172.364.332.548l3.008 3.493-1.25.756-3.654-4.23a25.113 25.113 0 0 0-1.413-1.549l1.118-.672.897.924.03-.022c-.138-.765.206-1.782 1.357-2.468.223-.144.513-.276.833-.36.092-.026.188-.048.286-.067M111.06 47.979l3.643 4.224c.518.599.988 1.12 1.422 1.547l-1.116.679-.892-.907-.022.02c.074.666-.134 1.717-1.359 2.46a3.836 3.836 0 0 1-.865.375c-.079.022-.16.04-.242.055-.999.186-2.237-.092-3.479-1.534l-2.92-3.406 1.257-.757 2.77 3.219c.745.869 1.55 1.366 2.421 1.204l.146-.033a2.47 2.47 0 0 0 .565-.251c.846-.51 1.011-1.356.845-1.96a2.124 2.124 0 0 0-.359-.612l-3.073-3.565 1.257-.758zM102.073 49.924l.748.874-3.943 2.381 2.318 2.693 3.648-2.197.746.865-3.65 2.198 3.155 3.663-1.251.748-6.965-8.097zM91.78 60.532c-1.264.767-.979 2.097-.446 2.881l3.672-2.21c-.45-.549-1.337-1.186-2.39-.989a2.662 2.662 0 0 0-.835.318m5.955 2.79l.876.618c-.306.435-.902 1.095-1.997 1.753a5.286 5.286 0 0 1-1.738.667c-1.57.292-3.086-.272-4.192-1.556-1.512-1.745-1.472-3.864.547-5.08a4.13 4.13 0 0 1 1.041-.46c.1-.027.2-.05.3-.069 1.697-.315 3.148.688 3.88 1.541.185.215.3.4.388.521l-4.87 2.922c.866.984 1.905 1.254 2.88 1.074.093-.018.185-.039.276-.064.327-.095.651-.233.953-.418.9-.545 1.335-1.003 1.656-1.449M87.711 69.615c.767-.469 1.118-1.299.815-2.135a1.999 1.999 0 0 0-.389-.623l-.896-1.052a1.938 1.938 0 0 0-.49-.432 2.625 2.625 0 0 0-2.09-.324 2.668 2.668 0 0 0-.625.261c-1.202.731-1.325 2.092-.173 3.45.77.88 1.857 1.406 2.941 1.205.07-.014.141-.03.211-.049.226-.068.463-.163.696-.3zm3.085-1.879c1.145 1.332 1.532 2.342 1.292 3.245-.213.933-1.044 1.697-1.922 2.22a6.921 6.921 0 0 1-1.707.738 4.299 4.299 0 0 1-1.003.169l-.374-.995a5.253 5.253 0 0 0 1.03-.174 5.883 5.883 0 0 0 1.392-.594c1.28-.778 1.746-1.912.482-3.376l-.557-.644c.054.79-.329 1.667-1.4 2.312a3.847 3.847 0 0 1-1.264.481c-1.459.27-3.056-.298-4.124-1.539-1.7-1.968-1.122-4.007.46-4.97.327-.189.643-.326.946-.408a3.36 3.36 0 0 1 .291-.067 3.136 3.136 0 0 1 1.796.186l-.662-.925 1.101-.668c.331.445.7.926 1.311 1.636l2.912 3.373zM68.555 74.532c-1.283.762-.99 2.09-.463 2.884l3.687-2.222c-.456-.54-1.338-1.184-2.392-.988a2.35 2.35 0 0 0-.832.326m5.95 2.773l.862.63c-.294.441-.887 1.083-1.988 1.751a5.63 5.63 0 0 1-1.35.586c-.13.036-.26.067-.39.09-1.564.291-3.091-.277-4.196-1.555-1.506-1.754-1.466-3.874.55-5.098a4.42 4.42 0 0 1 1.044-.45 3.83 3.83 0 0 1 .3-.07c1.705-.317 3.14.69 3.88 1.54.186.215.3.4.388.521l-4.868 2.93c.872.975 1.905 1.247 2.879 1.066.092-.018.184-.039.275-.064.327-.095.65-.232.954-.418.899-.544 1.334-1.003 1.66-1.459M79.739 74.582c.846-.51 1.213-1.444.756-2.38a1.964 1.964 0 0 0-.334-.488l-.874-1.005a1.901 1.901 0 0 0-.438-.408 2.62 2.62 0 0 0-2.231-.409 3.31 3.31 0 0 0-.64.273c-1.305.783-1.247 2.206-.14 3.502.79.92 1.907 1.458 3.003 1.254.069-.013.139-.028.209-.048.228-.06.46-.163.689-.29zm2.49-2.687a26.4 26.4 0 0 0 1.346 1.467l-1.124.681-.93-.977c.146.891-.274 1.897-1.406 2.587a4.059 4.059 0 0 1-.931.397 4.4 4.4 0 0 1-.317.073c-1.457.271-3.096-.292-4.261-1.643-1.681-1.927-1.27-3.979.415-4.996.326-.197.65-.335.97-.42.097-.026.19-.047.285-.065.607-.113 1.165-.054 1.604.117l.029-.022-2.992-3.47 1.258-.758 6.055 7.03zM61.285 74.493l6.974 8.094-1.267.76-3.264-3.797-4.664 2.815 3.262 3.788-1.241.754-6.973-8.094 1.242-.746 2.923 3.38 4.666-2.808-2.925-3.387zM132.724 35.07c.158-.03.308-.05.442-.06l.348.967c-.144.004-.32.02-.514.056a3.906 3.906 0 0 0-.302.07 3.314 3.314 0 0 0-.891.38c-.752.457-.85 1.06-.478 1.488.36.424.856.45 1.733.287.135-.027.278-.056.432-.089.1-.022.2-.042.297-.06 1.369-.255 2.33-.087 3.034.72.879 1.02.546 2.31-1.09 3.301a5.86 5.86 0 0 1-1.458.623 3.715 3.715 0 0 1-.402.097 4.543 4.543 0 0 1-.433.058l-.374-.995c.174-.005.38-.03.603-.071a4.102 4.102 0 0 0 1.409-.508c.915-.556 1.02-1.195.607-1.676-.39-.447-.897-.546-1.838-.37-.116.02-.24.048-.37.077-.134.032-.265.06-.392.084-1.361.253-2.313.015-2.863-.63-.8-.933-.565-2.247.924-3.15a5.505 5.505 0 0 1 1.224-.518c.12-.034.238-.06.352-.082"/>
    </g>
</svg>
