<svg xmlns="http://www.w3.org/2000/svg" width="290" height="249.6" viewBox="0 0 290 249.6"><style type="text/css">.st0{fill:#FFFFFF;}</style><path class="st0" d="M287.8 46.3l-91.8-46c-.4-.2-.9-.3-1.3-.3h-.1c-1.1 0-2.2.6-2.8 1.5l-56.6 92 63.2 102.7 90.4-146.9c.6-1 .2-2.5-1-3zM105.2 61.2v99.1l88.1 44.1zM201 208.2l80.9 40.5c4.4 2.2 8 0 8-5v-180l-88.9 144.5zM95.5 46.7l-84.8-42.4-5.3-2.6c-.8-.4-1.6-.6-2.2-.6-.9 0-1.7.4-2.3 1.1-.6.6-.9 1.6-.9 2.8v193.4c0 3.3 2.4 7.2 5.4 8.7l83.3 41.6c1.2.6 2.3.9 3.3.9 2.8 0 4.8-2.2 4.8-5.8v-195.1c-.1-.9-.6-1.6-1.3-2z"/></svg>