<svg xmlns="http://www.w3.org/2000/svg" width="31.9" height="27.9" viewBox="0 0 31.9 27.9"><style type="text/css">.st0{fill:#FFFFFF;}</style><path class="st0" d="M31.9 3.3c-1.2.6-2.4.9-3.8 1.1 1.4-.9 2.4-2.2 2.9-3.9-1.3.8-2.7 1.4-4.2 1.7-1.1-1.3-2.8-2.2-4.7-2.2-3.6 0-6.5 3.1-6.5 7 0 .5.1 1.1.2 1.6-5.5-.2-10.4-3.1-13.6-7.3-.6 1-.9 2.2-.9 3.5 0 2.4 1.2 4.6 2.9 5.9-1.1 0-2.1-.3-3-.9v.1c0 3.4 2.3 6.2 5.2 6.9-.4.2-1 .2-1.6.2-.4 0-.8 0-1.2-.1.8 2.8 3.2 4.8 6.1 4.9-2.2 1.9-5.1 3-8.1 3-.5 0-1.1 0-1.6-.1 2.9 2 6.3 3.2 10 3.2 12 0 18.6-10.7 18.6-20v-.9c1.3-1 2.4-2.3 3.3-3.7z"/></svg>