<svg xmlns="http://www.w3.org/2000/svg" width="79.9" height="80.1" viewBox="0 0 79.9 80.1"><style type="text/css">.st0{fill:#FFFFFF;}</style><path class="st0" d="M79.6 42.6c-1.1-3.4-4.8-5.2-8.2-4.1l-8.1 2.7-5.4-16.1 8.1-2.7c3.4-1.1 5.2-4.8 4.1-8.2-1.1-3.4-4.8-5.2-8.2-4.1l-8.1 2.7-2.8-8.4c-1.1-3.4-4.8-5.2-8.2-4.1-3.4 1.1-5.2 4.8-4.1 8.2l2.8 8.4-16.7 5.6-2.8-8.4c-1.1-3.4-4.8-5.2-8.2-4.1-3.4 1.1-5.2 4.8-4.1 8.2l2.8 8.4-8.1 2.7c-3.4 1.1-5.2 4.8-4.1 8.2.9 2.6 3.4 4.3 6 4.4.7.1 1.5-.1 2.2-.3l8.1-2.7 5.4 16.1-8.1 2.7c-3.4 1.1-5.2 4.8-4.1 8.2.9 2.6 3.4 4.3 6 4.4.7.1 1.5-.1 2.2-.3l8.1-2.7 2.8 8.4c.9 2.6 3.4 4.3 6 4.4.7.1 1.5-.1 2.2-.3 3.4-1.1 5.2-4.8 4.1-8.2l-2.8-8.4 16.7-5.6 2.8 8.4c.9 2.6 3.4 4.3 6 4.4.7.1 1.5-.1 2.2-.3 3.4-1.1 5.2-4.8 4.1-8.2l-2.8-8.4 8.1-2.7c3.4-1.1 5.2-4.8 4.1-8.2zm-45.3 8.5l-5.4-16.1 16.7-5.6 5.4 16.1-16.7 5.6z"/></svg>