<svg xmlns="http://www.w3.org/2000/svg" width="208" height="127" viewBox="0 0 208 127">
    <g fill="none" fill-rule="evenodd">
        <path fill="#5580C5" d="M152.087.085l-24.526 14.248-101.998 58.5L.14 87.412l56.261 32.483 151.107-87.31z"/>
        <path fill="#576DA2" d="M56.402 119.896l2.73 1.577L.14 87.413v7.153l56.205 32.449z"/>
        <path fill="#799ADF" d="M207.509 32.585L56.402 119.896l-.057 7.06.056.032 6.14-3.548.05.03 144.94-83.745v-7.127z"/>
        <path fill="#FFF" d="M91.688 64.344l2.218 7.459-1.205.722-7.602-4.27 1.355-.801L90.6 69.92c.678.397 1.273.776 1.834 1.169l.047-.025c-.26-.578-.462-1.185-.692-1.855l-1.433-4.077 1.332-.788zM82.628 69.766c1-.186 2.28.042 3.456 1.439l2.96 3.485-1.258.757-2.858-3.374c-.63-.74-1.438-1.225-2.331-1.06a2.502 2.502 0 0 0-.751.285c-.83.506-1.06 1.38-.77 2.1.053.162.18.36.332.549l2.984 3.505-1.275.76-3.61-4.264a21.952 21.952 0 0 0-1.402-1.542l1.118-.672.897.924.032-.015c-.13-.766.215-1.782 1.366-2.47a3.592 3.592 0 0 1 1.11-.407M73.934 71.43l6.905 8.14-1.253.74-6.905-8.141zM95.926 62.775c-1.277.753-1 2.083-.475 2.878l3.695-2.197c-.453-.552-1.34-1.201-2.41-1.001-.057.01-.115.023-.173.039a2.625 2.625 0 0 0-.637.28m5.934 2.813l.853.63c-.297.434-.898 1.078-2.004 1.73a5.161 5.161 0 0 1-1.72.663c-1.579.293-3.105-.276-4.206-1.57-1.48-1.76-1.433-3.89.6-5.09a3.884 3.884 0 0 1 1.34-.513c1.704-.317 3.14.7 3.871 1.56.178.216.301.4.38.522l-4.895 2.902c.87.99 1.91 1.262 2.89 1.08.094-.017.186-.04.278-.064.327-.095.642-.231.938-.406.902-.537 1.345-.997 1.675-1.444M126.459 43.839c.165-.03.322-.051.466-.062l.329.959a4.248 4.248 0 0 0-.495.059c-.1.019-.204.043-.31.074a3.474 3.474 0 0 0-.891.38c-.758.442-.87 1.055-.489 1.482.346.422.852.45 1.742.284.128-.024.266-.052.413-.084.085-.018.17-.034.251-.05 1.395-.26 2.373-.089 3.07.737.872 1.024.53 2.315-1.12 3.29a5.468 5.468 0 0 1-1.418.608 3.874 3.874 0 0 1-.88.154l-.364-.996c.185-.002.411-.024.65-.069a4.319 4.319 0 0 0 1.375-.496c.925-.55 1.03-1.188.617-1.669-.382-.45-.893-.554-1.841-.378a8.695 8.695 0 0 0-.36.075 6.418 6.418 0 0 1-.35.073c-1.383.258-2.347.006-2.892-.638-.803-.941-.55-2.258.942-3.145a4.738 4.738 0 0 1 1.555-.588M121.55 46.476l.854.999c-.15.046-.283.122-.463.224-.895.527-1.044 1.465-.534 2.365.09.164.196.35.356.535l2.64 3.106-1.244.747-3.415-4.02a39.903 39.903 0 0 0-1.609-1.794l1.115-.653 1.016 1.124.062-.037c-.35-.974-.013-1.92.835-2.422.148-.087.262-.134.387-.174M117.585 56.757c1.215-.715 1.31-2.209.197-3.521-.685-.807-1.907-1.561-3.14-1.332a2.548 2.548 0 0 0-.848.322c-1.503.888-1.168 2.431-.22 3.543.856 1.009 2.101 1.499 3.197 1.296a2.374 2.374 0 0 0 .814-.308m1.458-4.331c1.83 2.167.851 4.168-.84 5.161a4.764 4.764 0 0 1-1.542.579c-1.54.286-3.183-.238-4.342-1.597-1.653-1.959-1.105-4.009.824-5.158a4.535 4.535 0 0 1 1.556-.596c1.58-.294 3.202.27 4.344 1.611M105.731 53.484l1.421 1.676 1.822-1.076.677.817-1.812 1.075 2.678 3.151c.477.556.943.842 1.45.748a1.383 1.383 0 0 0 .464-.177 3.58 3.58 0 0 0 .665-.51l.742.755c-.181.23-.516.525-.998.813-.249.148-.5.255-.743.327a3.437 3.437 0 0 1-.19.043c-.28.05-.554.053-.822-.002-.624-.099-1.198-.54-1.778-1.232l-2.698-3.189-1.091.64-.676-.81 1.074-.636-1.183-1.402.998-1.01zM103.532 57.463c.151-.028.295-.047.43-.053l.327.96a3.336 3.336 0 0 0-.51.057 3.64 3.64 0 0 0-1.191.44c-.754.45-.868 1.054-.494 1.491.363.427.864.456 1.753.291.13-.025.267-.053.413-.084.085-.018.17-.036.251-.05 1.395-.26 2.372-.09 3.068.73.88 1.02.537 2.311-1.112 3.287a5.688 5.688 0 0 1-1.435.611 4.066 4.066 0 0 1-.414.1 5.202 5.202 0 0 1-.455.061l-.365-.996a4.832 4.832 0 0 0 1.066-.173c.335-.097.672-.22.96-.393.925-.55 1.02-1.194.615-1.676-.384-.457-.89-.556-1.832-.38-.117.02-.24.047-.37.076a7.579 7.579 0 0 1-.325.068c-1.392.26-2.366.023-2.917-.633-.803-.94-.548-2.25.946-3.136a4.721 4.721 0 0 1 1.591-.598"/>
    </g>
</svg>
