<svg xmlns="http://www.w3.org/2000/svg" width="209" height="128" viewBox="0 0 209 128">
    <g fill="none" fill-rule="evenodd">
        <path fill="#3F4A80" d="M152.734.215l-24.526 14.247L26.21 72.961.787 87.542l56.261 32.483 151.107-87.311z"/>
        <path fill="#576DA2" d="M57.049 120.025l2.73 1.577L.788 87.542v7.154l56.205 32.448z"/>
        <path fill="#799ADF" d="M208.155 32.714L57.05 120.025l-.057 7.061.056.032 6.14-3.549.051.03 144.938-83.745v-7.126z"/>
        <path fill="#FFF" d="M106.603 58.664l3.635 4.226c.517.598.987 1.121 1.424 1.554l-1.119.672-.884-.908-.032.014c.076.665-.124 1.714-1.358 2.46a3.2 3.2 0 0 1-1.117.432c-1 .186-2.225-.105-3.462-1.54l-2.927-3.395 1.258-.758 2.77 3.22c.75.863 1.55 1.358 2.413 1.198a2.041 2.041 0 0 0 .725-.288c.85-.5 1.014-1.348.837-1.958a1.969 1.969 0 0 0-.35-.614l-3.082-3.564 1.269-.75zM98.7 63.56c.158-.03.307-.048.446-.06l.345.958a3.514 3.514 0 0 0-.797.131 3.656 3.656 0 0 0-.908.384c-.746.447-.857 1.06-.475 1.496.353.41.84.446 1.691.288.146-.027.302-.06.471-.097.115-.027.227-.05.338-.071 1.346-.25 2.302-.078 2.985.732.877 1.012.552 2.3-1.093 3.293a5.741 5.741 0 0 1-1.438.628 5.039 5.039 0 0 1-.403.093c-.152.029-.3.047-.443.055l-.383-.993c.182-.007.4-.03.627-.072a4.81 4.81 0 0 0 .405-.094 3.78 3.78 0 0 0 .998-.417c.917-.548 1.013-1.184.598-1.674-.383-.44-.882-.542-1.794-.373a9.49 9.49 0 0 0-.412.088 7.852 7.852 0 0 1-.384.083c-1.357.252-2.313.008-2.862-.63-.81-.94-.567-2.255.918-3.141a4.753 4.753 0 0 1 1.57-.607M93.037 66.973a4.21 4.21 0 0 1 .442-.058l.346.957c-.14.003-.31.02-.5.055-.095.018-.196.04-.3.068a4.135 4.135 0 0 0-.914.393c-.737.446-.84 1.058-.466 1.495.358.412.858.44 1.752.274.13-.025.27-.053.418-.085.113-.026.223-.05.332-.07 1.347-.25 2.293-.07 2.989.723.879 1.02.555 2.309-1.09 3.31a6.158 6.158 0 0 1-1.447.62 5.153 5.153 0 0 1-.847.148l-.374-.994c.182-.006.395-.03.62-.071.132-.025.268-.055.403-.093.344-.098.697-.233.999-.417.908-.547 1.013-1.185.597-1.674-.382-.44-.881-.542-1.793-.373a9.49 9.49 0 0 0-.412.088 7.955 7.955 0 0 1-.387.083c-1.363.253-2.32.009-2.868-.628-.794-.942-.567-2.255.935-3.144a4.626 4.626 0 0 1 1.565-.607M85.371 67.976l6.974 8.095-1.24.754-6.975-8.095zM111.88 56.43c-1.282.77-.99 2.09-.464 2.885l3.687-2.222c-.456-.54-1.338-1.184-2.392-.99a2.38 2.38 0 0 0-.832.326m5.954 2.783l.858.62c-.294.443-.884 1.093-1.988 1.753-.45.273-.905.46-1.35.586a4.755 4.755 0 0 1-.394.09c-1.57.293-3.086-.271-4.192-1.556-1.506-1.754-1.466-3.873.553-5.09a4.446 4.446 0 0 1 1.041-.458 3.43 3.43 0 0 1 .301-.07c1.704-.317 3.14.689 3.88 1.54.187.224.3.4.387.522l-4.868 2.929c.873.982 1.902 1.248 2.868 1.069a3.617 3.617 0 0 0 1.24-.484c.901-.537 1.336-.996 1.664-1.451M119.19 50.934l.861.99a2.653 2.653 0 0 0-.463.224c-.883.54-1.032 1.479-.512 2.378.088.155.204.348.362.525l2.665 3.102-1.243.746-3.437-3.997a30.906 30.906 0 0 0-1.63-1.782l1.102-.661 1.031 1.114.062-.037c-.359-.973-.03-1.917.816-2.427.148-.088.253-.133.386-.175"/>
    </g>
</svg>
