<svg xmlns="http://www.w3.org/2000/svg" width="208" height="128" viewBox="0 0 208 128">
    <g fill="none" fill-rule="evenodd">
        <path fill="#5261A3" d="M152.31.56l-24.527 14.248L25.785 73.307.362 87.889l56.261 32.483L207.73 33.06z"/>
        <path fill="#576DA2" d="M56.623 120.371l2.732 1.576L.361 87.89v7.152l56.204 32.45z"/>
        <path fill="#799ADF" d="M207.73 33.06L56.625 120.372l-.058 7.06.056.032 6.142-3.548.05.029L207.751 40.2v-7.126z"/>
        <path fill="#FFF" d="M90.816 70.51c1.495-.913 1.892-2.068.93-3.193-.61-.697-1.397-.93-2.254-.77a3.413 3.413 0 0 0-.267.062c-.37.103-.742.266-1.12.5-.554.326-.928.61-1.107.78l2.707 3.154c.324-.103.691-.283 1.111-.532m2.123-3.991c.638.739.875 1.468.753 2.177-.16.992-.97 1.93-2.189 2.665a5.337 5.337 0 0 1-1.058.53l2.788 3.25-1.243.747-6.884-8a16.15 16.15 0 0 1 2.258-1.595c.636-.385 1.242-.652 1.805-.808a4.72 4.72 0 0 1 .395-.09c.38-.07.736-.09 1.074-.063.868.062 1.686.468 2.301 1.187M80.429 70.814a3.87 3.87 0 0 1 .207-.033l.439 1.034c-.08.012-.162.024-.246.04a4.93 4.93 0 0 0-.364.082 7.074 7.074 0 0 0-1.634.707c-2.258 1.364-2.714 3.483-.88 5.614 1.247 1.447 2.898 2.08 4.613 1.762.136-.025.273-.057.41-.094a5.928 5.928 0 0 0 1.486-.654c.752-.457 1.42-1.054 1.734-1.56l.974.679c-.288.465-1.041 1.215-2.207 1.912a7.4 7.4 0 0 1-1.876.813 7.04 7.04 0 0 1-.563.13c-2.083.387-4.227-.264-5.863-2.163-2.182-2.531-1.61-5.478 1.386-7.29.808-.483 1.495-.75 1.998-.893a6.15 6.15 0 0 1 .386-.086M73.1 74.97l.776 6.596 2.96 3.449-1.249.756-2.973-3.431-7.052-2.826 1.423-.85 3.276 1.41c.903.39 1.61.714 2.392 1.092l.032-.014c-.18-.688-.31-1.42-.468-2.257l-.529-3.07 1.412-.854zM65.344 79.64l-.528 5.54 7.774 2.393-1.474.89-6.6-2.068-.153 1.445 2.663 3.093-1.243.746-6.974-8.095 1.249-.756 3.358 3.909.048-.026c-.021-.468-.007-.91.006-1.323l.329-4.816 1.545-.932zM97.664 63.495l.855 1a2.581 2.581 0 0 0-.455.222c-.885.533-1.032 1.48-.521 2.38.097.154.213.346.369.515l2.667 3.11-1.243.746-3.454-3.994a31.604 31.604 0 0 0-1.614-1.786l1.103-.66 1.022 1.115.054-.036c-.36-.97-.013-1.92.824-2.427.148-.088.25-.142.393-.185M106.178 66.342c1.195-.721 1.28-2.221.152-3.522-.685-.802-1.916-1.54-3.149-1.312a2.284 2.284 0 0 0-.842.328c-1.5.897-1.15 2.429-.193 3.538.863 1.007 2.106 1.489 3.194 1.287.072-.013.144-.029.215-.049a2.63 2.63 0 0 0 .623-.27m1.411-4.34c1.852 2.153.882 4.153-.793 5.169a4.925 4.925 0 0 1-1.172.51c-.125.034-.25.062-.376.086-1.53.285-3.168-.227-4.338-1.588-1.685-1.944-1.148-4.001.77-5.156a4.766 4.766 0 0 1 1.602-.607c1.563-.291 3.166.268 4.307 1.586M114.763 53.347l4.996 5.81-1.256.765-5.006-5.816zM112.318 54.822l2.278 7.448-1.2.73-7.639-4.229 1.342-.815 4.178 2.45c.68.397 1.277.76 1.84 1.16l.045-.034a21.273 21.273 0 0 1-.707-1.843l-1.457-4.072 1.32-.795zM124.05 55.483c.847-.51 1.213-1.444.758-2.372a2.145 2.145 0 0 0-.333-.487l-.874-1.005a1.761 1.761 0 0 0-.44-.417 2.618 2.618 0 0 0-2.23-.401 2.485 2.485 0 0 0-.639.274c-1.305.783-1.248 2.206-.142 3.494.792.926 1.908 1.466 3.004 1.262a2.56 2.56 0 0 0 .896-.348zm2.485-2.676c.448.509.97 1.09 1.354 1.465l-1.127.673-.93-.978c.148.9-.272 1.905-1.405 2.588a3.716 3.716 0 0 1-1.258.47c-1.45.27-3.086-.285-4.252-1.644-1.679-1.92-1.266-3.97.426-4.99a3.658 3.658 0 0 1 1.273-.49c.594-.11 1.15-.047 1.575.116l-2.963-3.492 1.266-.76 6.041 7.042zM128.098 46.258c-1.272.77-.98 2.088-.446 2.882l3.673-2.211c-.45-.549-1.333-1.194-2.394-.997a2.38 2.38 0 0 0-.833.326m5.962 2.78l.86.622c-.296.441-.894 1.093-1.998 1.753a5.318 5.318 0 0 1-1.35.586 4.334 4.334 0 0 1-.392.09c-1.563.291-3.08-.272-4.185-1.557-1.506-1.754-1.466-3.874.561-5.091a3.999 3.999 0 0 1 1.345-.522c1.696-.314 3.136.682 3.867 1.535.19.223.301.4.38.523l-4.86 2.928c.866.983 1.894 1.249 2.86 1.07a3.722 3.722 0 0 0 1.248-.486c.91-.538 1.328-.994 1.664-1.451M135.426 40.759l.853.991a3.059 3.059 0 0 0-.455.222c-.89.544-1.032 1.479-.529 2.382.096.154.213.346.37.523l2.674 3.1-1.252.748-3.445-3.995a35.87 35.87 0 0 0-1.614-1.785l1.103-.661 1.022 1.115.054-.036c-.356-.963-.013-1.92.824-2.428.14-.086.253-.133.395-.176M140.394 38.073c.13-.024.256-.04.37-.05l.349.966c-.126.003-.277.02-.446.051-.11.02-.228.047-.351.08a3.618 3.618 0 0 0-.908.384c-.746.447-.857 1.06-.486 1.49.355.417.849.452 1.702.293.146-.027.303-.06.47-.097.116-.026.229-.05.339-.07 1.345-.25 2.3-.078 2.985.731.876 1.013.552 2.301-1.093 3.293a5.788 5.788 0 0 1-1.447.63 4.631 4.631 0 0 1-.4.092 3.397 3.397 0 0 1-.438.055l-.382-.994c.182-.006.399-.03.627-.072a4.12 4.12 0 0 0 .404-.094c.347-.089.697-.232.999-.417.919-.54 1.013-1.184.598-1.673-.383-.44-.89-.54-1.802-.37a7.385 7.385 0 0 0-.413.086c-.13.032-.258.06-.382.082-1.35.251-2.307.006-2.855-.63-.811-.94-.567-2.255.917-3.14a4.852 4.852 0 0 1 1.643-.626"/>
    </g>
</svg>
