<?xml version="1.0" encoding="UTF-8"?>
<svg width="253px" height="154px" viewBox="0 0 253 154" version="1.1" xmlns="http://www.w3.org/2000/svg" xmlns:xlink="http://www.w3.org/1999/xlink">
    <!-- Generator: Sketch 47.1 (45422) - http://www.bohemiancoding.com/sketch -->
    <title>Group 11</title>
    <desc>Created with Sketch.</desc>
    <defs>
        <polygon id="path-1" points="126.1268 80 0 80 0 0.0307 126.1268 0.0307 126.1268 80"></polygon>
        <polygon id="path-3" points="0.1267 80 126.2487 80 126.2487 0.0304 0.1267 0.0304"></polygon>
    </defs>
    <g id="Page-1" stroke="none" stroke-width="1" fill="none" fill-rule="evenodd">
        <g id="Investors" transform="translate(-648.000000, -154.000000)">
            <g id="Group-11" transform="translate(648.000000, 154.000000)">
                <g id="Group-7" transform="translate(0.000000, 73.169000)">
                    <g id="Group-3">
                        <mask id="mask-2" fill="white">
                            <use xlink:href="#path-1"></use>
                        </mask>
                        <g id="Clip-2"></g>
                        <polygon id="Fill-1" fill="#576DA2" mask="url(#mask-2)" points="-0.0002 0.0307 -0.0002 7.1827 126.1268 80.0007 126.1268 72.8487"></polygon>
                    </g>
                    <g id="Group-6" transform="translate(126.000000, 0.000000)">
                        <mask id="mask-4" fill="white">
                            <use xlink:href="#path-3"></use>
                        </mask>
                        <g id="Clip-5"></g>
                        <polygon id="Fill-4" fill="#799ADF" mask="url(#mask-4)" points="0.1267 80.0004 126.2487 7.1834 126.2487 0.0304 0.1267 72.8494"></polygon>
                    </g>
                </g>
                <g id="Group-10">
                    <polygon id="Fill-8" fill="#3F4A80" points="127.4211 -0.0002 127.4211 0.1198 25.4231 58.6188 0.0001 73.1998 126.1271 146.0188 252.2481 73.1998 227.1071 58.4568"></polygon>
                    <polygon id="Fill-9" fill="#FFFFFF" points="84.7254 72.0337 90.9334 79.2577 95.0624 76.7637 95.8214 77.6447 90.4474 80.8757 83.4824 72.7797"></polygon>
                    <polygon id="Fill-10" fill="#FFFFFF" points="112.9373 54.3862 120.2763 62.9182 119.0183 63.6762 111.6713 55.1452"></polygon>
                    <path d="M113.4666,66.0298 C114.3686,65.4938 114.5286,64.6568 114.3056,64.0468 C114.2606,63.9168 114.1856,63.7768 114.0826,63.6668 L113.2166,62.6598 C111.8286,63.4668 110.4416,64.6098 111.4116,65.7338 C111.8236,66.2128 112.3466,66.3568 112.8496,66.2628 C112.8986,66.2548 112.9476,66.2428 112.9966,66.2288 C113.1576,66.1898 113.3196,66.1178 113.4666,66.0298 L113.4666,66.0298 Z M115.7936,63.5038 C116.2226,64.0078 116.6696,64.4818 117.1076,64.8208 L115.9586,65.5148 L115.2316,64.8438 L115.1836,64.8698 C115.1946,65.5628 114.8046,66.4168 113.8086,67.0058 C113.5286,67.1768 113.2456,67.2988 112.9686,67.3758 C112.8886,67.3978 112.8086,67.4158 112.7296,67.4308 C111.7106,67.6198 110.7856,67.2448 110.2526,66.6188 C109.0506,65.2118 109.8746,63.5388 112.5596,61.9498 L112.4546,61.8318 C112.1306,61.4568 111.5186,60.9078 110.6016,61.0778 C110.5426,61.0888 110.4826,61.1028 110.4206,61.1198 C110.2016,61.1778 109.9766,61.2798 109.7196,61.4298 C109.0736,61.8168 108.5526,62.3848 108.2906,62.9488 L107.4046,62.4268 C107.7096,61.7608 108.3606,61.0648 109.2366,60.5328 C109.6326,60.2968 110.0136,60.1318 110.3736,60.0298 C110.4706,60.0038 110.5666,59.9818 110.6596,59.9648 C112.0696,59.7018 113.1556,60.4398 113.9176,61.3278 L115.7936,63.5038 Z" id="Fill-12" fill="#FFFFFF"></path>
                    <path d="M106.2283,70.1138 C107.0053,69.6518 107.3573,68.8228 107.0513,67.9778 C106.9653,67.7618 106.8223,67.5398 106.6633,67.3548 L105.7603,66.3118 C105.6023,66.1348 105.4623,65.9898 105.2783,65.8788 C104.7503,65.5408 104.0683,65.3728 103.3943,65.4978 C103.3253,65.5108 103.2553,65.5268 103.1863,65.5468 C102.9753,65.6028 102.7563,65.6948 102.5553,65.8178 C101.3513,66.5398 101.2243,67.9198 102.3823,69.2658 C103.1523,70.1458 104.2363,70.6658 105.3123,70.4658 C105.3823,70.4528 105.4533,70.4358 105.5243,70.4168 C105.7603,70.3548 105.9953,70.2518 106.2283,70.1138 L106.2283,70.1138 Z M109.3073,68.2458 C110.4583,69.5678 110.8483,70.5858 110.6083,71.4888 C110.3853,72.4228 109.5633,73.1848 108.6913,73.6988 C108.1653,74.0198 107.5503,74.2888 106.9613,74.4498 C106.8183,74.4908 106.6753,74.5238 106.5353,74.5508 C106.3393,74.5868 106.1493,74.6088 105.9663,74.6178 L105.5923,73.6228 C105.7793,73.6088 105.9873,73.5858 106.2073,73.5448 C106.3443,73.5188 106.4863,73.4868 106.6303,73.4468 C107.0763,73.3208 107.5563,73.1288 108.0243,72.8528 C109.3113,72.0728 109.7623,70.9508 108.5053,69.4758 L107.9573,68.8318 C107.9943,69.6228 107.6283,70.4978 106.5573,71.1428 C106.2543,71.3278 105.9373,71.4558 105.6103,71.5508 C105.5053,71.5798 105.4003,71.6028 105.2933,71.6238 C103.8273,71.8958 102.2273,71.3198 101.1683,70.0848 C99.4683,68.1168 100.0393,66.0798 101.6223,65.1248 C101.9483,64.9268 102.2633,64.7908 102.5753,64.7068 C102.6653,64.6818 102.7553,64.6628 102.8443,64.6458 C103.5613,64.5118 104.1963,64.6298 104.6543,64.8268 L103.9833,63.9048 L105.0843,63.2358 C105.4213,63.6718 105.8003,64.1588 106.4013,64.8628 L109.3073,68.2458 Z" id="Fill-14" fill="#FFFFFF"></path>
                    <path d="M95.1385,70.1753 C93.8665,70.9443 94.1485,72.2653 94.6755,73.0603 L98.3655,70.8463 C97.9135,70.2973 97.0255,69.6533 95.9625,69.8503 C95.9015,69.8623 95.8385,69.8763 95.7765,69.8943 C95.5745,69.9483 95.3555,70.0403 95.1385,70.1753 M101.0915,72.9573 L101.9525,73.5863 C101.6645,74.0183 101.0665,74.6703 99.9625,75.3303 C99.5215,75.6013 99.0665,75.7883 98.6205,75.9143 C98.4895,75.9503 98.3585,75.9813 98.2275,76.0053 C96.6575,76.2973 95.1415,75.7343 94.0365,74.4573 C92.5315,72.7023 92.5615,70.5773 94.5875,69.3593 C94.9465,69.1473 95.2935,68.9963 95.6315,68.9073 C95.7325,68.8793 95.8315,68.8573 95.9315,68.8383 C97.6275,68.5233 99.0715,69.5283 99.8025,70.3813 C99.9885,70.5953 100.1115,70.7793 100.1885,70.8933 L95.3205,73.8233 C96.1935,74.8043 97.2235,75.0713 98.1955,74.8903 C98.2885,74.8723 98.3825,74.8513 98.4745,74.8253 C98.8035,74.7383 99.1255,74.5933 99.4305,74.4163 C100.3295,73.8713 100.7625,73.4043 101.0915,72.9573" id="Fill-17" fill="#FFFFFF"></path>
                    <path d="M139.4529,72.2642 C140.3519,71.7192 140.5149,70.8992 140.2819,70.2822 C140.2439,70.1432 140.1629,70.0122 140.0679,69.9012 L139.1919,68.8882 C137.8039,69.6952 136.4159,70.8372 137.3979,71.9682 C137.8089,72.4472 138.3329,72.5912 138.8349,72.4972 C138.8849,72.4892 138.9329,72.4772 138.9819,72.4632 C139.1409,72.4162 139.3049,72.3522 139.4529,72.2642 L139.4529,72.2642 Z M141.7679,69.7312 C142.2059,70.2332 142.6529,70.7072 143.0849,71.0572 L141.9449,71.7492 L141.2149,71.0702 L141.1679,71.0962 C141.1689,71.7902 140.7879,72.6432 139.7939,73.2402 C139.5149,73.4112 139.2319,73.5332 138.9629,73.6092 C138.8839,73.6302 138.8049,73.6482 138.7259,73.6622 C137.7059,73.8522 136.7779,73.4692 136.2359,72.8452 C135.0339,71.4382 135.8599,69.7732 138.5439,68.1752 L138.4379,68.0582 C138.1209,67.6792 137.4989,67.1352 136.5719,67.3072 C136.5169,67.3182 136.4619,67.3302 136.4049,67.3462 C136.1869,67.4112 135.9509,67.5072 135.7119,67.6552 C135.0569,68.0422 134.5359,68.6122 134.2749,69.1752 L133.3889,68.6532 C133.6959,67.9952 134.3439,67.2912 135.2119,66.7602 C135.6079,66.5242 135.9879,66.3592 136.3509,66.2652 C136.4529,66.2372 136.5529,66.2142 136.6499,66.1962 C138.0509,65.9352 139.1359,66.6782 139.9039,67.5622 L141.7679,69.7312 Z" id="Fill-19" fill="#FFFFFF"></path>
                    <polygon id="Fill-21" fill="#FFFFFF" points="113.4803 75.9331 120.8193 84.4661 119.5613 85.2241 112.2133 76.6921"></polygon>
                    <path d="M121.1248,76.4097 C119.8498,77.1707 120.1428,78.4977 120.6698,79.2927 L124.3488,77.0717 C123.8998,76.5307 123.0188,75.8867 121.9568,76.0837 C121.8958,76.0947 121.8338,76.1087 121.7708,76.1267 C121.5598,76.1817 121.3408,76.2747 121.1248,76.4097 M127.0838,79.1817 L127.9448,79.8107 C127.6398,80.2457 127.0498,80.8957 125.9458,81.5557 C125.5048,81.8267 125.0518,82.0227 124.6058,82.1487 C124.4808,82.1817 124.3558,82.2117 124.2308,82.2347 C122.6528,82.5277 121.1288,81.9647 120.0208,80.6827 C118.5058,78.9307 118.5468,76.8107 120.5628,75.5867 C120.9208,75.3747 121.2708,75.2317 121.6058,75.1357 C121.7068,75.1077 121.8078,75.0847 121.9068,75.0657 C123.6118,74.7497 125.0558,75.7537 125.7858,76.6067 C125.9798,76.8197 126.0868,77.0067 126.1718,77.1197 L121.3038,80.0507 C122.1758,81.0397 123.2208,81.3017 124.2018,81.1187 C124.2888,81.1017 124.3748,81.0827 124.4608,81.0597 C124.7958,80.9637 125.1088,80.8187 125.4228,80.6397 C126.3128,80.0977 126.7478,79.6387 127.0838,79.1817" id="Fill-23" fill="#FFFFFF"></path>
                    <path d="M132.2137,76.3482 C132.9897,75.8772 133.3407,75.0482 133.0287,74.2132 C132.9487,73.9892 132.7977,73.7682 132.6407,73.5902 L131.7457,72.5462 C131.5867,72.3622 131.4387,72.2172 131.2537,72.1062 C130.7267,71.7692 130.0477,71.6082 129.3757,71.7332 C129.3047,71.7452 129.2347,71.7622 129.1637,71.7822 C128.9527,71.8382 128.7427,71.9292 128.5407,72.0522 C127.3367,72.7742 127.2077,74.1462 128.3667,75.4932 C129.1297,76.3812 130.2137,76.9012 131.3037,76.6992 C131.3747,76.6852 131.4467,76.6682 131.5187,76.6492 C131.7557,76.5882 131.9887,76.4842 132.2137,76.3482 L132.2137,76.3482 Z M135.2907,74.4712 C136.4467,75.8102 136.8317,76.8122 136.5847,77.7242 C136.3717,78.6572 135.5477,79.4112 134.6687,79.9352 C134.1587,80.2522 133.5517,80.5112 132.9617,80.6722 C132.8157,80.7142 132.6687,80.7482 132.5257,80.7752 C132.3257,80.8122 132.1327,80.8342 131.9497,80.8432 L131.5767,79.8492 C131.7537,79.8402 131.9477,79.8182 132.1537,79.7802 C132.3027,79.7512 132.4557,79.7162 132.6137,79.6732 C133.0597,79.5472 133.5407,79.3552 134.0077,79.0792 C135.2887,78.3092 135.7457,77.1762 134.4887,75.7022 L133.9317,75.0592 C133.9777,75.8492 133.6037,76.7252 132.5317,77.3702 C132.2307,77.5552 131.9147,77.6912 131.5857,77.7792 C131.4807,77.8072 131.3747,77.8312 131.2687,77.8512 C129.8097,78.1222 128.2117,77.5542 127.1467,76.3202 C125.4517,74.3432 126.0227,72.3062 127.6137,71.3492 C127.9317,71.1532 128.2487,71.0252 128.5497,70.9352 C128.6397,70.9112 128.7287,70.8912 128.8157,70.8742 C129.5397,70.7402 130.1737,70.8652 130.6397,71.0612 L129.9667,70.1302 L131.0697,69.4702 C131.4067,69.9062 131.7837,70.3852 132.3877,71.0972 L135.2907,74.4712 Z" id="Fill-25" fill="#FFFFFF"></path>
                    <path d="M110.5721,82.7573 C109.3001,83.5263 109.5911,84.8453 110.1171,85.6403 L113.8041,83.4183 C113.3481,82.8833 112.4611,82.2363 111.3981,82.4333 C111.3421,82.4443 111.2851,82.4573 111.2261,82.4723 C111.0181,82.5363 110.8001,82.6293 110.5721,82.7573 M116.5341,85.5373 L117.3931,86.1583 C117.1071,86.5983 116.5091,87.2503 115.4051,87.9103 C114.9551,88.1833 114.5021,88.3783 114.0541,88.4963 C113.9231,88.5323 113.7921,88.5633 113.6611,88.5873 C112.0911,88.8793 110.5751,88.3163 109.4701,87.0393 C107.9631,85.2773 108.0031,83.1573 110.0211,81.9413 C110.3791,81.7293 110.7271,81.5783 111.0621,81.4823 C111.1641,81.4533 111.2641,81.4313 111.3641,81.4123 C113.0681,81.0953 114.5111,82.1003 115.2431,82.9533 C115.4281,83.1673 115.5511,83.3513 115.6221,83.4753 L110.7541,86.4053 C111.6341,87.3793 112.6681,87.6513 113.6411,87.4693 C113.7341,87.4523 113.8261,87.4313 113.9171,87.4053 C114.2461,87.3193 114.5681,87.1733 114.8701,86.9883 C115.7721,86.4513 116.2071,85.9933 116.5341,85.5373" id="Fill-27" fill="#FFFFFF"></path>
                    <path d="M104.7,93.0161 C107.361,91.4061 107.727,89.2871 105.849,87.1031 C104.693,85.7461 103.189,85.1301 101.476,85.4491 C101.327,85.4771 101.177,85.5111 101.023,85.5531 C100.452,85.7111 99.852,85.9681 99.249,86.3381 C98.603,86.7241 98.163,87.0641 97.881,87.3231 L103.379,93.7081 C103.74,93.5731 104.21,93.3051 104.7,93.0161 M107.117,86.2841 C108.259,87.5991 108.701,88.9761 108.439,90.2611 C108.193,91.5691 107.05,92.8711 105.179,94.0001 C104.286,94.5361 103.514,94.9531 102.83,95.2611 L95.973,87.2991 C96.653,86.7441 97.49,86.1331 98.475,85.5371 C99.376,84.9931 100.223,84.6201 101.014,84.4051 C101.213,84.3511 101.408,84.3061 101.6,84.2701 C102.179,84.1621 102.731,84.1371 103.256,84.1951 C104.681,84.3411 105.987,84.9741 107.117,86.2841" id="Fill-29" fill="#FFFFFF"></path>
                    <path d="M140.0193,61.5405 L141.4553,63.2055 L143.2653,62.1215 L143.9503,62.9305 L142.1483,64.0125 L144.8503,67.1485 C145.3313,67.7105 145.7983,67.9895 146.3133,67.8945 C146.3413,67.8885 146.3703,67.8825 146.3983,67.8745 C146.5143,67.8355 146.6373,67.7875 146.7613,67.7125 C147.0953,67.5135 147.3073,67.3275 147.4353,67.2015 L148.1683,67.9575 C148.0043,68.1855 147.6613,68.4805 147.1813,68.7755 C146.9323,68.9255 146.6813,69.0325 146.4383,69.1025 C146.3743,69.1195 146.3123,69.1345 146.2483,69.1445 C145.9683,69.1975 145.6953,69.2005 145.4363,69.1445 C144.8133,69.0535 144.2393,68.6105 143.6423,67.9235 L140.9223,64.7545 L139.8513,65.3995 L139.1503,64.5955 L140.2213,63.9495 L139.0323,62.5575 L140.0193,61.5405 Z" id="Fill-31" fill="#FFFFFF"></path>
                    <path d="M155.3191,54.9995 C155.4771,54.9695 155.6271,54.9505 155.7601,54.9405 L156.1061,55.8975 C155.9721,55.9055 155.8071,55.9245 155.6221,55.9585 C155.5231,55.9775 155.4181,55.9995 155.3091,56.0285 C155.0231,56.1075 154.7031,56.2285 154.3921,56.4145 C153.6561,56.8595 153.5521,57.4715 153.9261,57.9085 C154.2791,58.3185 154.7721,58.3535 155.6201,58.1955 C155.7641,58.1695 155.9211,58.1365 156.0881,58.0995 C156.2021,58.0735 156.3131,58.0505 156.4221,58.0295 C157.7761,57.7785 158.7291,57.9575 159.4201,58.7585 C160.2981,59.7795 159.9741,61.0675 158.3201,62.0615 C157.8551,62.3455 157.3591,62.5495 156.8801,62.6815 C156.7431,62.7195 156.6091,62.7505 156.4771,62.7745 C156.3251,62.8035 156.1771,62.8215 156.0341,62.8305 L155.6601,61.8355 C155.8411,61.8285 156.0551,61.8065 156.2831,61.7635 C156.4161,61.7385 156.5521,61.7075 156.6911,61.6695 C157.0291,61.5805 157.3801,61.4385 157.6831,61.2615 C158.6001,60.7135 158.6951,60.0695 158.2791,59.5795 C157.9041,59.1385 157.3931,59.0385 156.4831,59.2075 C156.3551,59.2305 156.2181,59.2605 156.0731,59.2945 C155.9411,59.3265 155.8121,59.3535 155.6871,59.3775 C154.3251,59.6305 153.3751,59.3855 152.8181,58.7495 C152.0161,57.8095 152.2621,56.5015 153.7451,55.6075 C154.1471,55.3605 154.5711,55.1875 154.9661,55.0795 C155.0861,55.0475 155.2051,55.0205 155.3191,54.9995" id="Fill-33" fill="#FFFFFF"></path>
                    <path d="M147.7762,60.3569 C146.5012,61.1179 146.7862,62.4459 147.3302,63.2379 L151.0002,61.0189 C150.5512,60.4779 149.6622,59.8349 148.6072,60.0309 C148.5472,60.0419 148.4842,60.0559 148.4222,60.0739 C148.2112,60.1289 147.9922,60.2219 147.7762,60.3569 M153.7262,63.1299 L154.5962,63.7579 C154.2992,64.1909 153.7012,64.8429 152.5972,65.5029 C152.1562,65.7739 151.7032,65.9699 151.2582,66.0949 C151.1322,66.1289 151.0072,66.1579 150.8822,66.1809 C149.3042,66.4749 147.7812,65.9119 146.6812,64.6279 C145.1662,62.8769 145.2052,60.7489 147.2222,59.5329 C147.5812,59.3199 147.9282,59.1699 148.2662,59.0809 C148.3672,59.0529 148.4662,59.0299 148.5662,59.0109 C150.2632,58.6959 151.7072,59.7009 152.4372,60.5539 C152.6242,60.7689 152.7472,60.9519 152.8232,61.0669 L147.9632,63.9959 C148.8292,64.9779 149.8652,65.2429 150.8322,65.0629 C150.9252,65.0449 151.0182,65.0239 151.1102,64.9989 C151.4472,64.9109 151.7692,64.7639 152.0652,64.5889 C152.9732,64.0429 153.4062,63.5759 153.7262,63.1299" id="Fill-35" fill="#FFFFFF"></path>
                </g>
            </g>
        </g>
    </g>
</svg>