<svg xmlns="http://www.w3.org/2000/svg" width="253" height="154" viewBox="0 0 253 154">
    <g fill="none" fill-rule="evenodd">
        <path fill="#576DA2" d="M.305 73.94v7.153l126.126 72.818v-7.152z"/>
        <path fill="#799ADF" d="M126.432 153.91l126.123-72.817V73.94l-126.123 72.82z"/>
        <path fill="#3F4A80" d="M227.413 59.197L127.727.74v.12L25.729 59.36.306 73.94l126.126 72.82 126.123-72.82z"/>
        <path fill="#FFF" d="M95.5 70.623c-1.273.77-.982 2.088-.457 2.875l3.681-2.213c-.449-.54-1.33-1.185-2.391-.988a2.336 2.336 0 0 0-.833.326m5.962 2.78l.861.63c-.299.424-.896 1.084-1.999 1.744a5.613 5.613 0 0 1-1.342.585 4.664 4.664 0 0 1-.394.091c-1.569.292-3.086-.27-4.19-1.549-1.508-1.76-1.467-3.88.56-5.098a4.247 4.247 0 0 1 1.032-.458c.101-.029.202-.052.302-.07 1.704-.317 3.147.688 3.878 1.541.186.214.3.4.379.522l-4.867 2.93c.872.975 1.912 1.246 2.88 1.066a3.572 3.572 0 0 0 1.236-.483c.9-.545 1.326-1.002 1.664-1.45M85.086 72.482l6.217 7.222 4.12-2.492.76.88-5.375 3.232-6.965-8.096zM113.826 66.47c.902-.537 1.072-1.367.838-1.984a1.028 1.028 0 0 0-.22-.371l-.857-1.008c-1.4.8-2.784 1.95-1.814 3.075.412.478.942.622 1.44.529a1.753 1.753 0 0 0 .613-.241zm2.33-2.52c.428.505.876.98 1.313 1.319l-1.15.686-.73-.672-.044.035c.008.685-.381 1.539-1.375 2.135a3.255 3.255 0 0 1-1.095.42c-1.004.189-1.924-.193-2.463-.814-1.203-1.407-.376-3.072 2.307-4.67l-.105-.117c-.316-.377-.925-.918-1.841-.748a2.687 2.687 0 0 0-.886.344c-.642.395-1.173.965-1.434 1.529l-.89-.53c.309-.658.957-1.362 1.835-1.886a4.454 4.454 0 0 1 1.138-.503c.097-.027.193-.05.287-.067 1.408-.261 2.492.469 3.255 1.357l1.878 2.183zM113.299 54.834l7.345 8.522-1.266.76-7.337-8.525zM106.598 70.56c.767-.47 1.12-1.29.815-2.134a2.238 2.238 0 0 0-.389-.623l-.905-1.051c-.155-.17-.297-.322-.482-.434a2.62 2.62 0 0 0-1.87-.374c-.07.013-.14.029-.21.049-.22.057-.43.148-.64.273-1.205.722-1.325 2.092-.175 3.44.771.888 1.855 1.408 2.931 1.208.071-.014.142-.03.212-.05a2.7 2.7 0 0 0 .713-.304zm3.07-1.866c1.152 1.322 1.541 2.34 1.31 3.24-.23.937-1.055 1.69-1.925 2.213a6.947 6.947 0 0 1-1.73.75 6.7 6.7 0 0 1-.424.097 3.585 3.585 0 0 1-.565.062l-.382-.993c.195-.01.404-.035.626-.076.133-.026.271-.056.414-.092a5.5 5.5 0 0 0 1.391-.602c1.29-.772 1.747-1.904.484-3.37l-.55-.652c.044.79-.327 1.675-1.399 2.32-.304.177-.62.313-.949.4-.109.03-.22.056-.33.077-1.456.27-3.055-.305-4.11-1.544-1.7-1.96-1.132-4.004.461-4.961a3.86 3.86 0 0 1 1.235-.475 3.224 3.224 0 0 1 1.796.177l-.67-.923 1.101-.668c.331.446.71.933 1.311 1.637l2.905 3.383zM105.37 93.338c.85-.5 1.216-1.437.768-2.375a2.814 2.814 0 0 0-.342-.485l-.866-1.006a2.818 2.818 0 0 0-.438-.408 2.643 2.643 0 0 0-2.24-.409 2.8 2.8 0 0 0-.64.274c-1.296.782-1.245 2.215-.138 3.503.797.917 1.899 1.46 3 1.254a2.654 2.654 0 0 0 .897-.348zm2.492-2.687c.442.52.964 1.1 1.346 1.467l-1.131.691-.922-.979c.138.893-.283 1.9-1.407 2.58-.287.173-.603.31-.93.404a4.27 4.27 0 0 1-.302.07c-1.462.27-3.106-.284-4.267-1.64-1.69-1.927-1.277-3.978.407-4.995a3.728 3.728 0 0 1 1.277-.493c.604-.112 1.154-.046 1.58.124l-2.961-3.492 1.257-.757 6.053 7.02zM131.06 77.704c.767-.469 1.126-1.3.815-2.135a2.055 2.055 0 0 0-.388-.623l-.894-1.044a2.155 2.155 0 0 0-.493-.44 2.65 2.65 0 0 0-1.874-.374 2.503 2.503 0 0 0-.838.32c-1.214.724-1.326 2.092-.175 3.441.767.893 1.858 1.414 2.948 1.21a2.81 2.81 0 0 0 .197-.044 3.15 3.15 0 0 0 .702-.31zm3.08-1.868c1.154 1.33 1.54 2.34 1.3 3.243-.222.934-1.047 1.688-1.924 2.212a7.169 7.169 0 0 1-1.722.75 6.34 6.34 0 0 1-.428.095c-.198.037-.39.06-.57.063l-.373-.994c.178-.009.371-.03.577-.069.149-.029.303-.064.46-.108.448-.117.92-.307 1.385-.592 1.29-.77 1.745-1.912.493-3.37l-.56-.65c.046.788-.326 1.673-1.397 2.318a3.833 3.833 0 0 1-1.267.473c-1.459.271-3.056-.297-4.121-1.53-1.701-1.968-1.124-4.015.46-4.97.326-.19.642-.326.945-.408a3.144 3.144 0 0 1 2.087.118l.032-.023-.696-.91 1.102-.668c.328.438.7.935 1.313 1.645l2.904 3.375zM119.969 77.757c-1.271.777-.98 2.097-.455 2.883l3.672-2.21c-.448-.542-1.337-1.185-2.392-.989a2.68 2.68 0 0 0-.825.316m5.955 2.79l.87.628c-.307.427-.895 1.085-2 1.745a5.248 5.248 0 0 1-1.743.677c-1.57.292-3.078-.274-4.184-1.558-1.514-1.753-1.465-3.873.545-5.088a4.451 4.451 0 0 1 1.04-.46c.102-.027.203-.05.302-.069 1.704-.316 3.148.688 3.887 1.54.186.214.292.4.38.522l-4.868 2.93c.872.975 1.905 1.246 2.879 1.066.092-.018.184-.039.275-.064.336-.097.66-.234.962-.42.9-.545 1.326-1.001 1.655-1.449M109.43 84.12c-1.284.762-.993 2.081-.464 2.884l3.687-2.222c-.456-.54-1.338-1.184-2.392-.988a2.362 2.362 0 0 0-.832.326m5.951 2.773l.861.63c-.296.433-.887 1.083-1.99 1.743a5.317 5.317 0 0 1-1.348.594 4.581 4.581 0 0 1-.374.086c-1.572.292-3.104-.269-4.212-1.55-1.506-1.755-1.468-3.882.55-5.099a4.083 4.083 0 0 1 1.345-.52c1.704-.317 3.14.69 3.88 1.54.185.215.3.4.376.514l-4.868 2.931c.881.98 1.912 1.245 2.884 1.064.093-.018.187-.039.28-.064a3.93 3.93 0 0 0 .955-.41c.9-.544 1.332-1.01 1.661-1.459M112.33 77.298l7.335 8.524-1.255.766-7.348-8.531zM146.622 61.713c-1.272.77-.99 2.09-.448 2.872l3.672-2.21c-.449-.54-1.337-1.184-2.392-.988a2.397 2.397 0 0 0-.832.326m5.951 2.773l.87.628c-.297.433-.896 1.085-1.997 1.753a5.57 5.57 0 0 1-1.342.584 4.68 4.68 0 0 1-.378.087c-1.577.293-3.097-.264-4.2-1.56-1.513-1.746-1.475-3.873.545-5.08a4.08 4.08 0 0 1 1.042-.46c.1-.029.2-.052.3-.07 1.697-.316 3.148.688 3.871 1.542.194.213.31.398.388.521l-4.862 2.921c.867.983 1.9 1.256 2.873 1.075a3.794 3.794 0 0 0 1.229-.482c.908-.546 1.334-1.003 1.661-1.459M154.17 56.354a4.31 4.31 0 0 1 .437-.057l.347.966a3.57 3.57 0 0 0-1.704.514c-.746.448-.849 1.059-.486 1.489.361.42.874.445 1.76.28.13-.023.267-.051.412-.083.116-.026.23-.05.34-.07 1.352-.251 2.3-.078 2.981.724.88 1.02.563 2.307-1.09 3.3a5.724 5.724 0 0 1-1.875.72c-.14.027-.277.046-.41.058l-.374-.995c.174-.006.382-.031.603-.072.134-.025.272-.055.412-.091a4.106 4.106 0 0 0 1.006-.42c.918-.547 1.012-1.191.6-1.672-.383-.448-.904-.545-1.84-.371-.118.022-.24.048-.369.077-.134.032-.264.06-.39.084-1.354.25-2.307.013-2.857-.631-.809-.931-.565-2.246.918-3.141a5.185 5.185 0 0 1 1.23-.528c.12-.033.237-.06.35-.081M138.865 62.897l1.438 1.673 1.81-1.092.683.809-1.79 1.089 2.682 3.13c.48.563.948.84 1.463.745.028-.004.056-.011.085-.018.125-.041.247-.09.37-.172.336-.191.541-.367.673-.512l.736.765c-.164.228-.508.523-.987.818a2.833 2.833 0 0 1-.97.372c-.267.05-.528.05-.776-.004-.622-.09-1.206-.532-1.793-1.22l-2.727-3.16-1.07.646-.694-.806 1.072-.646-1.2-1.398.995-1.02zM138.3 73.62c.898-.545 1.06-1.373.837-1.984a1.488 1.488 0 0 0-.222-.379l-.866-1.007c-1.399.801-2.784 1.951-1.805 3.074.417.484.956.625 1.461.531.042-.007.084-.016.126-.028.168-.048.32-.119.468-.207zm2.317-2.525c.43.504.885.977 1.314 1.318l-1.142.685-.728-.672-.045.034c0 .686-.39 1.54-1.376 2.136a3.28 3.28 0 0 1-1.095.42c-1.004.187-1.924-.195-2.462-.815-1.212-1.406-.385-3.07 2.306-4.67l-.105-.117c-.316-.377-.933-.917-1.849-.746a2.665 2.665 0 0 0-.886.345c-.634.392-1.173.964-1.426 1.526l-.888-.53c.298-.657.955-1.363 1.825-1.884a4.573 4.573 0 0 1 1.137-.504c.098-.026.195-.049.29-.066 1.414-.263 2.49.468 3.252 1.357l1.878 2.183z"/>
    </g>
</svg>
