<svg xmlns="http://www.w3.org/2000/svg" width="194" height="127" viewBox="0 0 194 127">
    <g fill="none" fill-rule="evenodd">
        <path fill="#576DA2" d="M164.992 17.704c-37.618-23.57-98.61-23.57-136.228 0C9.935 29.504.534 44.97.552 60.431V66.402c-.018 15.46 9.383 30.922 28.212 42.718 37.618 23.57 98.606 23.57 136.228 0 18.83-11.799 28.228-27.267 28.206-42.732V60.431c.022-15.462-9.377-30.929-28.206-42.727"/>
        <path fill="#38619D" d="M164.992 103.066c-37.622 23.569-98.61 23.569-136.228 0-37.618-23.572-37.618-61.79 0-85.361 37.618-23.572 98.61-23.572 136.228 0 37.62 23.572 37.616 61.786 0 85.36"/>
        <path fill="#FFF" d="M79.37 71.1c1.327-.804 1.642-1.927.853-2.853-.58-.677-1.334-.878-2.153-.726a3.176 3.176 0 0 0-.258.059 4.653 4.653 0 0 0-1.114.49c-.606.36-.991.674-1.144.84l2.542 2.952 1.275-.761m4.813.255c1.282.938 2.182 1.578 2.65 1.766l-1.285.788c-.355-.14-1.173-.71-2.311-1.554-.877-.668-1.576-.916-2.328-.776a2.731 2.731 0 0 0-.191.042 4.172 4.172 0 0 0-.771.325l-1.172.707 3.02 3.507-1.25.748-6.871-7.986c.536-.485 1.383-1.09 2.244-1.61.714-.433 1.34-.721 1.93-.882.126-.034.25-.062.372-.086a3.798 3.798 0 0 1 1.057-.051 3.076 3.076 0 0 1 2.08 1.08c.92 1.075.734 2.268-.032 3.166l.028.038c.052-.013.104-.025.157-.035.88-.164 1.772.146 2.673.813M89.566 59.188l6.965 8.097-1.243.746-6.965-8.097zM99.868 52.783l2.237 3.026-.767.47-2.713-2.75zM97.78 54.244l.762.89-2.95 1.775 6.212 7.206-1.268.75-6.202-7.199-2.935 1.765-.761-.889zM86.492 61.038l.756.873-3.965 2.394 2.199 2.561 3.749-2.26.746.867-3.741 2.256 2.505 2.917 4.178-2.51.757.872-5.42 3.264-6.981-8.092zM107.331 52.124c.132-.024.26-.042.38-.05l.344.956a4.195 4.195 0 0 0-.806.133 3.47 3.47 0 0 0-.899.381c-.743.456-.857 1.061-.475 1.496.353.407.846.445 1.707.285.142-.026.292-.057.455-.094.102-.022.201-.043.298-.06 1.37-.255 2.337-.089 3.023.713.881 1.03.557 2.317-1.089 3.31a5.669 5.669 0 0 1-1.872.72c-.14.025-.275.044-.403.055l-.392-.992a4.11 4.11 0 0 0 .573-.068c.151-.028.307-.064.466-.108.346-.09.687-.23.991-.407.915-.557 1.012-1.193.598-1.673-.389-.448-.897-.546-1.843-.37a6.787 6.787 0 0 0-.373.078 9.505 9.505 0 0 1-.383.082c-1.35.251-2.306.007-2.853-.623-.81-.94-.567-2.255.916-3.149a4.862 4.862 0 0 1 1.223-.519c.143-.039.282-.072.414-.096"/>
    </g>
</svg>
