<?xml version="1.0" encoding="UTF-8"?>
<svg width="253px" height="153px" viewBox="0 0 253 153" version="1.1" xmlns="http://www.w3.org/2000/svg" xmlns:xlink="http://www.w3.org/1999/xlink">
    <!-- Generator: Sketch 47.1 (45422) - http://www.bohemiancoding.com/sketch -->
    <title>Group</title>
    <desc>Created with Sketch.</desc>
    <defs>
        <polygon id="path-1" points="1.35525272e-20 0.0308 1.35525272e-20 79.9998 126.1258 79.9998 126.1258 0.0308"></polygon>
        <polygon id="path-3" points="63.18765 80 126.249 80 126.249 0.031 0.1263 0.031 0.1263 80 63.18765 80"></polygon>
    </defs>
    <g id="Page-1" stroke="none" stroke-width="1" fill="none" fill-rule="evenodd">
        <g id="Compliance-Template-Repository" transform="translate(-30.000000, -10.000000)">
            <g id="Group" transform="translate(30.000000, 10.000000)">
                <g id="Group-7" transform="translate(0.000000, 73.169000)">
                    <g id="Group-3">
                        <mask id="mask-2" fill="white">
                            <use xlink:href="#path-1"></use>
                        </mask>
                        <g id="Clip-2"></g>
                        <polygon id="Fill-1" fill="#576DA2" mask="url(#mask-2)" points="-0.0002 0.0308 -0.0002 7.1828 126.1258 79.9998 126.1258 72.8488"></polygon>
                    </g>
                    <g id="Group-6" transform="translate(126.000000, 0.000000)">
                        <mask id="mask-4" fill="white">
                            <use xlink:href="#path-3"></use>
                        </mask>
                        <g id="Clip-5"></g>
                        <polygon id="Fill-4" fill="#7C99CE" mask="url(#mask-4)" points="0.1263 80 126.2493 7.183 126.2493 0.031 0.1263 72.849"></polygon>
                    </g>
                </g>
                <polygon id="Fill-8" fill="#5262A4" points="127.4211 -0.0002 127.4211 0.1198 25.4231 58.6188 0.0001 73.1998 126.1261 146.0188 252.2491 73.1998 227.1071 58.4568"></polygon>
                <path d="M89.1175,76.0948 C90.3105,75.3668 90.3995,73.8828 89.2695,72.5728 C88.5825,71.7638 87.3595,71.0228 86.1195,71.2528 C86.0545,71.2648 85.9885,71.2808 85.9225,71.2988 C85.7045,71.3648 85.4945,71.4548 85.2755,71.5818 C83.7845,72.4768 84.1385,74.0248 85.0945,75.1258 C85.9485,76.1338 87.1875,76.6088 88.2745,76.4068 C88.3475,76.3938 88.4205,76.3768 88.4925,76.3568 C88.7125,76.2988 88.9225,76.2088 89.1175,76.0948 M90.5285,71.7558 C92.3775,73.9008 91.4125,75.9168 89.7415,76.9148 C89.3705,77.1468 88.9735,77.3148 88.5695,77.4248 C88.4445,77.4588 88.3185,77.4878 88.1925,77.5108 C86.6555,77.7968 85.0165,77.2848 83.8475,75.9248 C82.1705,73.9788 82.6995,71.9228 84.6195,70.7768 C85.0155,70.5398 85.4195,70.3618 85.8325,70.2508 C85.9595,70.2148 86.0875,70.1858 86.2155,70.1618 C87.7815,69.8708 89.3945,70.4348 90.5285,71.7558" id="Fill-9" fill="#FFFFFF"></path>
                <path d="M78.5081,71.4522 C78.5731,71.4402 78.6331,71.4312 78.6881,71.4242 L79.1181,72.4602 C79.0691,72.4672 79.0191,72.4752 78.9681,72.4842 C78.8291,72.5102 78.6831,72.5452 78.5291,72.5862 C78.0231,72.7232 77.4541,72.9582 76.8861,73.2952 C74.6281,74.6592 74.1711,76.7792 75.9961,78.9032 C77.2391,80.3512 78.8901,80.9852 80.6051,80.6672 C80.7481,80.6402 80.8921,80.6072 81.0351,80.5672 C81.5241,80.4332 82.0171,80.2222 82.5061,79.9252 C83.2601,79.4752 83.9261,78.8712 84.2481,78.3652 L85.2221,79.0422 C84.9241,79.5012 84.1711,80.2502 83.0071,80.9562 C82.4091,81.3162 81.7781,81.5882 81.1481,81.7652 C80.9661,81.8152 80.7821,81.8572 80.5991,81.8912 C78.5021,82.2812 76.3451,81.6402 74.7051,79.7352 C72.5411,77.2022 73.0941,74.2492 76.0911,72.4472 C76.9051,71.9522 77.6101,71.6842 78.1151,71.5472 C78.2641,71.5032 78.3951,71.4732 78.5081,71.4522" id="Fill-11" fill="#FFFFFF"></path>
                <path d="M122.8055,55.8155 C123.7045,55.2705 123.8685,54.4505 123.6355,53.8335 C123.5905,53.7045 123.5155,53.5635 123.4235,53.4605 L122.5495,52.4555 C121.1585,53.2545 119.7715,54.3965 120.7525,55.5275 C121.1695,56.0115 121.6975,56.1475 122.2065,56.0525 C122.2505,56.0445 122.2935,56.0345 122.3375,56.0225 C122.4965,55.9765 122.6575,55.9025 122.8055,55.8155 L122.8055,55.8155 Z M125.1215,53.2815 C125.5525,53.7945 126.0105,54.2755 126.4395,54.6165 L125.2975,55.3005 L124.5695,54.6295 L124.5225,54.6555 C124.5215,55.3415 124.1345,56.2035 123.1485,56.7985 C122.8675,56.9625 122.5845,57.0845 122.3065,57.1615 C122.2275,57.1835 122.1475,57.2015 122.0695,57.2155 C121.0575,57.4035 120.1325,57.0285 119.5915,56.4045 C118.3805,54.9985 119.2065,53.3345 121.8955,51.7275 L121.7905,51.6085 C121.4765,51.2405 120.8575,50.6925 119.9475,50.8615 C119.8885,50.8725 119.8285,50.8865 119.7675,50.9035 C119.5485,50.9615 119.3145,51.0655 119.0665,51.2145 C118.4125,51.6025 117.8845,52.1805 117.6295,52.7345 L116.7435,52.2125 C117.0425,51.5565 117.6985,50.8505 118.5665,50.3195 C118.9715,50.0815 119.3515,49.9165 119.7065,49.8245 C119.8085,49.7965 119.9095,49.7735 120.0085,49.7545 C121.4135,49.4935 122.4885,50.2305 123.2475,51.1155 L125.1215,53.2815 Z" id="Fill-14" fill="#FFFFFF"></path>
                <polygon id="Fill-16" fill="#FFFFFF" points="114.3694 53.0572 119.3734 58.8652 118.1094 59.6332 113.1024 53.8162"></polygon>
                <path d="M98.1414,62.8599 C99.0954,62.6819 100.3694,62.9339 101.6014,64.3749 L104.5464,67.8019 L103.3214,68.5449 L100.4854,65.2519 C99.7334,64.3749 98.9234,63.9559 98.1224,64.1049 C98.0724,64.1139 98.0214,64.1259 97.9714,64.1399 C97.7924,64.1819 97.6144,64.2579 97.4444,64.3669 C96.7314,64.7989 96.5574,65.5789 96.7804,66.2239 C96.8464,66.4009 96.9704,66.6179 97.1314,66.8109 L100.2314,70.4069 L98.9954,71.1429 L95.9974,67.6569 C95.3754,66.9359 94.5894,66.5469 93.8214,66.6899 C93.7704,66.6989 93.7194,66.7109 93.6684,66.7249 C93.4984,66.7649 93.3374,66.8389 93.1834,66.9359 C92.3904,67.4089 92.2774,68.2799 92.5284,68.9279 C92.5914,69.1229 92.7184,69.3219 92.8694,69.5089 L95.8914,73.0159 L94.6624,73.7509 L91.0054,69.5119 C90.4904,68.9209 90.0554,68.4269 89.5944,67.9719 L90.6984,67.3119 L91.5624,68.2149 L91.6094,68.1899 C91.5214,67.4079 91.7154,66.5049 92.8624,65.8019 C93.0864,65.6659 93.3314,65.5689 93.5744,65.4979 C93.6514,65.4769 93.7294,65.4589 93.8074,65.4439 C94.4964,65.3159 95.2204,65.4489 95.8194,65.7929 C95.7964,65.3169 95.8464,64.9039 95.9754,64.5539 C96.1594,64.0389 96.4974,63.6239 97.1554,63.2179 C97.3594,63.1039 97.5994,62.9899 97.8794,62.9209 C97.9634,62.8969 98.0514,62.8769 98.1414,62.8599" id="Fill-18" fill="#FFFFFF"></path>
                <path d="M109.1863,63.9439 C110.5143,63.1479 110.5053,61.7669 109.3513,60.4369 C108.5613,59.5179 107.4043,58.9779 106.3023,59.1829 C106.2333,59.1959 106.1643,59.2119 106.0953,59.2309 C105.8673,59.2899 105.6483,59.3819 105.4323,59.5169 C104.5773,60.0279 104.2193,61.0299 104.6593,61.9699 C104.7303,62.1279 104.8163,62.3099 104.9473,62.4569 L105.8003,63.4489 C105.9363,63.6119 106.0853,63.7299 106.2273,63.8499 C106.8253,64.2659 107.5923,64.4129 108.2993,64.2809 C108.3743,64.2679 108.4493,64.2509 108.5223,64.2299 C108.7573,64.1609 108.9763,64.0689 109.1863,63.9439 M110.5763,59.6249 C112.3643,61.7139 111.7433,63.6659 110.1133,64.6469 C109.8023,64.8339 109.4783,64.9709 109.1433,65.0679 C109.0493,65.0919 108.9553,65.1129 108.8613,65.1309 C108.2913,65.2369 107.7113,65.2109 107.1943,65.0269 L109.8793,68.2009 L108.6453,68.9449 L103.2173,62.6499 C102.5793,61.9099 102.0263,61.3179 101.5373,60.7899 L102.6603,60.1009 L103.5773,61.0639 C103.5113,60.0369 103.9643,59.1199 105.0893,58.4389 C105.3853,58.2639 105.6923,58.1299 106.0213,58.0429 C106.1253,58.0139 106.2303,57.9899 106.3363,57.9699 C107.7833,57.7009 109.4003,58.2679 110.5763,59.6249" id="Fill-20" fill="#FFFFFF"></path>
                <polygon id="Fill-22" fill="#FFFFFF" points="108.6512 52.3775 115.9962 60.9005 114.7412 61.6665 107.3942 53.1355"></polygon>
                <path d="M112.1551,51.0001 C112.5081,50.9341 112.8671,51.0661 113.0981,51.3361 C113.4301,51.6871 113.3561,52.1731 112.8591,52.4711 C112.7731,52.5211 112.6831,52.5551 112.5991,52.5801 C112.5691,52.5881 112.5371,52.5951 112.5071,52.6011 C112.1401,52.6691 111.7731,52.5521 111.5391,52.2791 C111.2191,51.9091 111.3021,51.4211 111.7611,51.1471 C111.8531,51.0871 111.9521,51.0521 112.0531,51.0241 C112.0871,51.0141 112.1211,51.0061 112.1551,51.0001" id="Fill-24" fill="#FFFFFF"></path>
                <path d="M136.2923,40.0689 C136.3343,40.0609 136.3733,40.0549 136.4113,40.0499 L136.8273,41.0369 C136.7313,41.0499 136.6303,41.0639 136.5213,41.0839 C136.4413,41.0989 136.3573,41.1169 136.2683,41.1409 C135.9323,41.2379 135.5503,41.3949 135.1303,41.6449 C133.5473,42.5999 133.5363,44.1039 134.5763,45.3189 C135.4373,46.3109 136.6153,46.6849 137.7273,46.4779 C137.8163,46.4619 137.9053,46.4409 137.9933,46.4169 C138.2883,46.3369 138.5773,46.2059 138.8503,46.0439 C139.5633,45.6109 139.9033,45.1699 140.1433,44.8239 L141.0503,45.4879 C140.8453,45.8269 140.2783,46.4649 139.3463,47.0239 C138.9113,47.2849 138.4643,47.4709 138.0203,47.5969 C137.8873,47.6329 137.7543,47.6639 137.6223,47.6889 C136.0423,47.9819 134.4623,47.4359 133.3433,46.1309 C131.8003,44.3409 132.1423,42.1659 134.4093,40.7999 C134.9383,40.4869 135.4773,40.2759 135.9163,40.1589 C136.0513,40.1219 136.1783,40.0899 136.2923,40.0689" id="Fill-26" fill="#FFFFFF"></path>
                <path d="M127.8103,45.0177 C128.7973,44.8337 130.0783,45.0597 131.2633,46.4327 L134.2573,49.9097 L132.9913,50.6687 L130.1033,47.3167 C129.4763,46.5857 128.6753,46.0987 127.7833,46.2647 C127.7273,46.2747 127.6713,46.2877 127.6153,46.3037 C127.4223,46.3567 127.2283,46.4437 127.0183,46.5687 C126.1963,47.0647 125.9773,47.9467 126.2663,48.6657 C126.3193,48.8277 126.4563,49.0257 126.6043,49.2037 L129.6153,52.7047 L128.3573,53.4617 L124.7003,49.2227 C124.1903,48.6217 123.7493,48.1377 123.2863,47.6747 L124.4153,47.0097 L125.3023,47.9267 L125.3343,47.9117 C125.1983,47.1557 125.5383,46.1227 126.6883,45.4367 C126.9143,45.3007 127.2043,45.1697 127.5243,45.0837 C127.6163,45.0587 127.7113,45.0367 127.8103,45.0177" id="Fill-28" fill="#FFFFFF"></path>
                <path d="M140.802,38.0836 C139.53,38.8526 139.821,40.1716 140.347,40.9666 L144.017,38.7486 C143.567,38.2046 142.682,37.5636 141.621,37.7616 C141.564,37.7716 141.507,37.7846 141.448,37.8006 C141.238,37.8566 141.03,37.9556 140.802,38.0836 M146.756,40.8656 L147.623,41.4856 C147.318,41.9196 146.738,42.5776 145.635,43.2366 C145.182,43.5016 144.73,43.6976 144.284,43.8226 C144.153,43.8586 144.021,43.8896 143.89,43.9136 C142.321,44.2056 140.804,43.6416 139.699,42.3576 C138.184,40.6046 138.233,38.4836 140.251,37.2676 C140.601,37.0566 140.948,36.9066 141.292,36.8086 C141.393,36.7806 141.493,36.7576 141.593,36.7386 C143.289,36.4236 144.733,37.4276 145.472,38.2796 C145.658,38.4946 145.764,38.6806 145.852,38.8016 L140.982,41.7246 C141.856,42.7066 142.889,42.9786 143.863,42.7976 C143.955,42.7806 144.047,42.7596 144.138,42.7336 C144.474,42.6376 144.798,42.5006 145.1,42.3146 C146,41.7706 146.426,41.3126 146.756,40.8656" id="Fill-30" fill="#FFFFFF"></path>
                <path d="M100.8309,84.0465 C99.5479,84.8085 99.8389,86.1285 100.3679,86.9305 L104.0549,84.7095 C103.5989,84.1695 102.7169,83.5245 101.6629,83.7205 C101.6019,83.7325 101.5389,83.7465 101.4769,83.7635 C101.2669,83.8195 101.0469,83.9115 100.8309,84.0465 M106.7819,86.8195 L107.6429,87.4495 C107.3549,87.8805 106.7559,88.5335 105.6529,89.1925 C105.2109,89.4635 104.7589,89.6595 104.3029,89.7785 C104.1719,89.8155 104.0409,89.8455 103.9099,89.8695 C102.3459,90.1605 100.8229,89.5985 99.7189,88.3215 C98.2099,86.5595 98.2509,84.4405 100.2689,83.2235 C100.6269,83.0115 100.9749,82.8605 101.3129,82.7725 C101.4139,82.7445 101.5149,82.7215 101.6139,82.7035 C103.3179,82.3865 104.7619,83.3905 105.4929,84.2445 C105.6769,84.4505 105.8019,84.6415 105.8779,84.7565 L101.0019,87.6885 C101.8829,88.6685 102.9139,88.9335 103.8859,88.7535 C103.9789,88.7355 104.0729,88.7135 104.1649,88.6885 C104.4939,88.6015 104.8159,88.4565 105.1179,88.2715 C106.0199,87.7345 106.4549,87.2755 106.7819,86.8195" id="Fill-32" fill="#FFFFFF"></path>
                <polygon id="Fill-34" fill="#FFFFFF" points="95.6648 82.7408 96.4258 83.6298 93.4758 85.4058 99.6878 92.6108 98.4218 93.3698 92.2178 86.1628 89.2818 87.9278 88.5208 87.0388"></polygon>
                <path d="M124.3436,76.7057 C125.6696,75.9017 125.6606,74.5207 124.5066,73.1907 C123.7166,72.2717 122.5586,71.7327 121.4576,71.9367 C121.3886,71.9497 121.3196,71.9657 121.2506,71.9847 C121.0226,72.0437 120.8036,72.1367 120.5866,72.2707 C119.7256,72.7917 119.3656,73.7857 119.8146,74.7237 C119.8766,74.8837 119.9716,75.0637 120.0936,75.2127 L120.9556,76.2027 C121.0886,76.3577 121.2436,76.4927 121.3826,76.6037 C121.9806,77.0207 122.7476,77.1667 123.4606,77.0347 C123.5366,77.0197 123.6126,77.0027 123.6866,76.9827 C123.9146,76.9227 124.1336,76.8307 124.3436,76.7057 M125.7226,72.3807 C127.5216,74.4757 126.8896,76.4217 125.2686,77.4007 C124.9576,77.5877 124.6336,77.7257 124.2956,77.8137 C124.1956,77.8417 124.0946,77.8647 123.9936,77.8837 C123.4306,77.9877 122.8576,77.9537 122.3466,77.7717 L125.0326,80.9467 L123.7916,81.7017 L118.3726,75.4037 C117.7316,74.6557 117.1836,74.0797 116.6816,73.5377 L117.8086,72.8647 L118.7346,73.8257 C118.6666,72.7907 119.1116,71.8757 120.2446,71.1927 C120.5406,71.0177 120.8556,70.8817 121.1766,70.7967 C121.2806,70.7687 121.3856,70.7437 121.4916,70.7247 C122.9386,70.4557 124.5556,71.0217 125.7226,72.3807" id="Fill-36" fill="#FFFFFF"></path>
                <path d="M113.2679,75.6124 C114.2299,75.4334 115.4999,75.6814 116.7479,77.1304 L119.6999,80.5484 L118.4739,81.2904 L115.6389,77.9974 C114.8879,77.1274 114.0669,76.7034 113.2659,76.8524 C113.2149,76.8624 113.1649,76.8734 113.1149,76.8874 C112.9389,76.9374 112.7689,77.0114 112.5979,77.1124 C111.8839,77.5454 111.7009,78.3264 111.9329,78.9694 C112.0019,79.1544 112.1249,79.3724 112.2849,79.5564 L115.3849,83.1524 L114.1499,83.8974 L111.1529,80.4114 C110.5259,79.6854 109.7259,79.2974 108.9509,79.4414 C108.9049,79.4494 108.8589,79.4604 108.8129,79.4724 C108.6449,79.5214 108.4819,79.5854 108.3279,79.6834 C107.5349,80.1564 107.4299,81.0264 107.6749,81.6844 C107.7479,81.8844 107.8759,82.0844 108.0249,82.2624 L111.0349,85.7634 L109.8099,86.5064 L106.1609,82.2664 C105.6429,81.6674 105.2019,81.1824 104.7519,80.7344 L105.8449,80.0674 L106.7179,80.9694 L106.7649,80.9434 C106.6739,80.1534 106.8689,79.2504 108.0109,78.5664 C108.2439,78.4274 108.4869,78.3224 108.7299,78.2524 C108.8079,78.2304 108.8859,78.2124 108.9649,78.1974 C109.6589,78.0694 110.3759,78.2034 110.9749,78.5474 C110.9459,78.0804 111.0009,77.6584 111.1309,77.3074 C111.3149,76.7934 111.6509,76.3694 112.3109,75.9724 C112.5119,75.8494 112.7549,75.7444 113.0229,75.6684 C113.1019,75.6474 113.1839,75.6284 113.2679,75.6124" id="Fill-38" fill="#FFFFFF"></path>
                <path d="M142.928,58.6759 C141.666,59.4509 141.949,60.7719 142.482,61.5569 L146.155,59.3469 C145.706,58.8049 144.817,58.1619 143.762,58.3579 C143.701,58.3699 143.639,58.3839 143.576,58.4009 C143.365,58.4569 143.147,58.5499 142.928,58.6759 M148.881,61.4579 L149.751,62.0859 C149.454,62.5189 148.865,63.1689 147.763,63.8379 C147.319,64.0999 146.866,64.2959 146.421,64.4219 C146.296,64.4559 146.171,64.4839 146.046,64.5079 C144.468,64.8009 142.944,64.2379 141.833,62.9479 C140.321,61.2039 140.359,59.0759 142.38,57.8679 C142.735,57.6479 143.085,57.5049 143.421,57.4079 C143.521,57.3809 143.622,57.3579 143.721,57.3399 C145.419,57.0239 146.869,58.0269 147.598,58.8719 C147.787,59.0949 147.901,59.2799 147.989,59.4009 L143.118,62.3229 C143.985,63.3069 145.025,63.5779 145.999,63.3969 C146.092,63.3799 146.184,63.3579 146.275,63.3329 C146.602,63.2379 146.926,63.0999 147.228,62.9159 C148.128,62.3709 148.563,61.9119 148.881,61.4579" id="Fill-40" fill="#FFFFFF"></path>
                <path d="M135.1736,59.8687 L136.6206,61.5397 L138.4206,60.4497 L139.1046,61.2577 L137.3046,62.3477 L140.0046,65.4767 C140.4856,66.0377 140.9526,66.3167 141.4676,66.2217 C141.4956,66.2157 141.5246,66.2097 141.5526,66.2017 C141.6696,66.1627 141.7916,66.1147 141.9136,66.0317 C142.2506,65.8407 142.4616,65.6557 142.5876,65.5207 L143.3226,66.2857 C143.1596,66.5127 142.8246,66.8067 142.3446,67.1017 C142.0956,67.2517 141.8446,67.3587 141.5996,67.4207 C141.5236,67.4427 141.4486,67.4607 141.3736,67.4737 C141.1076,67.5237 140.8456,67.5247 140.5906,67.4717 C139.9676,67.3807 139.3936,66.9377 138.7986,66.2587 L136.0776,63.0827 L135.0076,63.7367 L134.3066,62.9317 L135.3776,62.2857 L134.1866,60.8847 L135.1736,59.8687 Z" id="Fill-42" fill="#FFFFFF"></path>
                <path d="M134.6048,70.5841 C135.5068,70.0471 135.6678,69.2191 135.4368,68.6091 C135.4008,68.4791 135.3238,68.3301 135.2238,68.2291 L134.3578,67.2221 C132.9578,68.0231 131.5798,69.1631 132.5518,70.2961 C132.9568,70.7751 133.4858,70.9191 133.9828,70.8271 C134.0318,70.8171 134.0808,70.8061 134.1278,70.7921 C134.2978,70.7521 134.4588,70.6801 134.6048,70.5841 L134.6048,70.5841 Z M136.9318,68.0571 C137.3628,68.5691 137.8108,69.0431 138.2478,69.3831 L137.0968,70.0691 L136.3688,69.3971 L136.3238,69.4321 C136.3318,70.1171 135.9428,70.9701 134.9488,71.5671 C134.6678,71.7311 134.3838,71.8521 134.1068,71.9301 C134.0218,71.9531 133.9378,71.9731 133.8538,71.9881 C132.8498,72.1751 131.9298,71.7931 131.3908,71.1721 C130.1878,69.7651 131.0148,68.1011 133.6978,66.5031 L133.5928,66.3861 C133.2768,66.0091 132.6678,65.4681 131.7448,65.6391 C131.6858,65.6501 131.6238,65.6641 131.5618,65.6821 C131.3508,65.7381 131.1148,65.8341 130.8658,65.9821 C130.2148,66.3781 129.6928,66.9471 129.4318,67.5111 L128.5428,66.9811 C128.8508,66.3231 129.4988,65.6191 130.3688,65.0971 C130.7718,64.8501 131.1528,64.6931 131.5058,64.5931 C131.6038,64.5661 131.6998,64.5441 131.7948,64.5271 C133.2088,64.2641 134.2858,64.9951 135.0568,65.8821 L136.9318,68.0571 Z" id="Fill-44" fill="#FFFFFF"></path>
                <polygon id="Fill-46" fill="#FFFFFF" points="123.7977 65.1334 131.1427 73.6564 129.8847 74.4144 122.5407 65.8904"></polygon>
                <path d="M118.5076,95.276 C117.2326,96.037 117.5246,97.356 118.0616,98.157 L121.7316,95.939 C121.2826,95.397 120.4016,94.753 119.3476,94.948 C119.2866,94.96 119.2246,94.974 119.1626,94.991 C118.9436,95.049 118.7326,95.14 118.5076,95.276 M124.4676,98.048 L125.3376,98.676 C125.0336,99.119 124.4326,99.763 123.3296,100.422 C122.8876,100.693 122.4356,100.889 121.9816,101.017 C121.8566,101.05 121.7326,101.079 121.6076,101.102 C120.0366,101.394 118.5126,100.831 117.4046,99.55 C115.8956,97.787 115.9446,95.667 117.9636,94.45 C118.3126,94.239 118.6606,94.089 118.9976,94 C119.0996,93.972 119.1996,93.949 119.2996,93.931 C121.0036,93.614 122.4466,94.619 123.1786,95.472 C123.3636,95.687 123.4786,95.871 123.5546,95.986 L118.6976,98.923 C119.5696,99.896 120.5916,100.163 121.5626,99.983 C121.6556,99.965 121.7496,99.943 121.8416,99.918 C122.1706,99.831 122.4926,99.686 122.8036,99.499 C123.7146,98.961 124.1406,98.504 124.4676,98.048" id="Fill-48" fill="#FFFFFF"></path>
                <path d="M111.429,100.8922 C112.764,100.0862 113.088,98.9612 112.281,98.0382 C111.701,97.3612 110.954,97.1582 110.137,97.3102 C110.051,97.3262 109.966,97.3462 109.879,97.3692 C109.517,97.4712 109.137,97.6362 108.765,97.8592 C108.167,98.2192 107.774,98.5332 107.62,98.6992 L110.163,101.6512 L111.429,100.8922 M116.242,101.1472 C117.524,102.0852 118.433,102.7232 118.901,102.9112 L117.613,103.6912 C117.252,103.5612 116.443,102.9902 115.304,102.1462 C114.426,101.4842 113.727,101.2272 112.991,101.3652 C112.922,101.3772 112.854,101.3932 112.785,101.4132 C112.542,101.4832 112.291,101.5902 112.014,101.7362 L110.843,102.4432 L113.864,105.9502 L112.621,106.6962 L105.742,98.7132 C106.286,98.2252 107.134,97.6222 107.989,97.1112 C108.71,96.6762 109.346,96.3872 109.924,96.2192 C110.048,96.1852 110.171,96.1572 110.291,96.1352 C110.654,96.0672 111.002,96.0512 111.344,96.0842 C112.141,96.1502 112.892,96.5432 113.425,97.1642 C114.344,98.2302 114.158,99.4322 113.39,100.3222 L113.421,100.3672 C113.473,100.3542 113.525,100.3432 113.577,100.3332 C114.457,100.1702 115.341,100.4802 116.242,101.1472" id="Fill-50" fill="#FFFFFF"></path>
                <path d="M130.0862,95.1153 C131.4232,94.3173 131.4052,92.9383 130.2592,91.6063 C129.4732,90.6913 128.3192,90.1453 127.2172,90.3503 C127.1432,90.3643 127.0682,90.3813 126.9952,90.4023 C126.7672,90.4613 126.5482,90.5533 126.3292,90.6803 C125.4772,91.1993 125.1192,92.2013 125.5592,93.1413 C125.6302,93.2993 125.7252,93.4793 125.8472,93.6283 L126.7002,94.6203 C126.8442,94.7823 126.9972,94.9083 127.1272,95.0213 C127.7322,95.4363 128.4932,95.5843 129.2062,95.4513 C129.2812,95.4373 129.3572,95.4203 129.4312,95.4003 C129.6572,95.3323 129.8762,95.2403 130.0862,95.1153 M131.4782,90.8043 C133.2752,92.8913 132.6522,94.8353 131.0132,95.8183 C130.7112,96.0033 130.3782,96.1423 130.0512,96.2373 C129.9512,96.2653 129.8502,96.2883 129.7492,96.3073 C129.1862,96.4123 128.6112,96.3783 128.0942,96.1983 L130.7962,99.3693 L129.5452,100.1163 L124.1262,93.8193 C123.4792,93.0813 122.9372,92.4953 122.4372,91.9613 L123.5702,91.2793 L124.4792,92.2433 L124.5092,92.2203 C124.4112,91.2083 124.8642,90.2913 125.9982,89.6093 C126.2942,89.4333 126.6012,89.2993 126.9212,89.2143 C127.0252,89.1853 127.1302,89.1613 127.2362,89.1413 C128.6832,88.8723 130.3002,89.4403 131.4782,90.8043" id="Fill-52" fill="#FFFFFF"></path>
                <path d="M147.5906,74.2818 L149.0176,75.9478 L150.8266,74.8558 L151.5196,75.6628 L149.7116,76.7548 L152.4136,79.8918 C152.8866,80.4408 153.3456,80.7278 153.8516,80.6338 C153.8846,80.6268 153.9176,80.6198 153.9506,80.6108 C154.0776,80.5778 154.1976,80.5218 154.3306,80.4458 C154.6566,80.2468 154.8706,80.0708 154.9876,79.9368 L155.7376,80.6898 C155.5656,80.9198 155.2306,81.2138 154.7416,81.5108 C154.5026,81.6578 154.2506,81.7648 154.0076,81.8358 C153.9436,81.8528 153.8806,81.8668 153.8156,81.8788 C153.5366,81.9308 153.2646,81.9348 153.0076,81.8848 C152.3746,81.7878 151.8016,81.3528 151.2146,80.6638 L148.4766,77.4988 L147.4056,78.1448 L146.7126,77.3378 L147.7926,76.6908 L146.5836,75.2928 L147.5906,74.2818 Z" id="Fill-54" fill="#FFFFFF"></path>
                <path d="M142.1185,80.2755 C142.2515,80.2505 142.3785,80.2335 142.4935,80.2255 L142.8385,81.1825 C142.7055,81.1905 142.5365,81.2085 142.3485,81.2435 C142.2485,81.2625 142.1425,81.2855 142.0335,81.3145 C141.7475,81.3935 141.4355,81.5115 141.1345,81.6965 C140.3885,82.1445 140.2765,82.7575 140.6595,83.1925 C141.0125,83.6035 141.4985,83.6385 142.3495,83.4805 C142.4955,83.4535 142.6525,83.4205 142.8205,83.3825 C142.9225,83.3605 143.0215,83.3405 143.1185,83.3225 C144.4875,83.0675 145.4555,83.2345 146.1435,84.0445 C147.0205,85.0575 146.6985,86.3535 145.0615,87.3445 C144.5885,87.6295 144.0835,87.8355 143.6045,87.9675 C143.4565,88.0075 143.3125,88.0405 143.1725,88.0675 C143.0325,88.0925 142.8975,88.1115 142.7685,88.1225 L142.3865,87.1295 C142.5535,87.1235 142.7495,87.0995 142.9595,87.0615 C143.1095,87.0325 143.2665,86.9975 143.4245,86.9535 C143.7705,86.8635 144.1145,86.7305 144.4165,86.5465 C145.3315,85.9895 145.4275,85.3535 145.0125,84.8645 C144.6245,84.4195 144.1205,84.3255 143.1875,84.4995 C143.0675,84.5215 142.9405,84.5475 142.8065,84.5785 C142.6745,84.6105 142.5465,84.6385 142.4215,84.6615 C141.0645,84.9135 140.1085,84.6695 139.5625,84.0405 C138.7515,83.1005 138.9945,81.7855 140.4775,80.8915 C140.8805,80.6455 141.3055,80.4805 141.7015,80.3725 C141.8445,80.3325 141.9845,80.3005 142.1185,80.2755" id="Fill-56" fill="#FFFFFF"></path>
                <path d="M137.9412,90.4444 C139.1542,89.7214 139.2302,88.2224 138.1082,86.9114 C137.4202,86.1214 136.1922,85.3784 134.9582,85.6074 C134.8882,85.6204 134.8182,85.6364 134.7482,85.6564 C134.5282,85.7144 134.3182,85.8044 134.1002,85.9314 C132.6172,86.8244 132.9692,88.3644 133.9182,89.4754 C134.7782,90.4744 136.0142,90.9584 137.1012,90.7564 C137.1732,90.7424 137.2452,90.7264 137.3162,90.7064 C137.5362,90.6484 137.7462,90.5584 137.9412,90.4444 M139.3612,86.1034 C141.2122,88.2564 140.2432,90.2574 138.5762,91.2704 C138.2032,91.4944 137.8152,91.6614 137.4022,91.7724 C137.2762,91.8064 137.1502,91.8364 137.0232,91.8594 C135.4932,92.1444 133.8502,91.6404 132.6732,90.2824 C131.0052,88.3344 131.5342,86.2794 133.4502,85.1164 C133.8402,84.8894 134.2432,84.7114 134.6562,84.6004 C134.7842,84.5644 134.9132,84.5354 135.0422,84.5114 C136.6142,84.2184 138.2272,84.7824 139.3612,86.1034" id="Fill-58" fill="#FFFFFF"></path>
                <path d="M143.2039,76.0616 C143.5629,75.9946 143.9149,76.1276 144.1539,76.3966 C144.4769,76.7486 144.4119,77.2326 143.9059,77.5336 C143.8209,77.5836 143.7299,77.6176 143.6459,77.6416 C143.6159,77.6496 143.5859,77.6566 143.5559,77.6626 C143.1959,77.7286 142.8289,77.6126 142.5949,77.3386 C142.2649,76.9626 142.3499,76.4836 142.8079,76.2096 C142.8999,76.1496 142.9989,76.1136 143.0999,76.0866 C143.1349,76.0766 143.1689,76.0676 143.2039,76.0616" id="Fill-60" fill="#FFFFFF"></path>
                <polygon id="Fill-62" fill="#FFFFFF" points="145.4056 78.1129 150.4146 83.9369 149.1656 84.6929 144.1506 78.8789"></polygon>
                <path d="M163.346,67.1729 L164.2,68.1729 C164.053,68.2259 163.917,68.2939 163.746,68.3949 C162.859,68.9199 162.712,69.8659 163.223,70.7669 C163.313,70.9299 163.436,71.1129 163.584,71.2919 L166.258,74.3909 L165.009,75.1469 L161.571,71.1419 C160.974,70.4549 160.462,69.8809 159.95,69.3659 L161.051,68.6979 L162.075,69.8209 L162.135,69.7759 C161.779,68.8119 162.114,67.8569 162.962,67.3559 C163.099,67.2619 163.212,67.2149 163.346,67.1729" id="Fill-64" fill="#FFFFFF"></path>
                <path d="M159.4612,77.483 C160.6632,76.753 160.7522,75.269 159.6302,73.958 C158.9302,73.154 157.7122,72.416 156.4802,72.646 C156.4092,72.659 156.3392,72.675 156.2682,72.694 C156.0582,72.751 155.8382,72.843 155.6192,72.969 C154.1402,73.871 154.4912,75.411 155.4362,76.506 C156.3032,77.517 157.5472,78.002 158.6392,77.798 C158.7062,77.786 158.7732,77.771 158.8392,77.753 C159.0562,77.687 159.2672,77.596 159.4612,77.483 M160.8812,73.142 C162.7322,75.295 161.7632,77.296 160.0852,78.302 C159.7152,78.535 159.3172,78.703 158.9042,78.814 C158.7792,78.848 158.6532,78.878 158.5262,78.901 C156.9972,79.185 155.3622,78.68 154.1932,77.32 C152.5172,75.375 153.0552,73.317 154.9722,72.163 C155.3592,71.928 155.7632,71.75 156.1762,71.639 C156.3042,71.603 156.4332,71.573 156.5622,71.549 C158.1342,71.257 159.7472,71.821 160.8812,73.142" id="Fill-66" fill="#FFFFFF"></path>
                <path d="M170.639,62.9244 L172.321,68.2084 C173.137,70.7434 173.395,72.1374 173.076,73.2784 C172.85,74.1014 172.388,74.6594 172.117,74.8904 L171.038,74.1974 C171.28,73.9214 171.553,73.5014 171.69,73.0124 C171.842,72.5804 171.921,71.9134 171.743,71.2004 C171.701,71.0534 171.672,70.9464 171.62,70.8874 C171.568,70.8294 171.468,70.7614 171.303,70.6554 L164.125,66.8474 L165.498,66.0174 L169.978,68.5414 C170.464,68.8284 171.034,69.1854 171.438,69.4714 L171.466,69.4404 C171.306,69.0234 171.067,68.4844 170.877,67.9614 L169.31,63.7204 L170.639,62.9244 Z" id="Fill-69" fill="#FFFFFF"></path>
            </g>
        </g>
    </g>
</svg>