<svg xmlns="http://www.w3.org/2000/svg" width="192" height="118" viewBox="0 0 192 118">
    <g fill="none" fill-rule="evenodd">
        <path fill="#3F4A80" d="M140.262.174l-22.62 13.14-94.067 53.952L.128 80.713l51.887 29.957 139.36-80.522z"/>
        <path fill="#576DA2" d="M52.016 110.67l2.519 1.454L.128 80.714v6.596l51.836 29.925z"/>
        <path fill="#799ADF" d="M191.375 30.148L52.014 110.67l-.051 6.512.052.029 5.663-3.271.045.026 133.671-77.234V30.16z"/>
        <path fill="#FFF" d="M44.773 67.745c.131-.025.256-.042.371-.05l.392 1.06a4.828 4.828 0 0 0-.861.16 4.982 4.982 0 0 0-1.303.56c-1.322.787-1.255 1.752-.776 2.307.58.672 1.365.761 2.728.508.168-.03.345-.068.532-.109.127-.028.252-.052.373-.076 1.889-.35 3.177-.139 4.14.98 1.066 1.243.904 2.99-1.377 4.367a7.908 7.908 0 0 1-1.84.78 5.817 5.817 0 0 1-.48.11c-.213.04-.411.063-.583.07l-.438-1.06c.222-.016.46-.047.706-.093a5.938 5.938 0 0 0 1.975-.723c1.28-.778 1.535-1.787.831-2.6-.604-.707-1.406-.86-2.842-.594-.115.021-.236.046-.36.073-.221.054-.436.101-.646.141-1.672.31-3.005.115-3.871-.898-1.092-1.266-.652-2.952 1.227-4.083a6.983 6.983 0 0 1 1.681-.733c.149-.04.289-.073.42-.097M61.181 61.32c.043-.008.084-.014.124-.02l.417.988a5.113 5.113 0 0 0-.586.109 4.456 4.456 0 0 0-1.12.5c-1.584.955-1.597 2.45-.556 3.664.857.994 2.028 1.371 3.132 1.165a3.399 3.399 0 0 0 1.143-.431 3.933 3.933 0 0 0 1.302-1.22l.9.665c-.198.338-.764.976-1.696 1.535a5.423 5.423 0 0 1-1.327.572 4.373 4.373 0 0 1-.397.092c-1.586.295-3.17-.258-4.288-1.556-1.535-1.791-1.193-3.966 1.065-5.331a5.904 5.904 0 0 1 1.5-.639c.14-.038.27-.071.387-.092M52.194 67.458c-1.264.767-.99 2.09-.446 2.881l3.673-2.21c-.453-.552-1.346-1.192-2.408-.994a2.378 2.378 0 0 0-.173.04c-.21.064-.43.148-.646.283m5.95 2.773l.882.635c-.306.435-.907 1.078-2.006 1.755a5.17 5.17 0 0 1-1.738.666c-1.57.292-3.085-.27-4.183-1.558-1.512-1.744-1.474-3.872.544-5.087a4.053 4.053 0 0 1 1.345-.52c1.705-.318 3.148.687 3.879 1.54.186.214.3.4.377.514l-4.86 2.928c.866.983 1.902 1.248 2.869 1.068a3.863 3.863 0 0 0 1.241-.475c.9-.545 1.333-1.01 1.65-1.466M106.014 41.925c1.213-.723 1.29-2.214.169-3.524-.693-.8-1.916-1.541-3.163-1.309a2.465 2.465 0 0 0-.2.045 3.147 3.147 0 0 0-.645.283c-1.483.894-1.131 2.434-.184 3.536.862 1.007 2.099 1.491 3.185 1.289.073-.013.145-.029.216-.049.219-.058.43-.149.622-.271m1.422-4.332c1.852 2.153.882 4.153-.796 5.16-.372.224-.77.393-1.171.51-.124.034-.25.063-.376.087-1.531.284-3.177-.226-4.347-1.587-1.665-1.94-1.136-3.994.788-5.159a4.572 4.572 0 0 1 1.206-.516c.128-.036.255-.065.383-.089 1.566-.291 3.18.273 4.313 1.594M96.731 36.226l.77.888-2.949 1.783 6.196 7.21-1.258.757-6.204-7.207-2.927 1.762-.769-.886zM89.019 44.338l1.682 5.283c.817 2.535 1.074 3.93.755 5.071a3.37 3.37 0 0 1-.96 1.612l-1.08-.7c.244-.269.517-.689.654-1.178.153-.432.229-1.108.05-1.82-.036-.13-.06-.247-.111-.306a1.116 1.116 0 0 0-.332-.222l-7.165-3.827 1.378-.813 4.468 2.516c.487.287 1.054.637 1.467.921-.15-.444-.387-.975-.576-1.498l-1.565-4.233 1.335-.806zM78.637 48.053l1.436 1.664 1.813-1.074.682.8-1.802 1.082 2.702 3.136c.477.557.942.843 1.45.748a1.42 1.42 0 0 0 .461-.184c.335-.2.546-.385.674-.512l.733.757c-.163.228-.507.523-.987.818-.248.15-.5.256-.75.328a2.12 2.12 0 0 1-.189.043 2.154 2.154 0 0 1-.804.005c-.625-.098-1.197-.533-1.794-1.22l-2.722-3.177-1.07.645-.703-.804 1.072-.646-1.189-1.392.987-1.017zM76.474 51.898l5.006 5.815-1.268.75-4.995-5.808zM73.815 53.353l.861.99c-.157.055-.3.125-.472.226-.885.533-1.032 1.478-.512 2.378.097.154.202.34.362.525l2.665 3.1-1.243.747-3.437-3.996c-.597-.688-1.11-1.271-1.623-1.784l1.104-.661 1.022 1.116.062-.038c-.356-.964-.033-1.925.816-2.426a1.66 1.66 0 0 1 .395-.177M68.381 56.758l3.646 4.231c.518.6.988 1.123 1.424 1.556l-1.12.663-.882-.9-.032.014c.074.665-.132 1.724-1.357 2.467a3.492 3.492 0 0 1-1.128.428c-.994.185-2.224-.1-3.46-1.541l-2.919-3.397 1.258-.757 2.77 3.218c.741.865 1.541 1.361 2.404 1.201a2.362 2.362 0 0 0 .728-.281c.846-.508 1.002-1.353.836-1.958a1.851 1.851 0 0 0-.35-.613l-3.076-3.574 1.258-.757zM74.244 49.836a.988.988 0 0 1 .96.34c.331.35.254.828-.234 1.125a.846.846 0 0 1-.267.118 1.226 1.226 0 0 1-.087.021c-.362.067-.74-.055-.964-.323-.328-.368-.247-.864.211-1.138a1.304 1.304 0 0 1 .381-.143M116.457 28.774c-1.275.76-.984 2.08-.448 2.873l3.68-2.212c-.456-.54-1.338-1.184-2.392-.988a2.479 2.479 0 0 0-.84.327m5.959 2.772l.862.63c-.297.433-.888 1.083-1.992 1.744a5.077 5.077 0 0 1-1.742.676c-1.563.29-3.087-.271-4.191-1.548-1.5-1.764-1.46-3.883.56-5.1a3.924 3.924 0 0 1 1.344-.521c1.697-.315 3.136.682 3.867 1.535.187.214.312.406.38.522l-4.86 2.93c.872.974 1.905 1.246 2.88 1.065a3.622 3.622 0 0 0 1.228-.481c.908-.547 1.334-1.004 1.663-1.452M105.468 30.319l4.64 5.378.03-.024a9.572 9.572 0 0 1 .043-1.029l.307-3.223 1.512-.916-.616 4.002 5.995 1.589-1.53.92-4.79-1.35-.126.985 1.88 2.19-1.251.748-7.337-8.524 1.243-.747zM124.91 22.786c.987-.184 2.264.05 3.45 1.423l2.985 3.472-1.258.756-2.886-3.342c-.63-.74-1.431-1.228-2.322-1.062a2.32 2.32 0 0 0-.765.305c-.823.496-1.041 1.378-.761 2.098.062.161.189.36.349.544l3 3.494-1.25.756-3.657-4.239a26.258 26.258 0 0 0-1.411-1.54l1.118-.67.898.922.03-.022c-.136-.756.206-1.782 1.348-2.465a3.05 3.05 0 0 1 .85-.365c.09-.025.185-.047.282-.065M69.898 73.66l.549.911c-.077.015-.161.04-.254.065a2.499 2.499 0 0 0-.678.297c-1.062.644-.661 1.608.1 2.497l.273.301 1.669-1.006.693.807-1.652 1.003 4.31 5.001-1.263.767-4.313-5.009-2.903 1.75 4.302 5.003-1.24.754-4.305-5.01-.977.592-.685-.808.96-.59-.161-.194c-.704-.814-1.081-1.653-.928-2.445.104-.578.505-1.124 1.272-1.593.242-.14.496-.239.724-.298a3.054 3.054 0 0 1 .445-.09l.412.936a2.272 2.272 0 0 0-.866.306c-.985.595-.645 1.468.14 2.378l.214.252 2.912-1.752-.248-.27c-.697-.825-1.11-1.7-.93-2.524.14-.67.636-1.209 1.212-1.548.356-.22.708-.354 1.003-.434l.213-.049zM75.703 75.183c-1.273.769-.982 2.088-.455 2.883l3.67-2.22c-.44-.542-1.32-1.186-2.375-.991a2.484 2.484 0 0 0-.84.328m5.953 2.78l.868.62c-.303.444-.887 1.084-1.997 1.754a5.647 5.647 0 0 1-1.35.586 4.85 4.85 0 0 1-.394.09c-1.569.293-3.078-.272-4.184-1.557-1.515-1.752-1.465-3.873.553-5.09a3.96 3.96 0 0 1 1.341-.528c1.697-.315 3.141.689 3.88 1.54.188.224.292.402.38.523l-4.868 2.93c.872.98 1.91 1.246 2.883 1.065a3.865 3.865 0 0 0 1.235-.474c.9-.545 1.326-1.002 1.653-1.458M83.459 66.166c.358-.067.724.06.96.34.324.352.255.83-.25 1.13a.875.875 0 0 1-.352.136 1.029 1.029 0 0 1-.958-.324c-.319-.369-.238-.865.22-1.139a1.256 1.256 0 0 1 .38-.143M85.681 68.229l5.006 5.816-1.269.75-4.995-5.808zM83.022 69.685l.853.99c-.14.053-.284.123-.453.232-.886.525-1.034 1.47-.522 2.372.096.153.21.338.37.523l2.666 3.1-1.244.747-3.444-3.994a31.107 31.107 0 0 0-1.624-1.784l1.104-.661 1.022 1.115.061-.037c-.356-.964-.02-1.92.825-2.428.14-.086.254-.133.386-.175M62.532 89.897c1.98-1.191 1.782-3.387.2-5.222-1.112-1.301-2.91-2.253-4.653-1.93a3.723 3.723 0 0 0-.305.07 3.99 3.99 0 0 0-.952.419c-2.066 1.242-1.717 3.46-.187 5.236 1.181 1.374 2.98 2.215 4.647 1.905a3.847 3.847 0 0 0 1.25-.478m1.47-6.066c2.406 2.788 1.662 5.475-.806 6.964a5.824 5.824 0 0 1-1.956.746c-2.09.388-4.32-.394-5.916-2.244-2.21-2.568-1.75-5.4.818-6.95a5.983 5.983 0 0 1 2.014-.765c2.102-.391 4.286.433 5.845 2.249M102.826 65.472c.769-.461 1.12-1.29.815-2.135a2.31 2.31 0 0 0-.39-.623l-.902-1.043c-.157-.177-.297-.322-.481-.433a2.66 2.66 0 0 0-2.084-.334c-.217.066-.43.148-.637.28-1.207.715-1.325 2.093-.17 3.432.765.889 1.848 1.409 2.93 1.207a2.748 2.748 0 0 0 .919-.351zm3.079-1.87c1.145 1.333 1.53 2.335 1.303 3.253-.231.935-1.057 1.68-1.925 2.21a7.221 7.221 0 0 1-1.732.744 4.743 4.743 0 0 1-.426.1 3.969 3.969 0 0 1-.561.066l-.382-.993a6.05 6.05 0 0 0 .625-.08c.139-.027.282-.06.43-.1a5.746 5.746 0 0 0 1.376-.59c1.288-.78 1.745-1.912.482-3.377l-.551-.653-.031.023c.079.775-.295 1.652-1.367 2.297a3.498 3.498 0 0 1-.946.407c-.105.03-.211.054-.318.074-1.46.27-3.064-.296-4.124-1.54-1.701-1.967-1.133-4.012.462-4.961a3.726 3.726 0 0 1 1.235-.484 3.152 3.152 0 0 1 1.796.187l-.673-.931 1.104-.66c.337.435.707.924 1.317 1.626l2.906 3.383zM107.282 55.365c.156-.029.303-.047.437-.058l.336.96a4.035 4.035 0 0 0-.788.13 3.65 3.65 0 0 0-.907.383c-.755.448-.858 1.061-.478 1.487.355.418.842.454 1.694.296.146-.027.302-.059.47-.097.115-.026.228-.049.338-.07 1.346-.25 2.302-.078 2.985.732.88 1.02.555 2.308-1.09 3.3a6.192 6.192 0 0 1-1.45.622 4.537 4.537 0 0 1-.402.093c-.152.03-.3.047-.444.056l-.37-.987c.166-.006.36-.029.565-.067.147-.027.3-.062.455-.105a4.132 4.132 0 0 0 1-.409c.917-.549 1.01-1.202.598-1.674-.383-.456-.89-.556-1.838-.379a8.044 8.044 0 0 0-.372.077 7.708 7.708 0 0 1-.422.092c-1.335.248-2.277.01-2.822-.63-.803-.94-.565-2.247.926-3.143a4.837 4.837 0 0 1 1.58-.609M92.229 64.338c.992-.185 2.266.043 3.453 1.423l2.993 3.47-1.267.758-2.885-3.343c-.63-.74-1.431-1.227-2.315-1.063a2.364 2.364 0 0 0-.764.304c-.831.498-1.049 1.38-.752 2.097.053.162.181.362.34.546l3 3.495-1.258.756-3.649-4.24a30.687 30.687 0 0 0-1.411-1.54l1.119-.67.895.914.032-.014c-.136-.756.195-1.788 1.346-2.474.225-.136.515-.268.835-.353.093-.025.189-.048.288-.066"/>
    </g>
</svg>
