<svg xmlns="http://www.w3.org/2000/svg" width="194" height="127" viewBox="0 0 194 127">
    <g fill="none" fill-rule="evenodd">
        <path fill="#576DA2" d="M164.992 17.704c-37.618-23.57-98.61-23.57-136.228 0C9.935 29.504.534 44.97.552 60.431V66.402c-.018 15.46 9.383 30.922 28.212 42.718 37.618 23.57 98.606 23.57 136.228 0 18.83-11.799 28.228-27.267 28.206-42.732V60.431c.022-15.462-9.377-30.929-28.206-42.727"/>
        <path fill="#38619D" d="M164.992 103.066c-37.622 23.569-98.61 23.569-136.228 0-37.618-23.572-37.618-61.79 0-85.361 37.618-23.572 98.61-23.572 136.228 0 37.62 23.572 37.616 61.786 0 85.36"/>
        <path fill="#FFF" d="M71.87 59.288l3.636 4.227c.527.596.997 1.12 1.423 1.545l-1.108.68-.884-.91-.032.015c.066.666-.134 1.715-1.36 2.46-.257.15-.544.29-.864.374-.084.023-.17.044-.258.06-.995.185-2.23-.105-3.472-1.539l-2.918-3.397 1.255-.766 2.772 3.228c.749.863 1.55 1.36 2.413 1.198a2.1 2.1 0 0 0 .725-.288c.849-.5 1.006-1.346.837-1.958a1.794 1.794 0 0 0-.36-.612l-3.062-3.559 1.258-.758zM64.666 63.843c.044-.008.087-.015.127-.02l.407.989a3.446 3.446 0 0 0-.559.104 4.223 4.223 0 0 0-1.13.5c-1.594.95-1.605 2.454-.553 3.675.848.988 2.017 1.364 3.115 1.16a3.505 3.505 0 0 0 1.15-.433c.713-.433 1.061-.875 1.3-1.23l.898.667c-.212.349-.764.975-1.696 1.534a5.127 5.127 0 0 1-1.725.665c-1.587.294-3.166-.252-4.283-1.548-1.535-1.792-1.201-3.965 1.065-5.331a5.83 5.83 0 0 1 1.49-.637c.141-.04.274-.073.394-.095M55.681 69.98c-1.272.77-.98 2.089-.446 2.882l3.67-2.22c-.45-.542-1.335-1.182-2.404-.984a2.402 2.402 0 0 0-.174.04 3.229 3.229 0 0 0-.646.283m5.962 2.78l.861.63c-.297.433-.896 1.085-1.999 1.745a5.328 5.328 0 0 1-1.342.584 4.664 4.664 0 0 1-.394.09c-1.569.293-3.086-.27-4.189-1.547-1.509-1.762-1.46-3.884.55-5.098a4.464 4.464 0 0 1 1.041-.46c.101-.028.202-.051.302-.07 1.704-.316 3.147.689 3.878 1.542.186.214.301.4.38.522l-4.86 2.928c.872.975 1.905 1.248 2.873 1.068a3.722 3.722 0 0 0 1.235-.483c.91-.54 1.328-.994 1.664-1.451M48.259 70.268a3.78 3.78 0 0 1 .373-.05l.392 1.06a6.258 6.258 0 0 0-.861.16 5.262 5.262 0 0 0-1.303.56c-1.311.793-1.255 1.753-.768 2.306.587.68 1.372.766 2.779.504.154-.028.314-.061.483-.098l.37-.074c1.875-.348 3.17-.14 4.132.972 1.069 1.252.905 2.99-1.368 4.366a7.726 7.726 0 0 1-1.85.78c-.176.049-.35.09-.512.12-.2.038-.387.06-.55.062l-.437-1.061a6.339 6.339 0 0 0 1.253-.215 5.682 5.682 0 0 0 1.436-.602c1.273-.77 1.527-1.786.823-2.6-.598-.691-1.392-.856-2.802-.593-.128.023-.261.05-.4.08-.211.052-.417.097-.62.135-1.682.312-3.018.125-3.9-.9-1.09-1.265-.647-2.943 1.23-4.082a6.923 6.923 0 0 1 1.672-.731c.152-.041.294-.074.428-.1M82.113 50.57l1.447 1.67 1.802-1.082.693.807-1.81 1.083 2.7 3.13c.477.564.941.843 1.455.747.033-.005.067-.014.101-.023a1.42 1.42 0 0 0 .363-.163c.334-.198.54-.374.665-.51l.742.755c-.16.235-.505.532-.987.819a2.793 2.793 0 0 1-.957.377c-.268.05-.535.047-.786-.002-.634-.096-1.206-.53-1.792-1.212l-2.73-3.175-1.072.646-.692-.806 1.071-.647-1.198-1.39.985-1.025zM77.718 52.353c.368-.068.736.064.98.345.322.343.248.83-.25 1.128a1.126 1.126 0 0 1-.35.137 1.016 1.016 0 0 1-.961-.331c-.328-.37-.253-.854.205-1.13.092-.058.19-.094.29-.13a.826.826 0 0 1 .086-.02M79.95 54.413l5.004 5.81-1.255.764-5.007-5.816zM77.291 55.87l.865.997a2.12 2.12 0 0 0-.465.224c-.885.533-1.03 1.48-.514 2.37.09.163.204.348.364.533l2.663 3.093-1.242.746-3.438-3.996a32.706 32.706 0 0 0-1.629-1.775l1.102-.668 1.032 1.121.063-.037c-.358-.972-.03-1.918.814-2.434.147-.088.252-.133.385-.175M92.497 46.862l1.68 5.276c.825 2.534 1.082 3.928.755 5.07-.215.83-.68 1.38-.949 1.619l-1.08-.7a3.25 3.25 0 0 0 .654-1.178c.15-.44.22-1.106.042-1.819-.03-.14-.06-.247-.114-.314-.052-.059-.153-.127-.324-.224l-7.17-3.816 1.375-.823 4.476 2.515a27.23 27.23 0 0 1 1.461.931l.03-.023c-.17-.422-.408-.953-.6-1.484l-1.565-4.234 1.33-.796zM119.939 31.28c-1.272.77-.981 2.088-.455 2.883l3.67-2.219c-.44-.543-1.328-1.186-2.383-.99a2.439 2.439 0 0 0-.832.326m5.954 2.782l.867.62c-.305.434-.885 1.091-1.988 1.751-.453.265-.905.46-1.351.586-.13.036-.26.066-.39.09-1.571.292-3.091-.278-4.195-1.556-1.506-1.753-1.466-3.873.552-5.089a3.924 3.924 0 0 1 1.342-.529c1.696-.315 3.14.69 3.88 1.541.185.214.3.4.379.522l-4.87 2.923c.874.982 1.907 1.254 2.881 1.073.092-.018.184-.038.275-.064.336-.096.66-.234.962-.419.9-.544 1.326-1.002 1.656-1.449M108.95 32.825l4.635 5.388.03-.024c-.003-.307.014-.706.043-1.029l.304-3.232 1.523-.91-.62 3.994 5.988 1.592-1.53.92-4.787-1.343-.127.986 1.889 2.19-1.251.747-7.34-8.533 1.244-.746zM100.218 38.748l.752.891-2.94 1.774 6.203 7.207-1.26.75-6.202-7.199-2.935 1.764-.77-.887zM109.499 44.44c1.204-.721 1.291-2.214.16-3.523-.693-.8-1.924-1.54-3.157-1.31a2.6 2.6 0 0 0-.845.32c-1.489.904-1.137 2.443-.179 3.553.852 1 2.095 1.482 3.183 1.28a2.313 2.313 0 0 0 .838-.319m1.411-4.34c1.86 2.152.884 4.16-.783 5.176a5.41 5.41 0 0 1-1.174.5 4.848 4.848 0 0 1-.375.088c-1.532.284-3.177-.226-4.347-1.587-1.676-1.945-1.148-4.001.778-5.157a4.63 4.63 0 0 1 1.207-.517c.127-.035.255-.064.384-.09 1.565-.29 3.178.274 4.31 1.587M128.352 25.302c.997-.186 2.28.036 3.476 1.425l2.992 3.47-1.257.757-2.888-3.351c-.628-.733-1.428-1.22-2.313-1.054-.055.01-.11.023-.167.038a2.588 2.588 0 0 0-.598.257c-.829.506-1.05 1.38-.76 2.106.063.162.182.362.341.547l3.008 3.492-1.258.758-3.648-4.24c-.518-.6-.962-1.092-1.42-1.54l1.118-.671.904.914c-.106-.778.23-1.794 1.37-2.486.233-.138.514-.268.832-.361.087-.024.176-.043.268-.061M68.71 84.023c-1.283.762-.992 2.08-.462 2.884l3.678-2.22c-.448-.542-1.33-1.186-2.383-.99a2.336 2.336 0 0 0-.832.326m5.942 2.774l.87.629c-.294.44-.887 1.083-1.99 1.743a5.47 5.47 0 0 1-1.357.596c-.125.034-.25.063-.374.085-1.571.292-3.095-.27-4.203-1.552-1.51-1.762-1.468-3.881.55-5.098a4.092 4.092 0 0 1 1.345-.521c1.703-.316 3.139.69 3.879 1.54.186.216.3.4.377.515l-4.866 2.939c.877.98 1.923 1.242 2.91 1.058.088-.017.175-.036.262-.06.326-.094.642-.231.944-.416.9-.544 1.335-1.003 1.653-1.458M61.63 89.63c1.329-.796 1.644-1.919.854-2.846-.588-.675-1.335-.878-2.153-.725a3.165 3.165 0 0 0-.258.058 4.616 4.616 0 0 0-1.113.491c-.607.361-.992.673-1.154.84l2.55 2.952 1.274-.77m4.807.266c1.29.936 2.19 1.576 2.658 1.763l-1.294.79c-.346-.141-1.164-.711-2.302-1.554-.878-.662-1.577-.919-2.314-.783-.068.013-.136.03-.205.048-.252.074-.503.18-.771.324l-1.172.708L64.05 94.7l-1.241.754-6.882-7.991c.545-.487 1.392-1.092 2.254-1.612.713-.433 1.34-.721 1.92-.881.127-.034.25-.063.374-.085a3.818 3.818 0 0 1 1.064-.053 3.1 3.1 0 0 1 2.08 1.081c.919 1.066.734 2.267-.034 3.156l.03.046c.052-.012.104-.024.157-.034.879-.163 1.763.148 2.665.815M79.8 83.961c.778-.462 1.119-1.298.807-2.133a2.168 2.168 0 0 0-.38-.625l-.903-1.042a1.842 1.842 0 0 0-.484-.442 2.647 2.647 0 0 0-1.878-.373 2.026 2.026 0 0 0-.212.05 2.376 2.376 0 0 0-.633.262c-1.202.731-1.325 2.092-.164 3.448.764.888 1.847 1.408 2.93 1.207.07-.014.143-.03.214-.049.234-.07.47-.165.704-.303zm3.077-1.877c1.146 1.332 1.54 2.341 1.293 3.245-.212.941-1.038 1.687-1.914 2.22a7.086 7.086 0 0 1-1.707.736 4.365 4.365 0 0 1-1.012.171l-.374-.994a5.632 5.632 0 0 0 1.047-.178 5.707 5.707 0 0 0 1.376-.59c1.287-.78 1.745-1.913.49-3.379l-.566-.642c.052.78-.32 1.665-1.39 2.318-.303.177-.62.313-.946.408-.104.03-.21.053-.316.073-1.466.272-3.06-.305-4.136-1.545-1.683-1.97-1.122-4.007.47-4.964.326-.197.652-.327.953-.417a3.197 3.197 0 0 1 2.071.122l-.663-.925 1.102-.668c.33.446.707.924 1.319 1.635l2.903 3.374zM79.621 73.089c.368-.068.735.063.97.339.323.351.256.828-.24 1.126a.846.846 0 0 1-.268.118 1.038 1.038 0 0 1-1.052-.302c-.319-.37-.238-.866.22-1.139a1.33 1.33 0 0 1 .284-.122c.028-.008.057-.014.086-.02M81.862 75.149l5.006 5.816-1.266.759-5.006-5.816zM105.296 68.87c.909-.547 1.072-1.367.847-1.986a1.283 1.283 0 0 0-.22-.37l-.868-1.016c-1.39.808-2.787 1.943-1.805 3.074.419.491.947.627 1.449.533.043-.007.086-.017.129-.028.168-.049.32-.12.468-.208zm2.325-2.535c.439.51.895.983 1.318 1.334l-1.142.684-.728-.67-.047.025c-.001.686-.39 1.548-1.376 2.136a3.246 3.246 0 0 1-.831.368c-.08.021-.16.04-.237.054-1.02.19-1.948-.192-2.488-.809-1.211-1.406-.384-3.07 2.305-4.678l-.105-.117c-.314-.369-.933-.917-1.851-.746a2.728 2.728 0 0 0-.882.352c-.636.384-1.174.965-1.43 1.511l-.884-.514c.299-.657.964-1.364 1.83-1.894a4.387 4.387 0 0 1 1.435-.564c1.407-.26 2.488.474 3.239 1.361l1.874 2.167zM97.679 65.47l.864.998c-.151.046-.284.122-.464.224-.887.525-1.025 1.469-.514 2.37.09.164.213.347.362.525l2.675 3.109-1.251.747-3.44-4.005a43.524 43.524 0 0 0-1.62-1.776l1.1-.668 1.024 1.115.064-.03c-.367-.97-.032-1.924.825-2.427.139-.086.25-.142.375-.182M89.684 67.892l1.447 1.67 1.802-1.08.702.805-1.811 1.083 2.693 3.139c.475.549.94.834 1.448.739a1.511 1.511 0 0 0 .479-.187c.317-.196.528-.382.656-.51l.745.764c-.173.229-.5.522-.99.81-.25.15-.5.257-.752.329a2.093 2.093 0 0 1-.187.042 2.224 2.224 0 0 1-.813.007c-.625-.098-1.197-.533-1.785-1.221l-2.73-3.176-1.071.645-.693-.806 1.07-.646-1.195-1.383.985-1.024zM87.51 71.886c.153-.028.3-.047.434-.057l.354.955a4.517 4.517 0 0 0-.806.133 3.544 3.544 0 0 0-.899.382c-.746.447-.857 1.06-.483 1.498.353.406.851.443 1.714.282.142-.026.293-.057.456-.093.102-.023.201-.043.298-.061 1.37-.255 2.337-.09 3.023.714.88 1.02.554 2.309-1.089 3.309a5.667 5.667 0 0 1-1.875.72 4.361 4.361 0 0 1-.409.057l-.383-.993c.168-.006.361-.03.566-.067a5.2 5.2 0 0 0 .455-.106c.347-.09.705-.234 1.007-.42.917-.547 1.013-1.183.6-1.664-.389-.452-.9-.546-1.835-.371-.12.02-.247.049-.38.079-.133.032-.26.059-.386.083-1.356.252-2.304.007-2.85-.623-.812-.94-.568-2.255.915-3.15a4.801 4.801 0 0 1 1.572-.607M109.193 58.54l.853.991a2.56 2.56 0 0 0-.461.233c-.885.533-1.026 1.47-.523 2.372.098.161.213.346.37.522l2.674 3.1-1.252.748-3.445-3.995a35.87 35.87 0 0 0-1.614-1.785l1.103-.66 1.024 1.122.052-.044c-.356-.963-.011-1.912.824-2.427.14-.086.253-.134.395-.177"/>
    </g>
</svg>
