<!-- Generator: Adobe Illustrator 21.1.0, SVG Export Plug-In  -->
<svg version="1.1"
	 xmlns="http://www.w3.org/2000/svg" xmlns:xlink="http://www.w3.org/1999/xlink" xmlns:a="http://ns.adobe.com/AdobeSVGViewerExtensions/3.0/"
	 x="0px" y="0px" width="187.9px" height="28.4px" viewBox="0 0 187.9 28.4" style="enable-background:new 0 0 187.9 28.4;"
	 xml:space="preserve">
<style type="text/css">
	.st0{fill:#ffffff;}
	.st1{fill:#ffffff;}
</style>
<defs>
</defs>
<path class="st0" d="M4.1,8.9h3c1.9,0,3-1.1,3-2.6v0c0-1.7-1.2-2.6-3.1-2.6H4.1l-3.8,0V0.3h7c4.1,0,6.6,2.4,6.6,5.9v0
	c0,4-3.1,6-6.9,6H4.1v5.1H0.3V9L4.1,8.9z"/>
<path class="st0" d="M22.1,8.9L22.1,8.9C22.1,4,25.9,0,31.2,0c5.3,0,9.1,3.9,9.1,8.8v0c0,4.9-3.8,8.9-9.1,8.9
	C25.9,17.7,22.1,13.8,22.1,8.9z M36.3,8.9L36.3,8.9c0-3-2.2-5.4-5.2-5.4c-3,0-5.1,2.4-5.1,5.3v0c0,2.9,2.2,5.4,5.2,5.4
	S36.3,11.9,36.3,8.9z"/>
<path class="st0" d="M51,0.3h3.8V14h8.6v3.4H51V0.3z"/>
<path class="st0" d="M77.1,10.7L70.5,0.3h4.4L79,7.2l4.2-6.9h4.3l-6.6,10.3v6.8h-3.8V10.7z"/>
<path class="st0" d="M97.2,0.3h4.1l4.5,7.3l4.5-7.3h4.1v17.2h-3.7V6.2l-4.8,7.3h-0.1l-4.8-7.3v11.1h-3.7V0.3z"/>
<path class="st0" d="M135.5,10.3l-2.3-5.6l-2.3,5.6l-1.3,3.3l-1.6,3.8h-3.8l7.4-17.3h3.5l7.4,17.3h-3.9l-1.6-3.8L135.5,10.3z"/>
<path class="st0" d="M154.2,3.8H149V0.3h14.2v3.5H158v13.7h-3.8V3.8z"/>
<path class="st0" d="M173.2,0.3h3.8v6.8h7V0.3h3.8v17.2h-3.8v-6.9h-7v6.9h-3.8V0.3z"/>
<g>
	<path class="st1" d="M2.5,24v4.3H1.6V24H0v-0.8h4.1V24H2.5z"/>
	<path class="st1" d="M10.5,28.3v-2.1H7.8v2.1H6.9v-5.1h0.9v2.2h2.7v-2.2h0.9v5.1H10.5z"/>
	<path class="st1" d="M15.7,24v1.4h2.5v0.8h-2.5v1.4h2.8v0.8h-3.7v-5.1h3.6V24H15.7z"/>
	<path class="st1" d="M28.4,23.4c0.3,0.1,0.6,0.2,0.8,0.4l-0.4,0.8c-0.3-0.2-0.5-0.3-0.8-0.4c-0.3-0.1-0.5-0.1-0.7-0.1
		c-0.3,0-0.5,0-0.6,0.1c-0.1,0.1-0.2,0.2-0.2,0.4c0,0.1,0,0.3,0.1,0.4c0.1,0.1,0.2,0.2,0.4,0.2c0.1,0.1,0.3,0.1,0.6,0.2
		c0.3,0.1,0.6,0.2,0.8,0.3c0.2,0.1,0.4,0.2,0.6,0.4c0.2,0.2,0.2,0.4,0.2,0.8c0,0.3-0.1,0.6-0.2,0.8c-0.2,0.2-0.4,0.4-0.7,0.5
		c-0.3,0.1-0.6,0.2-1,0.2c-0.4,0-0.8-0.1-1.1-0.2s-0.7-0.3-0.9-0.6l0.4-0.7c0.3,0.2,0.5,0.4,0.8,0.5c0.3,0.1,0.6,0.2,0.9,0.2
		c0.3,0,0.5-0.1,0.7-0.2c0.2-0.1,0.2-0.3,0.2-0.5c0-0.2,0-0.3-0.1-0.4c-0.1-0.1-0.2-0.2-0.4-0.2c-0.1-0.1-0.3-0.1-0.6-0.2
		c-0.3-0.1-0.6-0.2-0.8-0.3c-0.2-0.1-0.4-0.2-0.5-0.4c-0.2-0.2-0.2-0.4-0.2-0.7c0-0.3,0.1-0.5,0.2-0.7s0.4-0.4,0.6-0.5
		s0.6-0.2,1-0.2C27.7,23.2,28,23.3,28.4,23.4z"/>
	<path class="st1" d="M33.3,24v1.4h2.5v0.8h-2.5v1.4h2.8v0.8h-3.7v-5.1H36V24H33.3z"/>
	<path class="st1" d="M42.6,23.5c0.3,0.1,0.6,0.3,0.9,0.6L43,24.6c-0.2-0.2-0.4-0.4-0.7-0.5c-0.3-0.1-0.5-0.2-0.8-0.2
		c-0.3,0-0.6,0.1-0.9,0.2c-0.3,0.2-0.5,0.4-0.7,0.6s-0.2,0.6-0.2,0.9c0,0.3,0.1,0.6,0.2,0.9s0.4,0.5,0.7,0.6
		c0.3,0.2,0.6,0.2,0.9,0.2c0.2,0,0.5-0.1,0.7-0.2c0.2-0.1,0.5-0.3,0.7-0.4l0.5,0.6c-0.3,0.3-0.6,0.5-0.9,0.6c-0.3,0.1-0.7,0.2-1,0.2
		c-0.5,0-0.9-0.1-1.3-0.3s-0.7-0.5-0.9-0.9s-0.3-0.8-0.3-1.3c0-0.5,0.1-0.9,0.3-1.3c0.2-0.4,0.6-0.7,1-0.9c0.4-0.2,0.9-0.3,1.3-0.3
		C41.9,23.2,42.2,23.3,42.6,23.5z"/>
	<path class="st1" d="M50.5,27.4c-0.2,0.3-0.4,0.6-0.8,0.7c-0.3,0.2-0.7,0.3-1.2,0.3s-0.8-0.1-1.2-0.3c-0.3-0.2-0.6-0.4-0.8-0.7
		c-0.2-0.3-0.3-0.7-0.3-1.1v-3h0.8v3c0,0.4,0.1,0.8,0.4,1c0.2,0.2,0.6,0.4,1,0.4c0.4,0,0.7-0.1,1-0.4c0.2-0.2,0.4-0.6,0.4-1v-3h0.9
		v3C50.8,26.7,50.7,27,50.5,27.4z"/>
	<path class="st1" d="M56.5,26.8c0,0-0.1,0-0.2,0H55v1.5h-0.9v-5.1h2.1c0.6,0,1.1,0.2,1.5,0.5c0.4,0.3,0.5,0.7,0.5,1.3
		c0,0.4-0.1,0.7-0.3,1c-0.2,0.3-0.4,0.5-0.8,0.6l1.1,1.7h-1L56.5,26.8z M57.1,25.8c0.2-0.2,0.3-0.4,0.3-0.8c0-0.3-0.1-0.6-0.3-0.7
		c-0.2-0.2-0.5-0.2-0.9-0.2H55v2h1.2C56.6,26,56.9,25.9,57.1,25.8z"/>
	<path class="st1" d="M61.6,28.3v-5.1h0.9v5.1H61.6z"/>
	<path class="st1" d="M67.8,24v4.3h-0.9V24h-1.6v-0.8h4.1V24H67.8z"/>
	<path class="st1" d="M72.2,28.3v-5.1h0.9v5.1H72.2z"/>
	<path class="st1" d="M77.4,24v1.4h2.5v0.8h-2.5v1.4h2.8v0.8h-3.7v-5.1h3.6V24H77.4z"/>
	<path class="st1" d="M86.1,23.4c0.3,0.1,0.6,0.2,0.8,0.4l-0.4,0.8c-0.3-0.2-0.5-0.3-0.8-0.4c-0.3-0.1-0.5-0.1-0.7-0.1
		c-0.3,0-0.5,0-0.6,0.1c-0.1,0.1-0.2,0.2-0.2,0.4c0,0.1,0,0.3,0.1,0.4c0.1,0.1,0.2,0.2,0.4,0.2s0.3,0.1,0.6,0.2
		c0.3,0.1,0.6,0.2,0.8,0.3c0.2,0.1,0.4,0.2,0.5,0.4c0.2,0.2,0.2,0.4,0.2,0.8c0,0.3-0.1,0.6-0.2,0.8c-0.2,0.2-0.4,0.4-0.7,0.5
		s-0.6,0.2-1,0.2c-0.4,0-0.8-0.1-1.1-0.2c-0.4-0.1-0.7-0.3-0.9-0.6l0.4-0.7c0.3,0.2,0.5,0.4,0.8,0.5c0.3,0.1,0.6,0.2,0.9,0.2
		c0.3,0,0.5-0.1,0.7-0.2c0.2-0.1,0.2-0.3,0.2-0.5c0-0.2,0-0.3-0.1-0.4c-0.1-0.1-0.2-0.2-0.4-0.2c-0.1-0.1-0.3-0.1-0.6-0.2
		c-0.3-0.1-0.6-0.2-0.8-0.3c-0.2-0.1-0.4-0.2-0.5-0.4c-0.2-0.2-0.2-0.4-0.2-0.7c0-0.3,0.1-0.5,0.2-0.7s0.4-0.4,0.6-0.5
		s0.6-0.2,1-0.2C85.5,23.2,85.8,23.3,86.1,23.4z"/>
	<path class="st1" d="M96,24v4.3h-0.9V24h-1.6v-0.8h4.1V24H96z"/>
	<path class="st1" d="M103.8,23.6c0.4,0.2,0.7,0.5,1,0.9c0.2,0.4,0.4,0.8,0.4,1.3c0,0.5-0.1,0.9-0.4,1.3c-0.2,0.4-0.6,0.7-1,0.9
		s-0.9,0.3-1.4,0.3c-0.5,0-0.9-0.1-1.4-0.3s-0.7-0.5-1-0.9c-0.2-0.4-0.4-0.8-0.4-1.3c0-0.5,0.1-0.9,0.4-1.3c0.2-0.4,0.6-0.7,1-0.9
		c0.4-0.2,0.9-0.3,1.4-0.3C103,23.2,103.4,23.4,103.8,23.6z M101.6,24.2c-0.3,0.2-0.5,0.4-0.7,0.6c-0.2,0.3-0.2,0.6-0.2,0.9
		c0,0.3,0.1,0.6,0.2,0.9c0.2,0.3,0.4,0.5,0.7,0.7c0.3,0.2,0.6,0.2,0.9,0.2c0.3,0,0.6-0.1,0.9-0.2c0.3-0.2,0.5-0.4,0.7-0.7
		c0.2-0.3,0.2-0.6,0.2-0.9c0-0.3-0.1-0.6-0.2-0.9c-0.2-0.3-0.4-0.5-0.7-0.6c-0.3-0.2-0.6-0.2-0.9-0.2
		C102.2,24,101.8,24.1,101.6,24.2z"/>
	<path class="st1" d="M109.9,26.1l-0.9,0.9v1.3h-0.9v-5.1h0.9v2.6l2.4-2.6h1l-2,2.2l2.1,2.9h-1L109.9,26.1z"/>
	<path class="st1" d="M116.4,24v1.4h2.5v0.8h-2.5v1.4h2.8v0.8h-3.7v-5.1h3.6V24H116.4z"/>
	<path class="st1" d="M126,28.3l-2.7-3.6v3.6h-0.9v-5.1h0.8l2.7,3.6v-3.6h0.8v5.1H126z"/>
	<path class="st1" d="M137.9,23.7c0.3,0.3,0.5,0.7,0.5,1.3c0,0.6-0.2,1-0.5,1.3c-0.3,0.3-0.8,0.5-1.5,0.5h-1.2v1.5h-0.9v-5.1h2
		C137,23.3,137.5,23.4,137.9,23.7z M135.2,26h1.1c0.4,0,0.7-0.1,0.9-0.3c0.2-0.2,0.3-0.4,0.3-0.8c0-0.3-0.1-0.6-0.3-0.7
		c-0.2-0.2-0.5-0.2-0.9-0.2h-1.1V26z"/>
	<path class="st1" d="M144.4,27.5v0.8h-3v-5.1h0.9v4.3H144.4z"/>
	<path class="st1" d="M148.2,27.2l-0.5,1.1h-0.9l2.2-5.1h0.9l2.2,5.1h-0.9l-0.5-1.1H148.2z M149.5,24.2l-1,2.2h1.9L149.5,24.2z"/>
	<path class="st1" d="M156.3,24v4.3h-0.9V24h-1.6v-0.8h4.1V24H156.3z"/>
	<path class="st1" d="M161.7,24v1.5h2.3v0.8h-2.3v2.1h-0.9v-5.1h3.4l0,0.8H161.7z"/>
	<path class="st1" d="M170.7,23.6c0.4,0.2,0.7,0.5,1,0.9c0.2,0.4,0.4,0.8,0.4,1.3c0,0.5-0.1,0.9-0.4,1.3c-0.2,0.4-0.6,0.7-1,0.9
		s-0.9,0.3-1.4,0.3c-0.5,0-0.9-0.1-1.4-0.3s-0.7-0.5-1-0.9c-0.2-0.4-0.4-0.8-0.4-1.3c0-0.5,0.1-0.9,0.4-1.3c0.2-0.4,0.6-0.7,1-0.9
		c0.4-0.2,0.9-0.3,1.4-0.3C169.9,23.2,170.3,23.4,170.7,23.6z M168.5,24.2c-0.3,0.2-0.5,0.4-0.7,0.6c-0.2,0.3-0.2,0.6-0.2,0.9
		c0,0.3,0.1,0.6,0.2,0.9c0.2,0.3,0.4,0.5,0.7,0.7c0.3,0.2,0.6,0.2,0.9,0.2c0.3,0,0.6-0.1,0.9-0.2c0.3-0.2,0.5-0.4,0.7-0.7
		c0.2-0.3,0.2-0.6,0.2-0.9c0-0.3-0.1-0.6-0.2-0.9c-0.2-0.3-0.4-0.5-0.7-0.6c-0.3-0.2-0.6-0.2-0.9-0.2
		C169.1,24,168.8,24.1,168.5,24.2z"/>
	<path class="st1" d="M177.4,26.8c0,0-0.1,0-0.2,0H176v1.5h-0.9v-5.1h2.1c0.6,0,1.1,0.2,1.5,0.5c0.4,0.3,0.5,0.7,0.5,1.3
		c0,0.4-0.1,0.7-0.3,1s-0.4,0.5-0.8,0.6l1.1,1.7h-1L177.4,26.8z M178.1,25.8c0.2-0.2,0.3-0.4,0.3-0.8c0-0.3-0.1-0.6-0.3-0.7
		c-0.2-0.2-0.5-0.2-0.9-0.2H176v2h1.2C177.6,26,177.9,25.9,178.1,25.8z"/>
	<path class="st1" d="M187.1,28.3l0-3.8l-1.6,3.2h-0.6l-1.6-3.2v3.8h-0.8v-5.1h1l1.7,3.4l1.7-3.4h1v5.1H187.1z"/>
</g>
</svg>
