<svg xmlns="http://www.w3.org/2000/svg" width="208" height="127" viewBox="0 0 208 127">
    <g fill="none" fill-rule="evenodd">
        <path fill="#5261A3" d="M152.087.085l-24.526 14.248-101.998 58.5L.14 87.412l56.261 32.483 151.107-87.31z"/>
        <path fill="#576DA2" d="M56.402 119.896l2.73 1.577L.14 87.413v7.153l56.205 32.449z"/>
        <path fill="#799ADF" d="M207.508 32.585L56.402 119.896l-.057 7.06.056.032 6.141-3.548.05.03L207.53 39.725v-7.127z"/>
        <path fill="#FFF" d="M57.546 82.256l3.442 10.192-1.384.825-10.072-6.266 1.354-.801 4.913 3.112c1.347.849 2.55 1.63 3.62 2.426l.03-.022c-.528-1.095-.996-2.364-1.468-3.685l-1.774-4.992 1.34-.789zM63.225 83.286c-1.286.754-1.012 2.076-.483 2.88l3.694-2.198c-.45-.549-1.335-1.203-2.397-1.005a1.825 1.825 0 0 0-.185.043 2.5 2.5 0 0 0-.629.28m5.934 2.811l.853.631c-.306.435-.907 1.08-2.01 1.74-.435.26-.873.444-1.319.57-.13.036-.26.065-.39.09-1.588.295-3.118-.282-4.219-1.576-1.48-1.76-1.433-3.889.598-5.09a3.89 3.89 0 0 1 1.334-.512c1.712-.318 3.147.7 3.88 1.56.185.214.3.4.378.521l-4.894 2.901c.874.983 1.907 1.255 2.888 1.073.092-.018.185-.039.277-.064.33-.087.645-.223.94-.406.91-.539 1.346-.989 1.684-1.438M71.029 74.313c.374-.07.733.064.97.347.333.35.256.828-.25 1.128a.972.972 0 0 1-.34.127 1.044 1.044 0 0 1-.971-.322c-.315-.387-.23-.867.229-1.14a1.25 1.25 0 0 1 .274-.12.928.928 0 0 1 .088-.02M73.253 76.383l4.96 5.843-1.26.749-4.969-5.841zM77.759 69.778a2.29 2.29 0 0 1 .432-.047l.32 1.03a2.987 2.987 0 0 0-.766.109 4.357 4.357 0 0 0-.982.414c-1.337.798-1.066 1.813-.277 2.738l.254.296 4.037-2.397 4.957 5.833-1.258.757-4.268-5.043-2.792 1.661 4.274 5.033-1.253.74-4.264-5.026-.981.576-.696-.816.982-.576-.26-.313c-1.311-1.541-1.085-3.189.875-4.352a5.32 5.32 0 0 1 1.666-.617M70.582 77.824l.846 1.001a2.845 2.845 0 0 0-.454.223c-.889.524-1.044 1.471-.544 2.366.09.164.213.347.364.533l2.642 3.114-1.254.74-3.409-4.028a44.725 44.725 0 0 0-1.603-1.778l1.111-.662 1.008 1.126.064-.03c-.352-.98-.003-1.92.843-2.43.139-.086.252-.133.386-.175M100.28 56.96a1.05 1.05 0 0 1 .98.337c.316.362.249.838-.26 1.13a.8.8 0 0 1-.26.108 1.022 1.022 0 0 1-1.052-.302c-.32-.378-.238-.866.223-1.13a.964.964 0 0 1 .284-.122c.028-.008.057-.015.086-.02M102.498 59.032l4.957 5.835-1.26.75-4.957-5.835zM97.256 69.836c.849-.5 1.226-1.43.778-2.368a2.258 2.258 0 0 0-.336-.495l-.851-1.019a3.08 3.08 0 0 0-.446-.406 2.62 2.62 0 0 0-2.865-.146c-1.316.778-1.267 2.202-.178 3.493.799.93 1.9 1.486 3.003 1.281.074-.015.149-.03.223-.053a2.37 2.37 0 0 0 .672-.287zm2.504-2.672c.444.526.966 1.11 1.34 1.477l-1.136.674-.913-.98c.13.902-.291 1.9-1.427 2.574a3.966 3.966 0 0 1-1.242.46c-1.457.27-3.096-.294-4.26-1.67-1.655-1.932-1.231-3.976.455-4.985a3.914 3.914 0 0 1 1.242-.475c.619-.114 1.187-.05 1.62.123l-2.93-3.507 1.269-.75 5.982 7.06zM86.065 69.727c-1.277.753-.992 2.082-.474 2.878l3.694-2.197c-.443-.551-1.324-1.196-2.392-.997a2.643 2.643 0 0 0-.828.316m5.934 2.812l.86.629c-.304.435-.897 1.077-2 1.737a5.456 5.456 0 0 1-1.318.57 5.196 5.196 0 0 1-.394.092c-1.586.295-3.113-.276-4.216-1.577-1.497-1.756-1.442-3.887.59-5.088.349-.211.69-.352 1.028-.441.104-.03.209-.053.31-.072 1.708-.317 3.153.707 3.874 1.56.186.215.3.4.38.522l-4.894 2.902c.868.99 1.908 1.262 2.889 1.08.094-.017.186-.04.278-.064.327-.095.642-.231.947-.408.902-.536 1.337-.995 1.666-1.442M118.12 49.76l2.228 7.466-1.215.715-7.595-4.271 1.352-.81 4.143 2.484c.686.388 1.276.759 1.84 1.16l.03-.022a26.192 26.192 0 0 1-.673-1.85l-1.436-4.094 1.325-.778zM109.065 55.18c.994-.184 2.275.044 3.458 1.44l2.96 3.484-1.259.749-2.865-3.364c-.62-.742-1.422-1.228-2.32-1.061-.057.01-.113.024-.17.039a2.633 2.633 0 0 0-.59.255c-.834.49-1.06 1.374-.764 2.09.047.173.175.372.323.55l2.987 3.513-1.268.75-3.619-4.261a27.249 27.249 0 0 0-1.396-1.552l1.121-.663.897.923.021-.021c-.127-.758.226-1.776 1.376-2.462.225-.137.5-.256.82-.342.093-.025.19-.047.288-.066M122.355 48.183c-1.272.769-.992 2.08-.472 2.886l3.703-2.2c-.451-.548-1.335-1.202-2.405-1.002a2.697 2.697 0 0 0-.826.316m5.937 2.819l.861.63c-.297.433-.896 1.085-2.002 1.737a5.108 5.108 0 0 1-1.714.654c-1.586.295-3.113-.276-4.213-1.57-1.5-1.764-1.434-3.887.598-5.09a4.635 4.635 0 0 1 1.028-.44 3.71 3.71 0 0 1 .301-.068c1.711-.318 3.15.695 3.875 1.558.186.215.3.4.386.512l-4.901 2.91c.876.992 1.917 1.263 2.899 1.08a3.36 3.36 0 0 0 .277-.064c.327-.095.643-.231.939-.406.901-.536 1.336-.995 1.666-1.443M144.025 42.172c1.207-.714 1.302-2.208.187-3.528-.684-.8-1.906-1.553-3.147-1.323a2.527 2.527 0 0 0-.85.323c-1.484.885-1.149 2.428-.21 3.541.856 1.008 2.094 1.5 3.19 1.297a2.495 2.495 0 0 0 .831-.31m1.45-4.33c1.836 2.165.847 4.16-.833 5.159a4.781 4.781 0 0 1-1.149.497c-.124.034-.25.063-.376.086-1.546.287-3.195-.23-4.36-1.609-1.663-1.957-1.114-4.008.825-5.15a4.84 4.84 0 0 1 1.567-.591c1.58-.294 3.196.278 4.325 1.608M132.17 38.899l1.416 1.686 1.81-1.083.693.806-1.813 1.075 2.67 3.153c.479.563.945.85 1.453.756a1.41 1.41 0 0 0 .461-.185c.336-.191.539-.375.676-.504l.736.765c-.173.229-.52.516-1.001.803-.248.15-.491.255-.736.318a2.057 2.057 0 0 1-1.011.042c-.625-.1-1.2-.541-1.777-1.224l-2.704-3.18-1.083.64-.675-.81 1.07-.646-1.18-1.394.996-1.018zM129.938 42.878c.163-.03.317-.05.46-.062l.33.96a4.127 4.127 0 0 0-.815.135 3.445 3.445 0 0 0-.892.38c-.747.44-.858 1.053-.493 1.491.37.426.9.447 1.839.272.103-.02.213-.04.327-.065.1-.022.199-.042.294-.059 1.379-.257 2.343-.082 3.031.728.873 1.032.53 2.314-1.119 3.298a5.932 5.932 0 0 1-1.424.61c-.142.037-.28.07-.416.094-.156.03-.31.05-.457.06l-.374-.996a4.622 4.622 0 0 0 1.048-.17c.339-.088.69-.222.985-.405.918-.54 1.03-1.188.608-1.667-.38-.458-.904-.55-1.876-.37-.103.02-.212.041-.326.066a6.356 6.356 0 0 1-.347.073c-1.377.257-2.341.006-2.903-.636-.786-.944-.54-2.252.952-3.147a5.63 5.63 0 0 1 1.2-.506c.127-.035.25-.063.368-.084M152.903 29.253c.162-.03.314-.05.454-.06l.338.966a3.273 3.273 0 0 0-.514.058 3.632 3.632 0 0 0-1.195.44c-.746.45-.86 1.053-.494 1.492.363.422.876.453 1.772.286.124-.023.255-.049.394-.079.085-.019.17-.036.252-.05 1.403-.262 2.38-.092 3.076.727.87 1.023.528 2.314-1.12 3.298a6.005 6.005 0 0 1-1.84.7c-.158.03-.31.048-.457.062l-.374-.995a4.83 4.83 0 0 0 1.066-.172c.336-.097.671-.228.97-.395.916-.549 1.02-1.194.603-1.683-.388-.456-.905-.55-1.877-.37-.103.02-.21.042-.325.067-.12.028-.238.053-.353.074-1.375.256-2.342.013-2.887-.63-.802-.942-.547-2.25.946-3.138a4.885 4.885 0 0 1 1.198-.515c.127-.034.25-.062.367-.083M147.99 31.89l.854 1a2.721 2.721 0 0 0-.474.217c-.884.533-1.042 1.472-.53 2.373.09.164.203.348.36.525l2.636 3.124-1.245.739-3.416-4.02a32.254 32.254 0 0 0-1.597-1.787l1.103-.66 1.025 1.123.054-.036c-.35-.974-.014-1.92.835-2.422.147-.087.262-.134.395-.176"/>
    </g>
</svg>
